####
#
# OBJ File Generated by Meshlab
#
####
# Object skinnyTallTree.obj
#
# Vertices: 117
# Faces: 192
#
####
mtllib ./skinnyTallTree.obj.mtl

vn -0.6852735 -0.6272467 -0.3700837
v 7.3712149 0.2872720 -0.0059780
vn -0.6615639 -0.6577008 -0.3602260
v 7.4367151 0.3071850 -0.1626280
vn -0.8733545 -0.2133968 -0.4378514
v 7.4288502 0.8536150 -0.0828810
vn -0.6868249 -0.6251683 -0.3707238
v 7.3816652 0.2757910 -0.0059780
vn -0.6628025 -0.6561680 -0.3607442
v 7.4441042 0.2957050 -0.1552380
vn 0.0061981 -0.6058396 -0.7955627
v 6.3482771 0.0052850 -0.1391730
vn 0.5707016 -0.5968056 -0.5640238
v 6.4466872 0.0052850 -0.0984100
vn 0.8040112 -0.5946094 -0.0024023
v 6.4874501 0.0052850 -0.0000000
vn 0.5687037 -0.5996571 0.5630164
v 6.4466872 0.0052850 0.0984100
vn 0.0061741 -0.6080519 0.7938733
v 6.3482771 0.0052850 0.1391730
vn -0.5531000 -0.6170809 0.5597247
v 6.2498660 0.0052850 0.0984100
vn -0.7835143 -0.6213737 0.0004568
v 6.2091031 0.0052850 -0.0000000
vn -0.5520425 -0.6163655 -0.5615538
v 6.2498660 0.0052850 -0.0984100
vn 0.0678202 0.0527128 -0.9963041
v 6.3384280 0.5643980 -0.1062120
vn 0.7548094 0.0756958 -0.6515619
v 6.4101720 0.5633350 -0.0695210
vn 0.9927587 0.0928547 0.0762125
v 6.4348159 0.5628940 0.0071000
vn 0.6392328 0.0901516 0.7637107
v 6.3980770 0.5633350 0.0786390
vn -0.0893864 0.0667567 0.9937573
v 6.3217301 0.5643980 0.1033110
vn -0.7634898 0.0437671 0.6443352
v 6.2502952 0.5654620 0.0669990
vn -0.9965503 0.0344462 -0.0755041
v 6.2252860 0.5659020 -0.0092260
vn -0.6528934 0.0370360 -0.7565439
v 6.2616830 0.5654620 -0.0811850
vn 0.7893030 0.1765369 -0.5880778
v 6.4549780 2.1149349 -0.0734590
vn 0.1425279 0.1890771 -0.9715635
v 6.3731070 2.1172230 -0.1220650
vn 0.9750848 0.1716338 0.1405395
v 6.4784660 2.1139870 0.0187910
vn 0.5912760 0.1772537 0.7867489
v 6.4298959 2.1149349 0.1005960
vn -0.1365720 0.1901150 0.9722162
v 6.3377709 2.1172230 0.1241210
vn -0.7822849 0.2026653 0.5890307
v 6.2559710 2.1195109 0.0756340
vn -0.9683689 0.2075453 -0.1385155
v 6.2323642 2.1204579 -0.0165440
vn -0.5856287 0.2019148 -0.7850283
v 6.2808619 2.1195109 -0.0984690
vn -0.8915578 0.2253225 -0.3928799
v 6.2920208 2.7328410 -0.0426230
vn -0.9048317 0.2287023 0.3591307
v 6.2905822 2.7332079 0.0388820
vn -0.3830390 0.2064440 0.9003677
v 6.3471360 2.7307949 0.0975430
vn 0.3681691 0.1715880 0.9137883
v 6.4285550 2.7270169 0.0989980
vn 0.9087434 0.1445511 0.3915232
v 6.4871440 2.7240870 0.0423930
vn 0.9220185 0.1411727 -0.3604886
v 6.4885831 2.7237210 -0.0391120
vn -0.3509882 0.1982859 -0.9151448
v 6.3506098 2.7299111 -0.0992280
vn 0.4002180 0.1634302 -0.9017295
v 6.4320278 2.7261331 -0.0977740
vn -0.6795475 0.7329148 0.0324207
v 6.3555760 3.2779920 -0.0054950
vn -0.4461312 0.7305498 0.5169758
v 6.3665452 3.2779329 0.0172410
vn 0.0594934 0.7183371 0.6931468
v 6.3903770 3.2773740 0.0255430
vn 0.5404314 0.7051295 0.4590495
v 6.4130998 3.2766409 0.0145330
vn 0.7155085 0.6969181 -0.0485043
v 6.4213729 3.2761641 -0.0093680
vn 0.4824096 0.6978298 -0.5294475
v 6.4103689 3.2762229 -0.0320700
vn -0.5034013 0.7234121 -0.4725063
v 6.3638811 3.2775149 -0.0293270
vn -0.0224467 0.7088856 -0.7049662
v 6.3865738 3.2767820 -0.0403190
vn -0.0227098 -0.9929196 0.1165979
v 6.3479552 0.5600140 -0.2368990
vn 0.0825821 -0.2479837 -0.9652380
v 6.3645420 0.5941400 -0.4115460
vn 0.7423248 -0.2523611 -0.6206996
v 6.6438508 0.5893050 -0.2649550
vn -0.1033260 -0.9917751 0.0755372
v 6.5094900 0.5576660 -0.1549230
vn 0.9628824 -0.2536239 0.0923714
v 6.7371688 0.5873020 0.0362620
vn -0.1312452 -0.9912953 -0.0104061
v 6.5654898 0.5566940 0.0173910
vn 0.6116595 -0.2513715 0.7501233
v 6.5901299 0.5893050 0.3147570
vn -0.0903253 -0.9917611 -0.0908363
v 6.4832349 0.5576660 0.1785060
vn -0.0992738 -0.2466384 0.9640095
v 6.2897730 0.5941410 0.4076900
vn -0.0046198 -0.9929031 -0.1188376
v 6.3114991 0.5600140 0.2342780
vn -0.7505468 -0.2419021 0.6149495
v 6.0117388 0.5989760 0.2615320
vn 0.0758973 -0.9940537 -0.0780826
v 6.1506500 0.5623630 0.1526250
vn -0.9665564 -0.2402164 -0.0898039
v 5.9179888 0.6009790 -0.0384100
vn 0.1041252 -0.9945338 0.0077826
v 6.0943208 0.5633350 -0.0188560
vn -0.6236316 -0.2428686 -0.7430333
v 6.0637522 0.5989760 -0.3173370
vn 0.0633041 -0.9940614 0.0885134
v 6.1757450 0.5623620 -0.1803000
vn 0.2920211 -0.9449311 0.1477465
v 6.0662131 1.4110650 -0.1086560
vn -0.8989201 -0.2077036 -0.3857487
v 6.0039878 1.4291240 -0.1366950
vn 0.2972708 -0.9459516 -0.1296364
v 6.0623698 1.4120430 0.1089880
vn -0.9120082 -0.2043743 0.3556292
v 5.9992008 1.4303420 0.1344380
vn 0.1036341 -0.9392483 -0.3272195
v 6.2133870 1.4056010 0.2656320
vn -0.3975906 -0.2263199 0.8892137
v 6.1873312 1.4223170 0.3295780
vn -0.1706604 -0.9288935 -0.3286821
v 6.4307990 1.3955131 0.2695160
vn 0.3429912 -0.2606807 0.9024426
v 6.4581742 1.4097500 0.3344160
vn -0.3643239 -0.9209941 -0.1379782
v 6.5872502 1.3876880 0.1183640
vn 0.8759192 -0.2873335 0.3875631
v 6.6530738 1.4000020 0.1461170
vn -0.3687766 -0.9200172 0.1325606
v 6.5910921 1.3867100 -0.0992810
vn 0.8890073 -0.2906608 -0.3538111
v 6.6578598 1.3987840 -0.1250150
vn -0.1819858 -0.9265015 0.3293572
v 6.4400749 1.3931520 -0.2559250
vn 0.3745871 -0.2687306 -0.8873941
v 6.4697299 1.4068080 -0.3201560
vn 0.0915199 -0.9368077 0.3376619
v 6.2226629 1.4032400 -0.2598080
vn -0.3659951 -0.2343571 -0.9006245
v 6.1988869 1.4193760 -0.3249930
vn 0.3500954 -0.9367107 0.0025171
v 6.1692028 2.3726659 0.0057510
vn -0.9807213 -0.1946516 0.0172187
v 6.1213918 2.3688719 0.0057840
vn 0.2335253 -0.9360439 -0.2632259
v 6.2298450 2.3722310 0.1442750
vn -0.6839493 -0.1965488 0.7025539
v 6.1965098 2.3683209 0.1786690
vn -0.0363889 -0.9296675 -0.3665982
v 6.3705111 2.3680670 0.1993880
vn 0.0091058 -0.2168208 0.9761690
v 6.3716602 2.3630581 0.2478540
vn -0.2981350 -0.9214272 -0.2491736
v 6.5088968 2.3626139 0.1389650
vn 0.6912401 -0.2438933 0.6802230
v 6.5443678 2.3561649 0.1730180
vn -0.4005354 -0.9161273 0.0167985
v 6.5640998 2.3590660 -0.0016950
vn 0.9651254 -0.2615607 -0.0109022
v 6.6136718 2.3516810 -0.0021270
vn -0.2870774 -0.9167705 0.2777022
v 6.5036840 2.3595030 -0.1403590
vn 0.6714548 -0.2594728 -0.6941342
v 6.5388479 2.3522320 -0.1751930
vn -0.0219998 -0.9230021 0.3841657
v 6.3628778 2.3636670 -0.1956980
vn -0.0197309 -0.2390557 -0.9708053
v 6.3635192 2.3574951 -0.2446720
vn 0.2428486 -0.9312729 0.2715795
v 6.2242670 2.3691189 -0.1351350
vn -0.7049781 -0.2121848 -0.6767448
v 6.1905160 2.3643880 -0.1696560
vn 0.3065096 -0.9100892 -0.2789079
v 6.6026969 0.5329050 -0.2347350
vn 0.0171411 -0.9097538 -0.4147942
v 6.3573508 0.5364710 -0.3592440
vn 0.4140952 -0.9098970 0.0247505
v 6.6877470 0.5314280 0.0269670
vn 0.2725112 -0.9093871 0.3142498
v 6.5628219 0.5329050 0.2716630
vn -0.0313472 -0.9088108 0.4160292
v 6.3019981 0.5364720 0.3563650
vn -0.3153316 -0.9084382 0.2744197
v 6.0577040 0.5400380 0.2323540
vn -0.4171548 -0.9085349 -0.0233732
v 5.9721532 0.5415150 -0.0280890
vn -0.2814036 -0.9090937 -0.3071818
v 6.0958190 0.5400380 -0.2732870
vn -0.1440764 -0.9587051 -0.2452074
v 6.2100010 1.3801670 -0.2920100
vn -0.2873354 -0.9524528 -0.1013513
v 6.0345149 1.3889440 -0.1224670
vn -0.2903858 -0.9516914 0.0997978
v 6.0302048 1.3900410 0.1216580
vn -0.1523146 -0.9567924 0.2476865
v 6.1995959 1.3828160 0.2973610
vn 0.0532086 -0.9651307 0.2563039
v 6.4434609 1.3715000 0.3017170
vn 0.2063007 -0.9718727 0.1135938
v 6.6189470 1.3627230 0.1321750
vn 0.2104947 -0.9727296 -0.0974122
v 6.6232572 1.3616260 -0.1119510
vn 0.0625780 -0.9671410 -0.2464190
v 6.4538660 1.3688520 -0.2876540
vn -0.2248506 -0.9606191 -0.1632580
v 6.2009492 2.3461089 -0.1575750
vn -0.2918557 -0.9562222 0.0214361
v 6.1368670 2.3502369 0.0063860
vn -0.2100020 -0.9572586 0.1988845
v 6.2074389 2.3497300 0.1675950
vn -0.0272411 -0.9631040 0.2677474
v 6.3711400 2.3448839 0.2317330
vn 0.1518327 -0.9704480 0.1875565
v 6.5321898 2.3385389 0.1614150
vn 0.2222029 -0.9749958 0.0030271
v 6.5964341 2.3344100 -0.0022830
vn 0.1404836 -0.9739938 -0.1777649
v 6.5261240 2.3349171 -0.1636540
vn -0.0456346 -0.9679962 -0.2467809
v 6.3622608 2.3397629 -0.2280550
# 117 vertices, 0 vertices normals


usemtl material_0
vt 0.1363370 2.3036571
vt 0.2500000 2.3036571
vt 0.1250000 2.3036571
f 5/1/5 1/2/1 2/3/2
vt 0.2558840 2.3036571
f 5/1/5 4/4/4 1/2/1
vt 0.4930880 2.3036571
vt 0.2720770 2.3036571
vt 0.1569870 2.3036571
f 68/5/68 64/6/64 76/7/76
vt 0.0000000 2.3036571
f 47/8/47 29/3/29 23/8/23
f 60/3/60 28/2/28 29/3/29
vt 0.3750000 2.3036571
vt 0.5000000 2.3036571
f 56/9/56 26/10/26 27/9/27
vt 0.6250000 2.3036571
vt 0.7500000 2.3036571
f 52/11/52 24/12/24 25/11/25
f 58/2/58 27/9/27 28/2/28
f 54/10/54 25/11/25 26/10/26
vt 0.2748870 2.3036571
vt 0.1761720 2.3036571
vt 0.4922140 2.3036561
f 59/13/59 61/14/61 55/15/55
vt 0.8750000 2.3036571
f 50/12/50 22/16/22 24/12/24
f 71/11/71 35/12/35 34/11/34
f 77/8/77 30/3/30 36/8/36
f 75/16/75 35/12/35 73/12/73
f 69/10/69 32/9/32 67/9/67
f 77/8/77 37/16/37 75/16/75
f 71/11/71 33/10/33 69/10/69
vt 0.2713570 2.3036571
vt 0.1687250 2.3036571
vt 0.1528560 2.3036571
f 80/17/80 78/18/78 92/19/92
f 67/9/67 31/2/31 65/2/65
f 89/12/89 42/11/42 87/11/87
f 79/3/79 44/8/44 93/8/93
f 91/16/91 43/12/43 89/12/89
f 83/9/83 41/10/41 40/9/40
f 93/8/93 45/16/45 91/16/91
f 87/11/87 41/10/41 85/10/85
f 81/2/81 40/9/40 39/2/39
vt 0.7473900 2.3036561
f 94/20/94 47/8/47 48/16/48
vt 0.7161360 2.3036571
f 96/21/96 48/16/48 50/12/50
vt 0.6079010 2.3036571
f 97/22/97 50/12/50 52/11/52
vt 0.4946560 2.3036571
f 98/23/98 52/11/52 54/10/54
vt 0.3803440 2.3036571
f 99/24/99 54/10/54 56/9/56
vt 0.2670980 2.3036571
f 100/25/100 56/9/56 58/2/58
vt 0.1588640 2.3036571
f 101/26/101 58/2/58 60/3/60
vt 0.1276100 2.3036571
f 95/27/95 60/3/60 47/8/47
f 48/16/48 23/8/23 22/16/22
vt 0.1025080 2.3036571
f 102/28/102 63/3/63 77/8/77
vt 0.2632020 2.3036571
vt 0.1509190 2.3036571
f 104/29/104 63/3/63 103/30/103
vt 0.3791350 2.3036571
f 105/31/105 69/10/69 67/9/67
vt 0.6117980 2.3036571
vt 0.4958650 2.3036571
f 107/32/107 69/10/69 106/33/106
f 107/32/107 73/12/73 71/11/71
vt 0.7724920 2.3036561
vt 0.7240810 2.3036571
f 109/34/109 73/12/73 108/35/108
f 109/34/109 77/8/77 75/16/75
f 105/31/105 65/2/65 104/29/104
f 65/2/65 30/3/30 63/3/63
vt 0.0706380 2.3036571
f 110/36/110 79/3/79 93/8/93
vt 0.1418520 2.3036571
f 111/37/111 81/2/81 79/3/79
vt 0.3777270 2.3036561
f 113/38/113 85/10/85 83/9/83
vt 0.4972730 2.3036571
f 114/39/114 87/11/87 85/10/85
vt 0.6163190 2.3036571
f 115/40/115 89/12/89 87/11/87
vt 0.7331480 2.3036571
f 116/41/116 91/16/91 89/12/89
vt 0.8043620 2.3036571
f 117/42/117 93/8/93 91/16/91
vt 0.2586810 2.3036571
f 112/43/112 83/9/83 81/2/81
f 81/2/81 38/3/38 79/3/79
f 44/8/44 42/11/42 45/16/45
vt 0.7029890 2.3036561
f 49/44/49 95/27/95 94/20/94
vt 0.6988330 2.3036571
f 51/45/51 94/20/94 96/21/96
vt 0.6001130 2.3036571
f 51/45/51 97/22/97 53/46/53
f 53/46/53 98/23/98 55/15/55
vt 0.3827810 2.3036571
f 55/15/55 99/24/99 57/47/57
f 57/47/57 100/25/100 59/13/59
f 61/14/61 100/25/100 101/26/101
vt 0.1720120 2.3036571
f 46/48/46 101/26/101 95/27/95
f 76/7/76 103/30/103 102/28/102
vt 0.1702950 2.3036571
f 62/49/62 104/29/104 103/30/103
vt 0.3819120 2.3036571
f 68/5/68 105/31/105 66/50/66
vt 0.6029230 2.3036571
f 70/51/70 106/33/106 68/5/68
vt 0.7047050 2.3036561
f 72/52/72 107/32/107 70/51/70
f 72/52/72 109/34/109 108/35/108
vt 0.7180130 2.3036561
f 74/53/74 102/28/102 109/34/109
f 66/50/66 104/29/104 64/6/64
f 92/19/92 111/37/111 110/36/110
f 80/17/80 111/37/111 78/18/78
vt 0.4933120 2.3036571
vt 0.3816920 2.3036561
f 84/54/84 113/38/113 82/55/82
vt 0.6036460 2.3036561
f 86/56/86 114/39/114 84/54/84
f 86/56/86 116/41/116 115/40/115
vt 0.7062800 2.3036571
f 88/57/88 117/42/117 116/41/116
vt 0.7221460 2.3036571
f 90/58/90 110/36/110 117/42/117
f 82/55/82 112/43/112 80/17/80
f 76/7/76 74/53/74 72/52/72
f 72/52/72 70/51/70 68/5/68
f 68/5/68 66/50/66 64/6/64
f 64/6/64 62/49/62 76/7/76
f 76/7/76 72/52/72 68/5/68
f 47/8/47 60/3/60 29/3/29
f 60/3/60 58/2/58 28/2/28
f 56/9/56 54/10/54 26/10/26
f 52/11/52 50/12/50 24/12/24
f 58/2/58 56/9/56 27/9/27
f 54/10/54 52/11/52 25/11/25
f 46/48/46 49/44/49 51/45/51
f 51/45/51 53/46/53 46/48/46
f 53/46/53 55/15/55 61/14/61
f 46/48/46 53/46/53 61/14/61
f 55/15/55 57/47/57 59/13/59
f 50/12/50 48/16/48 22/16/22
f 71/11/71 73/12/73 35/12/35
f 77/8/77 63/3/63 30/3/30
f 75/16/75 37/16/37 35/12/35
f 69/10/69 33/10/33 32/9/32
f 77/8/77 36/8/36 37/16/37
f 71/11/71 34/11/34 33/10/33
f 92/19/92 90/58/90 80/17/80
f 90/58/90 88/57/88 80/17/80
f 88/57/88 86/56/86 84/54/84
f 84/54/84 82/55/82 88/57/88
f 82/55/82 80/17/80 88/57/88
f 67/9/67 32/9/32 31/2/31
f 89/12/89 43/12/43 42/11/42
f 79/3/79 38/3/38 44/8/44
f 91/16/91 45/16/45 43/12/43
f 83/9/83 85/10/85 41/10/41
f 93/8/93 44/8/44 45/16/45
f 87/11/87 42/11/42 41/10/41
f 81/2/81 83/9/83 40/9/40
f 94/20/94 95/27/95 47/8/47
f 96/21/96 94/20/94 48/16/48
f 97/22/97 96/21/96 50/12/50
f 98/23/98 97/22/97 52/11/52
f 99/24/99 98/23/98 54/10/54
f 100/25/100 99/24/99 56/9/56
f 101/26/101 100/25/100 58/2/58
f 95/27/95 101/26/101 60/3/60
f 48/16/48 47/8/47 23/8/23
f 102/28/102 103/30/103 63/3/63
f 104/29/104 65/2/65 63/3/63
f 105/31/105 106/33/106 69/10/69
f 107/32/107 71/11/71 69/10/69
f 107/32/107 108/35/108 73/12/73
f 109/34/109 75/16/75 73/12/73
f 109/34/109 102/28/102 77/8/77
f 105/31/105 67/9/67 65/2/65
f 65/2/65 31/2/31 30/3/30
f 110/36/110 111/37/111 79/3/79
f 111/37/111 112/43/112 81/2/81
f 113/38/113 114/39/114 85/10/85
f 114/39/114 115/40/115 87/11/87
f 115/40/115 116/41/116 89/12/89
f 116/41/116 117/42/117 91/16/91
f 117/42/117 110/36/110 93/8/93
f 112/43/112 113/38/113 83/9/83
f 81/2/81 39/2/39 38/3/38
f 44/8/44 38/3/38 41/10/41
f 38/3/38 39/2/39 40/9/40
f 41/10/41 38/3/38 40/9/40
f 41/10/41 42/11/42 44/8/44
f 42/11/42 43/12/43 45/16/45
f 49/44/49 46/48/46 95/27/95
f 51/45/51 49/44/49 94/20/94
f 51/45/51 96/21/96 97/22/97
f 53/46/53 97/22/97 98/23/98
f 55/15/55 98/23/98 99/24/99
f 57/47/57 99/24/99 100/25/100
f 61/14/61 59/13/59 100/25/100
f 46/48/46 61/14/61 101/26/101
f 76/7/76 62/49/62 103/30/103
f 62/49/62 64/6/64 104/29/104
f 68/5/68 106/33/106 105/31/105
f 70/51/70 107/32/107 106/33/106
f 72/52/72 108/35/108 107/32/107
f 72/52/72 74/53/74 109/34/109
f 74/53/74 76/7/76 102/28/102
f 66/50/66 105/31/105 104/29/104
f 92/19/92 78/18/78 111/37/111
f 80/17/80 112/43/112 111/37/111
f 84/54/84 114/39/114 113/38/113
f 86/56/86 115/40/115 114/39/114
f 86/56/86 88/57/88 116/41/116
f 88/57/88 90/58/90 117/42/117
f 90/58/90 92/19/92 110/36/110
f 82/55/82 113/38/113 112/43/112
vt 0.5802940 0.4197060
vt 0.9197060 0.4197060
vt 0.9197060 0.0802940
f 13/59/13 7/60/7 9/61/9
vt 0.1250000 0.5000000
vt 0.0000000 1.4018281
vt 0.0000000 0.5000000
f 13/62/13 14/63/14 6/64/6
vt 0.2500000 1.4018281
vt 0.2500000 0.5000000
f 20/65/20 13/62/13 12/66/12
vt 0.3750000 1.4018281
vt 0.3750000 0.5000000
f 19/67/19 12/66/12 11/68/11
vt 0.5000000 1.4018281
vt 0.5000000 0.5000000
f 18/69/18 11/68/11 10/70/10
vt 0.6250000 1.4018281
vt 0.6250000 0.5000000
f 17/71/17 10/70/10 9/72/9
vt 0.7500000 1.4018281
vt 0.7500000 0.5000000
f 16/73/16 9/72/9 8/74/8
vt 0.8750000 0.5000000
f 7/75/7 16/73/16 8/74/8
vt 1.0000000 0.5000000
vt 0.8750000 1.4018281
f 6/76/6 15/77/15 7/75/7
vt 0.7500000 0.4900000
f 13/59/13 6/78/6 7/60/7
vt 0.9900000 0.2500000
f 7/60/7 8/79/8 9/61/9
vt 0.7500000 0.0100000
vt 0.5802940 0.0802940
f 9/61/9 10/80/10 11/81/11
vt 0.5100000 0.2500000
f 11/81/11 12/82/12 9/61/9
f 12/82/12 13/59/13 9/61/9
vt 0.1250000 1.4018281
f 13/62/13 21/83/21 14/63/14
f 20/65/20 21/83/21 13/62/13
f 19/67/19 20/65/20 12/66/12
f 18/69/18 19/67/19 11/68/11
f 17/71/17 18/69/18 10/70/10
f 16/73/16 17/71/17 9/72/9
f 7/75/7 15/77/15 16/73/16
vt 1.0000000 1.4018281
f 6/76/6 14/84/14 15/77/15
# 192 faces, 84 coords texture

# End of File
