####
#
# OBJ File Generated by Meshlab
#
####
# Object skinnyTallTree.obj
#
# Vertices: 113
# Faces: 190
#
####
mtllib ./skinnyTallTree.obj.mtl

vn 0.0000000 0.0000000 0.0000000
v 0.7554307 -0.7880235 -0.0809530
vn 0.0061981 -0.6058396 -0.7955627
v -0.3251424 -1.6363535 -0.1372450
vn 0.5707016 -0.5968056 -0.5640238
v -0.2267323 -1.6363535 -0.0964820
vn 0.8040112 -0.5946094 -0.0024023
v -0.1859694 -1.6363535 0.0019280
vn 0.5687037 -0.5996571 0.5630164
v -0.2267323 -1.6363535 0.1003380
vn 0.0061741 -0.6080519 0.7938733
v -0.3251424 -1.6363535 0.1411010
vn -0.5530999 -0.6170809 0.5597246
v -0.4235535 -1.6363535 0.1003380
vn -0.7835142 -0.6213737 0.0004568
v -0.4643164 -1.6363535 0.0019280
vn -0.5520425 -0.6163655 -0.5615538
v -0.4235535 -1.6363535 -0.0964820
vn 0.0678202 0.0527128 -0.9963041
v -0.3349915 -1.0772405 -0.1042840
vn 0.7548094 0.0756958 -0.6515619
v -0.2632475 -1.0783036 -0.0675930
vn 0.9927587 0.0928547 0.0762125
v -0.2386036 -1.0787445 0.0090280
vn 0.6392329 0.0901516 0.7637107
v -0.2753425 -1.0783036 0.0805670
vn -0.0893864 0.0667567 0.9937573
v -0.3516893 -1.0772405 0.1052390
vn -0.7634898 0.0437671 0.6443352
v -0.4231243 -1.0761765 0.0689270
vn -0.9965503 0.0344462 -0.0755041
v -0.4481335 -1.0757365 -0.0072980
vn -0.6528934 0.0370360 -0.7565439
v -0.4117365 -1.0761765 -0.0792570
vn 0.7893030 0.1765369 -0.5880778
v -0.2184415 0.4732964 -0.0715310
vn 0.1425279 0.1890771 -0.9715635
v -0.3003125 0.4755845 -0.1201370
vn 0.9750848 0.1716338 0.1405395
v -0.1949534 0.4723485 0.0207190
vn 0.5912760 0.1772537 0.7867489
v -0.2435236 0.4732964 0.1025240
vn -0.1365720 0.1901150 0.9722162
v -0.3356485 0.4755845 0.1260490
vn -0.7822849 0.2026653 0.5890307
v -0.4174485 0.4778724 0.0775620
vn -0.9683689 0.2075453 -0.1385155
v -0.4410553 0.4788194 -0.0146160
vn -0.5856287 0.2019148 -0.7850283
v -0.3925576 0.4778724 -0.0965410
vn -0.8915578 0.2253225 -0.3928799
v -0.3813987 1.0912025 -0.0406950
vn -0.9048317 0.2287023 0.3591307
v -0.3828373 1.0915694 0.0408100
vn -0.3830390 0.2064440 0.9003677
v -0.3262835 1.0891564 0.0994710
vn 0.3681691 0.1715880 0.9137883
v -0.2448645 1.0853784 0.1009260
vn 0.9087434 0.1445511 0.3915232
v -0.1862755 1.0824485 0.0443210
vn 0.9220186 0.1411727 -0.3604886
v -0.1848364 1.0820825 -0.0371840
vn -0.3509882 0.1982859 -0.9151448
v -0.3228097 1.0882726 -0.0973000
vn 0.4002180 0.1634302 -0.9017295
v -0.2413917 1.0844946 -0.0958460
vn -0.6795475 0.7329148 0.0324207
v -0.3178434 1.6363535 -0.0035670
vn -0.4461312 0.7305498 0.5169758
v -0.3068743 1.6362944 0.0191690
vn 0.0594934 0.7183371 0.6931468
v -0.2830424 1.6357355 0.0274710
vn 0.5404314 0.7051295 0.4590495
v -0.2603197 1.6350024 0.0164610
vn 0.7155086 0.6969181 -0.0485043
v -0.2520466 1.6345255 -0.0074400
vn 0.4824096 0.6978298 -0.5294475
v -0.2630506 1.6345844 -0.0301420
vn -0.5034013 0.7234121 -0.4725063
v -0.3095384 1.6358764 -0.0273990
vn -0.0224467 0.7088856 -0.7049662
v -0.2868457 1.6351435 -0.0383910
vn -0.0227098 -0.9929196 0.1165979
v -0.3254642 -1.0816245 -0.2349710
vn 0.0825821 -0.2479837 -0.9652380
v -0.3088775 -1.0474985 -0.4096180
vn 0.7423248 -0.2523611 -0.6206995
v -0.0295687 -1.0523336 -0.2630270
vn -0.1033260 -0.9917751 0.0755372
v -0.1639295 -1.0839725 -0.1529950
vn 0.9628824 -0.2536239 0.0923714
v 0.0637493 -1.0543365 0.0381900
vn -0.1312452 -0.9912953 -0.0104061
v -0.1079297 -1.0849445 0.0193190
vn 0.6116595 -0.2513715 0.7501233
v -0.0832896 -1.0523336 0.3166850
vn -0.0903253 -0.9917611 -0.0908363
v -0.1901846 -1.0839725 0.1804340
vn -0.0992738 -0.2466384 0.9640095
v -0.3836465 -1.0474975 0.4096180
vn -0.0046198 -0.9929030 -0.1188376
v -0.3619204 -1.0816245 0.2362060
vn -0.7505468 -0.2419021 0.6149495
v -0.6616807 -1.0426625 0.2634600
vn 0.0758973 -0.9940537 -0.0780826
v -0.5227695 -1.0792755 0.1545530
vn -0.9665564 -0.2402164 -0.0898039
v -0.7554307 -1.0406595 -0.0364820
vn 0.1041252 -0.9945338 0.0077826
v -0.5790987 -1.0783036 -0.0169280
vn -0.6236316 -0.2428686 -0.7430333
v -0.6096673 -1.0426625 -0.3154090
vn 0.0633041 -0.9940614 0.0885134
v -0.4976745 -1.0792766 -0.1783720
vn 0.2920211 -0.9449311 0.1477465
v -0.6072063 -0.2305735 -0.1067280
vn -0.8989200 -0.2077036 -0.3857487
v -0.6694317 -0.2125145 -0.1347670
vn 0.2972708 -0.9459516 -0.1296364
v -0.6110497 -0.2295955 0.1109160
vn -0.9120083 -0.2043743 0.3556292
v -0.6742187 -0.2112966 0.1363660
vn 0.1036341 -0.9392483 -0.3272195
v -0.4600325 -0.2360375 0.2675600
vn -0.3975906 -0.2263199 0.8892137
v -0.4860883 -0.2193215 0.3315060
vn -0.1706604 -0.9288935 -0.3286821
v -0.2426205 -0.2461255 0.2714440
vn 0.3429912 -0.2606807 0.9024426
v -0.2152452 -0.2318885 0.3363440
vn -0.3643239 -0.9209941 -0.1379782
v -0.0861692 -0.2539505 0.1202920
vn 0.8759192 -0.2873335 0.3875631
v -0.0203457 -0.2416365 0.1480450
vn -0.3687766 -0.9200172 0.1325606
v -0.0823274 -0.2549285 -0.0973530
vn 0.8890073 -0.2906608 -0.3538111
v -0.0155597 -0.2428545 -0.1230870
vn -0.1819858 -0.9265015 0.3293572
v -0.2333446 -0.2484865 -0.2539970
vn 0.3745871 -0.2687306 -0.8873941
v -0.2036896 -0.2348305 -0.3182280
vn 0.0915199 -0.9368077 0.3376619
v -0.4507565 -0.2383986 -0.2578800
vn -0.3659951 -0.2343571 -0.9006245
v -0.4745326 -0.2222625 -0.3230650
vn 0.3500954 -0.9367107 0.0025171
v -0.5042167 0.7310274 0.0076790
vn -0.9807213 -0.1946516 0.0172187
v -0.5520277 0.7272334 0.0077120
vn 0.2335253 -0.9360439 -0.2632259
v -0.4435744 0.7305925 0.1462030
vn -0.6839493 -0.1965488 0.7025539
v -0.4769096 0.7266824 0.1805970
vn -0.0363889 -0.9296675 -0.3665982
v -0.3029084 0.7264285 0.2013160
vn 0.0091058 -0.2168208 0.9761690
v -0.3017592 0.7214196 0.2497820
vn -0.2981350 -0.9214272 -0.2491736
v -0.1645226 0.7209754 0.1408930
vn 0.6912401 -0.2438933 0.6802230
v -0.1290517 0.7145264 0.1749460
vn -0.4005354 -0.9161273 0.0167985
v -0.1093197 0.7174275 0.0002330
vn 0.9651254 -0.2615607 -0.0109022
v -0.0597477 0.7100425 -0.0001990
vn -0.2870774 -0.9167705 0.2777022
v -0.1697354 0.7178645 -0.1384310
vn 0.6714548 -0.2594728 -0.6941342
v -0.1345716 0.7105935 -0.1732650
vn -0.0219998 -0.9230021 0.3841657
v -0.3105416 0.7220285 -0.1937700
vn -0.0197309 -0.2390557 -0.9708053
v -0.3099003 0.7158566 -0.2427440
vn 0.2428486 -0.9312729 0.2715795
v -0.4491525 0.7274804 -0.1332070
vn -0.7049781 -0.2121848 -0.6767448
v -0.4829035 0.7227495 -0.1677280
vn 0.3065096 -0.9100892 -0.2789079
v -0.0707226 -1.1087335 -0.2328070
vn 0.0171411 -0.9097538 -0.4147942
v -0.3160686 -1.1051675 -0.3573160
vn 0.4140952 -0.9098970 0.0247505
v 0.0143275 -1.1102105 0.0288950
vn 0.2725112 -0.9093871 0.3142498
v -0.1105976 -1.1087335 0.2735910
vn -0.0313472 -0.9088108 0.4160292
v -0.3714213 -1.1051664 0.3582930
vn -0.3153316 -0.9084382 0.2744197
v -0.6157155 -1.1016005 0.2342820
vn -0.4171548 -0.9085349 -0.0233732
v -0.7012663 -1.1001235 -0.0261610
vn -0.2814036 -0.9090937 -0.3071818
v -0.5776005 -1.1016005 -0.2713590
vn -0.1440764 -0.9587050 -0.2452074
v -0.4634185 -0.2614715 -0.2900820
vn -0.2873354 -0.9524528 -0.1013513
v -0.6389046 -0.2526945 -0.1205390
vn -0.2903858 -0.9516914 0.0997978
v -0.6432147 -0.2515975 0.1235860
vn -0.1523146 -0.9567924 0.2476865
v -0.4738235 -0.2588226 0.2992890
vn 0.0532086 -0.9651307 0.2563039
v -0.2299585 -0.2701385 0.3036450
vn 0.2063007 -0.9718727 0.1135938
v -0.0544724 -0.2789155 0.1341030
vn 0.2104947 -0.9727296 -0.0974122
v -0.0501623 -0.2800125 -0.1100230
vn 0.0625780 -0.9671410 -0.2464190
v -0.2195535 -0.2727865 -0.2857260
vn -0.2248506 -0.9606191 -0.1632580
v -0.4724703 0.7044704 -0.1556470
vn -0.2918557 -0.9562222 0.0214361
v -0.5365524 0.7085984 0.0083140
vn -0.2100020 -0.9572586 0.1988845
v -0.4659805 0.7080915 0.1695230
vn -0.0272411 -0.9631040 0.2677474
v -0.3022795 0.7032454 0.2336610
vn 0.1518327 -0.9704480 0.1875565
v -0.1412296 0.6969004 0.1633430
vn 0.2222029 -0.9749958 0.0030271
v -0.0769854 0.6927714 -0.0003550
vn 0.1404836 -0.9739938 -0.1777649
v -0.1472955 0.6932786 -0.1617260
vn -0.0456346 -0.9679962 -0.2467809
v -0.3111587 0.6981244 -0.2261270
# 113 vertices, 0 vertices normals


usemtl material_2
vt 0.4930880 2.3036571
vt 0.2720770 2.3036571
vt 0.1569870 2.3036571
f 64/1/64 60/2/60 72/3/72
vt 0.0000000 2.3036571
vt 0.1250000 2.3036571
f 43/4/43 25/5/25 19/4/19
vt 0.2500000 2.3036571
f 56/5/56 24/6/24 25/5/25
vt 0.3750000 2.3036571
vt 0.5000000 2.3036571
f 52/7/52 22/8/22 23/7/23
vt 0.6250000 2.3036571
vt 0.7500000 2.3036571
f 48/9/48 20/10/20 21/9/21
f 54/6/54 23/7/23 24/6/24
f 50/8/50 21/9/21 22/8/22
vt 0.2748870 2.3036571
vt 0.1761720 2.3036571
vt 0.4922140 2.3036561
f 55/11/55 57/12/57 51/13/51
vt 0.8750000 2.3036571
f 46/10/46 18/14/18 20/10/20
f 67/9/67 31/10/31 30/9/30
f 73/4/73 26/5/26 32/4/32
f 71/14/71 31/10/31 69/10/69
f 65/8/65 28/7/28 63/7/63
f 73/4/73 33/14/33 71/14/71
f 67/9/67 29/8/29 65/8/65
vt 0.2713570 2.3036571
vt 0.1687250 2.3036571
vt 0.1528560 2.3036571
f 76/15/76 74/16/74 88/17/88
f 63/7/63 27/6/27 61/6/61
f 85/10/85 38/9/38 83/9/83
f 75/5/75 40/4/40 89/4/89
f 87/14/87 39/10/39 85/10/85
f 79/7/79 37/8/37 36/7/36
f 89/4/89 41/14/41 87/14/87
f 83/9/83 37/8/37 81/8/81
f 77/6/77 36/7/36 35/6/35
vt 0.7473900 2.3036561
f 90/18/90 43/4/43 44/14/44
vt 0.7161360 2.3036571
f 92/19/92 44/14/44 46/10/46
vt 0.6079010 2.3036571
f 93/20/93 46/10/46 48/9/48
vt 0.4946560 2.3036571
f 94/21/94 48/9/48 50/8/50
vt 0.3803440 2.3036571
f 95/22/95 50/8/50 52/7/52
vt 0.2670980 2.3036571
f 96/23/96 52/7/52 54/6/54
vt 0.1588640 2.3036571
f 97/24/97 54/6/54 56/5/56
vt 0.1276100 2.3036571
f 91/25/91 56/5/56 43/4/43
f 44/14/44 19/4/19 18/14/18
vt 0.1025080 2.3036571
f 98/26/98 59/5/59 73/4/73
vt 0.2632020 2.3036571
vt 0.1509190 2.3036571
f 100/27/100 59/5/59 99/28/99
vt 0.3791350 2.3036571
f 101/29/101 65/8/65 63/7/63
vt 0.6117980 2.3036571
vt 0.4958650 2.3036571
f 103/30/103 65/8/65 102/31/102
f 103/30/103 69/10/69 67/9/67
vt 0.7724920 2.3036561
vt 0.7240810 2.3036571
f 105/32/105 69/10/69 104/33/104
f 105/32/105 73/4/73 71/14/71
f 101/29/101 61/6/61 100/27/100
f 61/6/61 26/5/26 59/5/59
vt 0.0706380 2.3036571
f 106/34/106 75/5/75 89/4/89
vt 0.1418520 2.3036571
f 107/35/107 77/6/77 75/5/75
vt 0.3777270 2.3036561
f 109/36/109 81/8/81 79/7/79
vt 0.4972730 2.3036571
f 110/37/110 83/9/83 81/8/81
vt 0.6163190 2.3036571
f 111/38/111 85/10/85 83/9/83
vt 0.7331480 2.3036571
f 112/39/112 87/14/87 85/10/85
vt 0.8043620 2.3036571
f 113/40/113 89/4/89 87/14/87
vt 0.2586810 2.3036571
f 108/41/108 79/7/79 77/6/77
f 77/6/77 34/5/34 75/5/75
f 40/4/40 38/9/38 41/14/41
vt 0.7029890 2.3036561
f 45/42/45 91/25/91 90/18/90
vt 0.6988330 2.3036571
f 47/43/47 90/18/90 92/19/92
vt 0.6001130 2.3036571
f 47/43/47 93/20/93 49/44/49
f 49/44/49 94/21/94 51/13/51
vt 0.3827810 2.3036571
f 51/13/51 95/22/95 53/45/53
f 53/45/53 96/23/96 55/11/55
f 57/12/57 96/23/96 97/24/97
vt 0.1720120 2.3036571
f 42/46/42 97/24/97 91/25/91
f 72/3/72 99/28/99 98/26/98
vt 0.1702950 2.3036571
f 58/47/58 100/27/100 99/28/99
vt 0.3819120 2.3036571
f 64/1/64 101/29/101 62/48/62
vt 0.6029230 2.3036571
f 66/49/66 102/31/102 64/1/64
vt 0.7047050 2.3036561
f 68/50/68 103/30/103 66/49/66
f 68/50/68 105/32/105 104/33/104
vt 0.7180130 2.3036561
f 70/51/70 98/26/98 105/32/105
f 62/48/62 100/27/100 60/2/60
f 88/17/88 107/35/107 106/34/106
f 76/15/76 107/35/107 74/16/74
vt 0.4933120 2.3036571
vt 0.3816920 2.3036561
f 80/52/80 109/36/109 78/53/78
vt 0.6036460 2.3036561
f 82/54/82 110/37/110 80/52/80
f 82/54/82 112/39/112 111/38/111
vt 0.7062800 2.3036571
f 84/55/84 113/40/113 112/39/112
vt 0.7221460 2.3036571
f 86/56/86 106/34/106 113/40/113
f 78/53/78 108/41/108 76/15/76
f 72/3/72 70/51/70 68/50/68
f 68/50/68 66/49/66 64/1/64
f 64/1/64 62/48/62 60/2/60
f 60/2/60 58/47/58 72/3/72
f 72/3/72 68/50/68 64/1/64
f 43/4/43 56/5/56 25/5/25
f 56/5/56 54/6/54 24/6/24
f 52/7/52 50/8/50 22/8/22
f 48/9/48 46/10/46 20/10/20
f 54/6/54 52/7/52 23/7/23
f 50/8/50 48/9/48 21/9/21
f 42/46/42 45/42/45 47/43/47
f 47/43/47 49/44/49 42/46/42
f 49/44/49 51/13/51 57/12/57
f 42/46/42 49/44/49 57/12/57
f 51/13/51 53/45/53 55/11/55
f 46/10/46 44/14/44 18/14/18
f 67/9/67 69/10/69 31/10/31
f 73/4/73 59/5/59 26/5/26
f 71/14/71 33/14/33 31/10/31
f 65/8/65 29/8/29 28/7/28
f 73/4/73 32/4/32 33/14/33
f 67/9/67 30/9/30 29/8/29
f 88/17/88 86/56/86 76/15/76
f 86/56/86 84/55/84 76/15/76
f 84/55/84 82/54/82 80/52/80
f 80/52/80 78/53/78 84/55/84
f 78/53/78 76/15/76 84/55/84
f 63/7/63 28/7/28 27/6/27
f 85/10/85 39/10/39 38/9/38
f 75/5/75 34/5/34 40/4/40
f 87/14/87 41/14/41 39/10/39
f 79/7/79 81/8/81 37/8/37
f 89/4/89 40/4/40 41/14/41
f 83/9/83 38/9/38 37/8/37
f 77/6/77 79/7/79 36/7/36
f 90/18/90 91/25/91 43/4/43
f 92/19/92 90/18/90 44/14/44
f 93/20/93 92/19/92 46/10/46
f 94/21/94 93/20/93 48/9/48
f 95/22/95 94/21/94 50/8/50
f 96/23/96 95/22/95 52/7/52
f 97/24/97 96/23/96 54/6/54
f 91/25/91 97/24/97 56/5/56
f 44/14/44 43/4/43 19/4/19
f 98/26/98 99/28/99 59/5/59
f 100/27/100 61/6/61 59/5/59
f 101/29/101 102/31/102 65/8/65
f 103/30/103 67/9/67 65/8/65
f 103/30/103 104/33/104 69/10/69
f 105/32/105 71/14/71 69/10/69
f 105/32/105 98/26/98 73/4/73
f 101/29/101 63/7/63 61/6/61
f 61/6/61 27/6/27 26/5/26
f 106/34/106 107/35/107 75/5/75
f 107/35/107 108/41/108 77/6/77
f 109/36/109 110/37/110 81/8/81
f 110/37/110 111/38/111 83/9/83
f 111/38/111 112/39/112 85/10/85
f 112/39/112 113/40/113 87/14/87
f 113/40/113 106/34/106 89/4/89
f 108/41/108 109/36/109 79/7/79
f 77/6/77 35/6/35 34/5/34
f 40/4/40 34/5/34 37/8/37
f 34/5/34 35/6/35 36/7/36
f 37/8/37 34/5/34 36/7/36
f 37/8/37 38/9/38 40/4/40
f 38/9/38 39/10/39 41/14/41
f 45/42/45 42/46/42 91/25/91
f 47/43/47 45/42/45 90/18/90
f 47/43/47 92/19/92 93/20/93
f 49/44/49 93/20/93 94/21/94
f 51/13/51 94/21/94 95/22/95
f 53/45/53 95/22/95 96/23/96
f 57/12/57 55/11/55 96/23/96
f 42/46/42 57/12/57 97/24/97
f 72/3/72 58/47/58 99/28/99
f 58/47/58 60/2/60 100/27/100
f 64/1/64 102/31/102 101/29/101
f 66/49/66 103/30/103 102/31/102
f 68/50/68 104/33/104 103/30/103
f 68/50/68 70/51/70 105/32/105
f 70/51/70 72/3/72 98/26/98
f 62/48/62 101/29/101 100/27/100
f 88/17/88 74/16/74 107/35/107
f 76/15/76 108/41/108 107/35/107
f 80/52/80 110/37/110 109/36/109
f 82/54/82 111/38/111 110/37/110
f 82/54/82 84/55/84 112/39/112
f 84/55/84 86/56/86 113/40/113
f 86/56/86 88/17/88 106/34/106
f 78/53/78 109/36/109 108/41/108
vt 0.5802940 0.4197060
vt 0.9197060 0.4197060
vt 0.9197060 0.0802940
f 9/57/9 3/58/3 5/59/5
vt 0.1250000 0.5000000
vt 0.0000000 1.4018281
vt 0.0000000 0.5000000
f 9/60/9 10/61/10 2/62/2
vt 0.2500000 1.4018281
vt 0.2500000 0.5000000
f 16/63/16 9/60/9 8/64/8
vt 0.3750000 1.4018281
vt 0.3750000 0.5000000
f 15/65/15 8/64/8 7/66/7
vt 0.5000000 1.4018281
vt 0.5000000 0.5000000
f 14/67/14 7/66/7 6/68/6
vt 0.6250000 1.4018281
vt 0.6250000 0.5000000
f 13/69/13 6/68/6 5/70/5
vt 0.7500000 1.4018281
vt 0.7500000 0.5000000
f 12/71/12 5/70/5 4/72/4
vt 0.8750000 0.5000000
f 3/73/3 12/71/12 4/72/4
vt 1.0000000 0.5000000
vt 0.8750000 1.4018281
f 2/74/2 11/75/11 3/73/3
vt 0.7500000 0.4900000
f 9/57/9 2/76/2 3/58/3
vt 0.9900000 0.2500000
f 3/58/3 4/77/4 5/59/5
vt 0.7500000 0.0100000
vt 0.5802940 0.0802940
f 5/59/5 6/78/6 7/79/7
vt 0.5100000 0.2500000
f 7/79/7 8/80/8 5/59/5
f 8/80/8 9/57/9 5/59/5
vt 0.1250000 1.4018281
f 9/60/9 17/81/17 10/61/10
f 16/63/16 17/81/17 9/60/9
f 15/65/15 16/63/16 8/64/8
f 14/67/14 15/65/15 7/66/7
f 13/69/13 14/67/14 6/68/6
f 12/71/12 13/69/13 5/70/5
f 3/73/3 11/75/11 12/71/12
vt 1.0000000 1.4018281
f 2/74/2 10/82/10 11/75/11
# 190 faces, 82 coords texture

# End of File
