####
#
# OBJ File Generated by Meshlab
#
####
# Object bShrooms.obj
#
# Vertices: 216
# Faces: 198
#
####
mtllib ./bShrooms.obj.mtl

vn 0.0000273 -0.5946922 -0.8039535
v 1.6144470 0.0000990 7.5429902
vn -0.5684955 -0.5946638 -0.5684961
v 1.5663511 0.0000990 7.5629067
vn -0.8039551 -0.5946900 0.0000248
v 1.5464340 0.0000990 7.6110029
vn -0.5684725 -0.5946700 0.5685126
v 1.5663511 0.0000990 7.6590900
vn 0.0000240 -0.5946887 0.8039562
v 1.6144470 0.0000990 7.6790071
vn 0.5684546 -0.5946801 0.5685199
v 1.6625340 0.0000990 7.6590900
vn 0.8039904 -0.5946424 0.0000440
v 1.6824600 0.0000990 7.6110029
vn 0.5684566 -0.5946835 -0.5685144
v 1.6625340 0.0000990 7.5629067
vn -0.0000766 0.1221293 -0.9925142
v 1.6144470 0.1096290 7.5533133
vn -0.6969384 0.1081344 -0.7089316
v 1.5736500 0.1096290 7.5702062
vn -0.9973348 0.0718453 -0.0127118
v 1.5567571 0.1096290 7.6110029
vn -0.7134202 0.0326524 0.6999753
v 1.5736500 0.1096290 7.6517906
vn -0.0000386 0.0154580 0.9998806
v 1.6144470 0.1096290 7.6686840
vn 0.7133529 0.0321728 0.7000662
v 1.6552351 0.1096290 7.6517906
vn 0.9973863 0.0711360 -0.0126582
v 1.6721280 0.1096290 7.6110029
vn 0.6969041 0.1076027 -0.7090461
v 1.6552351 0.1096290 7.5702062
vn -0.0003090 0.2584198 -0.9660327
v 1.6144470 0.2994750 7.5824461
vn -0.6926430 0.1991280 -0.6932486
v 1.5794730 0.2966940 7.5966663
vn -0.9985871 0.0499288 -0.0181901
v 1.5649830 0.2899980 7.6309919
vn -0.7210913 -0.1087879 0.6842460
v 1.5794730 0.2832930 7.6653175
vn -0.0000319 -0.1772754 0.9841613
v 1.6144470 0.2805210 7.6795378
vn 0.7209576 -0.1083245 0.6844604
v 1.6494210 0.2832930 7.6653175
vn 0.9985843 0.0501040 -0.0178593
v 1.6639020 0.2899980 7.6309919
vn 0.6925330 0.1991206 -0.6933607
v 1.6494210 0.2966940 7.5966663
vn -0.0003539 -0.6323525 -0.7746807
v 1.6144470 0.4476510 7.6404600
vn -0.3721421 -0.6825029 -0.6290469
v 1.5840900 0.4435470 7.6523485
vn -0.5264328 -0.8039123 -0.2767557
v 1.5715170 0.4336650 7.6810498
vn -0.3713829 -0.9254665 0.0747427
v 1.5840900 0.4237740 7.7097421
vn 0.0000933 -0.9756956 0.2191307
v 1.6144470 0.4196790 7.7216306
vn 0.3712074 -0.9255261 0.0748763
v 1.6448040 0.4237740 7.7097421
vn 0.5268989 -0.8037190 -0.2764296
v 1.6573770 0.4336650 7.6810498
vn 0.3725762 -0.6819754 -0.6293620
v 1.6448040 0.4435470 7.6523485
vn 0.0000004 -0.8071052 -0.5904077
v 1.6144470 0.4835340 7.4357190
vn -0.2088273 -0.8352730 -0.5086356
v 1.4389471 0.4598550 7.5044518
vn -0.2953342 -0.9032890 -0.3112019
v 1.3662540 0.4026870 7.6703758
vn -0.2088458 -0.9713078 -0.1137743
v 1.4389471 0.3455190 7.8362999
vn 0.0000030 -0.9994876 -0.0320086
v 1.6144470 0.3218400 7.9050241
vn 0.2088073 -0.9713140 -0.1137924
v 1.7899380 0.3455190 7.8362999
vn 0.2952766 -0.9033040 -0.3112131
v 1.8626310 0.4026870 7.6703758
vn 0.2087940 -0.8352914 -0.5086191
v 1.7899380 0.4598550 7.5044518
vn 0.0000072 0.0422679 -0.9991063
v 1.6144470 0.5243040 7.4045520
vn -0.6776733 -0.0491739 -0.7337171
v 1.4087250 0.4965480 7.4851198
vn -0.9583800 -0.2699200 -0.0930106
v 1.3235130 0.4295340 7.6796188
vn -0.6776791 -0.4906443 0.5477401
v 1.4087250 0.3625200 7.8741274
vn 0.0000004 -0.5820642 0.8131428
v 1.6144470 0.3347640 7.9546947
vn 0.6776916 -0.4906421 0.5477265
v 1.8201690 0.3625200 7.8741274
vn 0.9583802 -0.2699175 -0.0930168
v 1.9053810 0.4295340 7.6796188
vn 0.6776870 -0.0491743 -0.7337044
v 1.8201690 0.4965480 7.4851198
vn 0.0000086 0.7465250 -0.6653573
v 1.6144470 0.5963850 7.4602079
vn -0.6167734 0.6632923 -0.4238324
v 1.4293259 0.5714101 7.5327029
vn -0.8722580 0.4623744 0.1592985
v 1.3526461 0.5111100 7.7077260
vn -0.6167785 0.2614700 0.7424405
v 1.4293259 0.4508100 7.8827491
vn 0.0000027 0.1782823 0.9839794
v 1.6144470 0.4258260 7.9552441
vn 0.6167606 0.2615061 0.7424425
v 1.7995589 0.4508100 7.8827491
vn 0.8722433 0.4623993 0.1593063
v 1.8762391 0.5111100 7.7077260
vn 0.6167578 0.6633112 -0.4238255
v 1.7995589 0.5714101 7.5327029
vn 0.0000053 0.9485725 -0.3165599
v 1.6144470 0.6480360 7.5561748
vn -0.4301449 0.8905280 -0.1481056
v 1.4815800 0.6301080 7.6082039
vn -0.6082777 0.7504371 0.2585392
v 1.4265541 0.5868270 7.7338171
vn -0.4301282 0.6103178 0.6652082
v 1.4815800 0.5435550 7.8594298
vn 0.0000096 0.5522708 0.8336648
v 1.6144470 0.5256270 7.9114594
vn 0.4301281 0.6103165 0.6652095
v 1.7473049 0.5435550 7.8594298
vn 0.6082984 0.7504175 0.2585475
v 1.8023400 0.5868270 7.7338171
vn 0.4301327 0.8905335 -0.1481078
v 1.7473049 0.6301080 7.6082039
vn 0.0000153 0.9965029 0.0835586
v 1.6144470 0.6586200 7.7098684
vn -0.1736915 0.9730695 0.1515492
v 1.5818940 0.6542280 7.7226119
vn -0.2456404 0.9164862 0.3157751
v 1.5684121 0.6436260 7.7533827
vn -0.1737042 0.8599347 0.4799366
v 1.5818940 0.6330240 7.7841539
vn 0.0000399 0.8365042 0.5479607
v 1.6144470 0.6286320 7.7969069
vn 0.1736874 0.8599266 0.4799573
v 1.6469910 0.6330240 7.7841539
vn 0.2456256 0.9164951 0.3157607
v 1.6604730 0.6436260 7.7533827
vn 0.1736950 0.9730664 0.1515647
v 1.6469910 0.6542280 7.7226119
vn 0.0000118 -0.5946789 -0.8039633
v 0.9301680 0.0000990 7.4626107
vn -0.5684938 -0.5946478 -0.5685145
v 0.8820720 0.0000990 7.4825277
vn -0.8039553 -0.5946898 0.0000261
v 0.8621550 0.0000990 7.5306244
vn -0.5685099 -0.5946866 0.5684578
v 0.8820720 0.0000990 7.5787110
vn 0.0000274 -0.5946621 0.8039757
v 0.9301680 0.0000990 7.5986371
vn 0.5685274 -0.5946910 0.5684359
v 0.9782550 0.0000990 7.5787110
vn 0.8039582 -0.5946859 0.0000234
v 0.9981720 0.0000990 7.5306244
vn 0.5685201 -0.5946600 -0.5684755
v 0.9782550 0.0000990 7.4825277
vn 0.0009343 0.0579400 -0.9983197
v 0.9301680 0.1096290 7.4729342
vn -0.7069700 0.0589398 -0.7047833
v 0.8893710 0.1096290 7.4898357
vn -0.9975225 0.0701689 0.0050252
v 0.8724780 0.1096290 7.5306244
vn -0.7013183 0.0865958 0.7075690
v 0.8893710 0.1096290 7.5714121
vn -0.0002991 0.0937587 0.9955949
v 0.9301680 0.1096290 7.5883141
vn 0.7015393 0.0858335 0.7074428
v 0.9709560 0.1096290 7.5714121
vn 0.9974340 0.0714915 0.0038111
v 0.9878490 0.1096290 7.5306244
vn 0.7070125 0.0619911 -0.7044789
v 0.9709560 0.1096290 7.4898357
vn 0.0012410 -0.1047986 -0.9944927
v 0.9301680 0.2754090 7.4768581
vn -0.7103629 -0.0721012 -0.7001328
v 0.8951941 0.2806200 7.4903760
vn -0.9997117 0.0116401 0.0210014
v 0.8807040 0.2932200 7.5230007
vn -0.6909456 0.1070265 0.7149402
v 0.8951941 0.3058110 7.5556345
vn -0.0000945 0.1496786 0.9887347
v 0.9301680 0.3110220 7.5691438
vn 0.6913983 0.1086003 0.7142649
v 0.9651420 0.3058110 7.5556345
vn 0.9997401 0.0106433 0.0201593
v 0.9796230 0.2932200 7.5230007
vn 0.7113103 -0.0761935 -0.6987361
v 0.9651420 0.2806200 7.4903760
vn -0.0001072 -0.9562209 -0.2926458
v 0.9301680 0.4146030 7.4416142
vn -0.3550930 -0.9228373 -0.1492661
v 0.8932590 0.4180770 7.4564996
vn -0.5015872 -0.8423305 0.1972047
v 0.8779680 0.4264650 7.4924459
vn -0.3525920 -0.7629261 0.5418696
v 0.8932590 0.4348620 7.5283828
vn 0.0002935 -0.7309553 0.6824253
v 0.9301680 0.4383360 7.5432692
vn 0.3523085 -0.7633268 0.5414896
v 0.9670680 0.4348620 7.5283828
vn 0.5013646 -0.8423504 0.1976852
v 0.9823590 0.4264650 7.4924459
vn 0.3552841 -0.9227436 -0.1493908
v 0.9670680 0.4180770 7.4564996
vn 0.0000039 -0.9975156 -0.0704458
v 0.9301680 0.3190860 7.2076411
vn -0.2088231 -0.9778559 0.0138103
v 0.7167960 0.3391740 7.2937169
vn -0.2953298 -0.9303861 0.2171684
v 0.6284160 0.3876750 7.5015001
vn -0.2088173 -0.8829160 0.4205408
v 0.7167960 0.4361760 7.7092829
vn 0.0000027 -0.8632549 0.5047683
v 0.9301680 0.4562640 7.7953501
vn 0.2088185 -0.8829201 0.4205319
v 1.1435310 0.4361760 7.7092829
vn 0.2953780 -0.9303683 0.2171786
v 1.2319200 0.3876750 7.5015001
vn 0.2088150 -0.9778576 0.0138081
v 1.1435310 0.3391740 7.2937169
vn 0.0000064 -0.4958420 -0.8684128
v 0.9301680 0.3408930 7.1491861
vn -0.6776873 -0.4320266 -0.5950572
v 0.6800400 0.3644460 7.2500758
vn -0.9583861 -0.2779987 0.0649059
v 0.5764410 0.4212990 7.4936523
vn -0.6776943 -0.1239406 0.7248236
v 0.6800400 0.4781520 7.7372193
vn 0.0000121 -0.0601690 0.9981882
v 0.9301680 0.5016960 7.8381090
vn 0.6776927 -0.1239398 0.7248253
v 1.1802870 0.4781520 7.7372193
vn 0.9583955 -0.2779693 0.0648941
v 1.2838860 0.4212990 7.4936523
vn 0.6776944 -0.4320195 -0.5950542
v 1.1802870 0.3644460 7.2500758
vn 0.0000050 0.2716097 -0.9624075
v 0.9301680 0.4510980 7.1598420
vn -0.6190327 0.3299166 -0.7127087
v 0.7050960 0.4722930 7.2506251
vn -0.8754711 0.4706191 -0.1098550
v 0.6118650 0.5234490 7.4698019
vn -0.6190410 0.6113522 0.4929876
v 0.7050960 0.5746140 7.6889791
vn 0.0000128 0.6696025 0.7427198
v 0.9301680 0.5958000 7.7797709
vn 0.6190396 0.6113507 0.4929913
v 1.1552310 0.5746140 7.6889791
vn 0.8754734 0.4706128 -0.1098631
v 1.2484620 0.5234490 7.4698019
vn 0.6190456 0.3299102 -0.7127003
v 1.1552310 0.4722930 7.2506251
vn 0.0000015 0.6431105 -0.7657734
v 0.9301680 0.5816070 7.2311940
vn -0.4239368 0.6830339 -0.5947624
v 0.7752060 0.5961960 7.2936988
vn -0.5995348 0.7793995 -0.1819189
v 0.7110180 0.6314130 7.4446020
vn -0.4239230 0.8757697 0.2309043
v 0.7752060 0.6666390 7.5955052
vn 0.0000056 0.9156818 0.4019042
v 0.9301680 0.6812280 7.6580100
vn 0.4239297 0.8757662 0.2309055
v 1.0851210 0.6666390 7.5955052
vn 0.5995380 0.7793977 -0.1819163
v 1.1493090 0.6314130 7.4446020
vn 0.4239400 0.6830366 -0.5947570
v 1.0851210 0.5961960 7.2936988
vn -0.0000093 0.9019698 -0.4317991
v 0.9301680 0.6766829 7.3765712
vn -0.1523557 0.9163226 -0.3703251
v 0.8905950 0.6804090 7.3925371
vn -0.2154996 0.9509604 -0.2218879
v 0.8741970 0.6894000 7.4310660
vn -0.1523706 0.9855838 -0.0735375
v 0.8905950 0.6983910 7.4696040
vn 0.0000049 0.9999269 -0.0120920
v 0.9301680 0.7021170 7.4855700
vn 0.1523663 0.9855853 -0.0735266
v 0.9697410 0.6983910 7.4696040
vn 0.2154955 0.9509535 -0.2219213
v 0.9861300 0.6894000 7.4310660
vn 0.1523930 0.9163228 -0.3703092
v 0.9697410 0.6804090 7.3925371
vn 0.2694671 -0.6151596 0.7409225
v 1.1785591 -0.0041220 8.1075239
vn 0.7143919 -0.6151391 0.3335388
v 1.1920950 -0.0041220 8.0951309
vn 0.7410206 -0.6151067 -0.2693180
v 1.1929049 -0.0041220 8.0768070
vn 0.3335353 -0.6151047 -0.7144232
v 1.1805120 -0.0041220 8.0632715
vn -0.2693045 -0.6150858 -0.7410429
v 1.1621790 -0.0041220 8.0624609
vn -0.7145132 -0.6150779 -0.3333918
v 1.1486430 -0.0041220 8.0748539
vn -0.7409233 -0.6151479 0.2694918
v 1.1478419 -0.0041220 8.0931873
vn -0.3333945 -0.6150804 0.7145098
v 1.1602349 -0.0041220 8.1067228
vn 0.3410952 -0.0015773 0.9400275
v 1.1773170 0.0864090 8.1041040
vn 0.9070672 0.0011917 0.4209843
v 1.1888011 0.0864090 8.0935917
vn 0.9378203 0.0142017 -0.3468307
v 1.1894850 0.0864090 8.0780487
vn 0.4186128 0.0310087 -0.9076353
v 1.1789730 0.0864090 8.0665741
vn -0.3409238 0.0378349 -0.9393293
v 1.1634210 0.0864090 8.0658903
vn -0.9037734 0.0293347 -0.4270049
v 1.1519461 0.0864090 8.0763931
vn -0.9411790 0.0136600 0.3376324
v 1.1512620 0.0864090 8.0919447
vn -0.4246736 0.0025628 0.9053429
v 1.1617740 0.0864090 8.1034203
vn 0.3386866 -0.1147374 0.9338772
v 1.1783791 0.1608390 8.1070204
vn 0.9099773 -0.0823326 0.4064021
v 1.1907001 0.1639710 8.0962744
vn 0.9314711 0.0109398 -0.3636509
v 1.1917710 0.1715490 8.0807495
vn 0.4142070 0.1269614 -0.9012843
v 1.1809710 0.1791270 8.0695438
vn -0.3348010 0.1827315 -0.9244012
v 1.1646359 0.1822680 8.0692110
vn -0.8961773 0.1267463 -0.4252079
v 1.1523149 0.1791270 8.0799570
vn -0.9469253 0.0108013 0.3212722
v 1.1512439 0.1715490 8.0954819
vn -0.4366287 -0.0835246 0.8957561
v 1.1620350 0.1639710 8.1066961
vn 0.1090244 -0.9474200 0.3008474
v 1.1836801 0.2369250 8.1216087
vn 0.4093645 -0.9117047 0.0348603
v 1.1939940 0.2381400 8.1123390
vn 0.4382518 -0.8238358 -0.3594856
v 1.1947229 0.2410560 8.0987577
vn 0.1718766 -0.7311158 -0.6602486
v 1.1854351 0.2439810 8.0888042
vn -0.2468411 -0.6896452 -0.6807782
v 1.1715839 0.2451960 8.0883265
vn -0.5572183 -0.7295877 -0.3964966
v 1.1612700 0.2439810 8.0975971
vn -0.5672821 -0.8234927 0.0071308
v 1.1605411 0.2410560 8.1111784
vn -0.2910247 -0.9117957 0.2897124
v 1.1698290 0.2381400 8.1211233
vn 0.0255716 -0.9971929 0.0703743
v 1.2326310 0.1803690 8.2562313
vn 0.1953609 -0.9772642 -0.0823950
v 1.3293360 0.1917270 8.1693182
vn 0.2074277 -0.9291067 -0.3061612
v 1.3361490 0.2191320 8.0418873
vn 0.0544769 -0.8809511 -0.4700611
v 1.2490830 0.2465460 7.9485927
vn -0.1737487 -0.8610685 -0.4778832
v 1.1191410 0.2578950 7.9440842
vn -0.3436788 -0.8809375 -0.3253215
v 1.0224271 0.2465460 8.0309963
vn -0.3556386 -0.9291013 -0.1014491
v 1.0156140 0.2191320 8.1584282
vn -0.2026410 -0.9772676 0.0623281
v 1.1026800 0.1917270 8.2517223
vn 0.2967366 -0.4957753 0.8161827
v 1.2439170 0.1926990 8.2872810
vn 0.8402022 -0.4321067 0.3276342
v 1.3572811 0.2060010 8.1853924
vn 0.8785482 -0.2779529 -0.3884524
v 1.3652730 0.2381400 8.0360193
vn 0.3892716 -0.1239191 -0.9127496
v 1.2632130 0.2702700 7.9266601
vn -0.3410888 -0.0602325 -0.9380994
v 1.1108789 0.2835720 7.9213676
vn -0.8845831 -0.1238781 -0.4496298
v 0.9975150 0.2702700 8.0232573
vn -0.9229069 -0.2778936 0.2664920
v 0.9895231 0.2381400 8.1726303
vn -0.4335156 -0.4321193 0.7907826
v 1.0915921 0.2060010 8.2819977
vn 0.3288415 0.2716320 0.9044774
v 1.2418560 0.2549790 8.2816200
vn 0.8253247 0.3298976 0.4582649
v 1.3438709 0.2669580 8.1899366
vn 0.8603095 0.4706208 -0.1959176
v 1.3510619 0.2958660 8.0555220
vn 0.4133307 0.6113467 -0.6748430
v 1.2592169 0.3247830 7.9571157
vn -0.2537761 0.6696041 -0.6980172
v 1.1221470 0.3367620 7.9523549
vn -0.7502376 0.6113476 -0.2517890
v 1.0201410 0.3247830 8.0440378
vn -0.7852240 0.4706624 0.4023682
v 1.0129499 0.2958660 8.1784525
vn -0.3382717 0.3299171 0.8813211
v 1.1047860 0.2669580 8.2768679
vn 0.2616411 0.6431264 0.7196752
v 1.2280771 0.3287340 8.2437210
vn 0.6016308 0.6830343 0.4141312
v 1.2983129 0.3369780 8.1806040
vn 0.6256062 0.7794030 -0.0338831
v 1.3032629 0.3568860 8.0880566
vn 0.3195083 0.8757666 -0.3618665
v 1.2400290 0.3767940 8.0203047
vn -0.1373269 0.9156856 -0.3777052
v 1.1456550 0.3850380 8.0170288
vn -0.4773315 0.8757561 -0.0721523
v 1.0754280 0.3767940 8.0801458
vn -0.5013040 0.7793811 0.3758450
v 1.0704780 0.3568860 8.1726933
vn -0.1952127 0.6830548 0.7037956
v 1.1337030 0.3369780 8.2404451
vn 0.1475373 0.9019454 0.4058660
v 1.2000060 0.3824640 8.1665096
vn 0.2697829 0.9162912 0.2960194
v 1.2179430 0.3845700 8.1503906
vn 0.2784110 0.9509268 0.1350022
v 1.2192030 0.3896550 8.1267567
vn 0.1683691 0.9855753 0.0171208
v 1.2030569 0.3947400 8.1094589
vn 0.0041072 0.9999269 0.0113749
v 1.1789551 0.3968460 8.1086216
vn -0.1180540 0.9855772 0.1212468
v 1.1610271 0.3947400 8.1247406
vn -0.1266781 0.9509197 0.2823195
v 1.1597580 0.3896550 8.1483746
vn -0.0166441 0.9162816 0.4001888
v 1.1759040 0.3845700 8.1656733
# 216 vertices, 0 vertices normals


usemtl material_12
vt 0.0000000 0.0000000
vt 0.0000000 0.0000000
vt 0.0000000 0.0000000
f 7/1/7 6/1/6 5/1/5 4/2/4 3/3/3 2/1/2 1/1/1 8/1/8
f 23/1/23 15/1/15 16/1/16 24/2/24
f 14/1/14 6/1/6 7/1/7 15/2/15
f 12/1/12 4/1/4 5/1/5 13/2/13
f 10/1/10 2/1/2 3/1/3 11/2/11
f 15/1/15 7/1/7 8/1/8 16/2/16
f 13/1/13 5/1/5 6/1/6 14/2/14
f 11/1/11 3/1/3 4/1/4 12/2/12
f 9/1/9 1/1/1 2/1/2 10/2/10
f 16/1/16 8/1/8 1/1/1 9/2/9
f 28/1/28 20/1/20 21/1/21 29/2/29
f 21/1/21 13/1/13 14/1/14 22/2/22
f 19/1/19 11/1/11 12/1/12 20/2/20
f 17/1/17 9/1/9 10/1/10 18/2/18
f 24/1/24 16/1/16 9/1/9 17/2/17
f 22/1/22 14/1/14 15/1/15 23/2/23
f 20/1/20 12/1/12 13/1/13 21/2/21
f 18/1/18 10/1/10 11/1/11 19/2/19
f 40/1/40 32/1/32 25/1/25 33/2/33
f 26/1/26 18/1/18 19/1/19 27/2/27
f 31/1/31 23/1/23 24/1/24 32/2/32
f 29/1/29 21/1/21 22/1/22 30/2/30
f 27/1/27 19/1/19 20/1/20 28/2/28
f 25/1/25 17/1/17 18/1/18 26/2/26
f 32/1/32 24/1/24 17/1/17 25/2/25
f 30/1/30 22/1/22 23/1/23 31/2/31
f 38/1/38 30/1/30 31/1/31 39/2/39
f 36/1/36 28/1/28 29/1/29 37/2/37
f 34/1/34 26/1/26 27/1/27 35/2/35
f 39/1/39 31/1/31 32/1/32 40/2/40
f 37/1/37 29/1/29 30/1/30 38/2/38
f 35/1/35 27/1/27 28/1/28 36/2/36
f 33/1/33 25/1/25 26/1/26 34/2/34

usemtl material_13
f 45/1/45 37/1/37 38/1/38 46/2/46
f 55/1/55 47/1/47 48/1/48 56/2/56
f 43/1/43 35/1/35 36/1/36 44/2/44
f 41/1/41 33/1/33 34/1/34 42/2/42
f 48/1/48 40/1/40 33/1/33 41/2/41
f 46/1/46 38/1/38 39/1/39 47/2/47
f 44/1/44 36/1/36 37/1/37 45/2/45
f 42/1/42 34/1/34 35/1/35 43/2/43
f 47/1/47 39/1/39 40/1/40 48/2/48
f 60/1/60 52/1/52 53/1/53 61/2/61
f 53/1/53 45/1/45 46/1/46 54/2/54
f 51/1/51 43/1/43 44/1/44 52/2/52
f 49/1/49 41/1/41 42/1/42 50/2/50
f 56/1/56 48/1/48 41/1/41 49/2/49
f 54/1/54 46/1/46 47/1/47 55/2/55
f 52/1/52 44/1/44 45/1/45 53/2/53
f 50/1/50 42/1/42 43/1/43 51/2/51
f 72/1/72 64/1/64 57/1/57 65/2/65
f 58/1/58 50/1/50 51/1/51 59/2/59
f 63/1/63 55/1/55 56/1/56 64/2/64
f 61/1/61 53/1/53 54/1/54 62/2/62
f 59/1/59 51/1/51 52/1/52 60/2/60
f 57/1/57 49/1/49 50/1/50 58/2/58
f 64/1/64 56/1/56 49/1/49 57/2/57
vt 0.0000000 0.0000000
f 62/1/62 54/1/54 55/1/55 63/4/63
vt 0.0000000 0.0000000
f 69/1/69 70/1/70 71/1/71 72/2/72 65/5/65 66/1/66 67/1/67 68/1/68
f 70/1/70 62/1/62 63/1/63 71/2/71
f 68/1/68 60/1/60 61/1/61 69/2/69
f 66/1/66 58/1/58 59/1/59 67/2/67
f 71/1/71 63/1/63 64/1/64 72/2/72
f 69/1/69 61/1/61 62/1/62 70/2/70
f 67/1/67 59/1/59 60/1/60 68/2/68
f 65/1/65 57/1/57 58/1/58 66/4/66

usemtl material_12
vt 0.0000000 0.0000000
f 79/1/79 78/1/78 77/1/77 76/2/76 75/6/75 74/1/74 73/1/73 80/1/80
f 95/1/95 87/1/87 88/1/88 96/2/96
f 86/1/86 78/1/78 79/1/79 87/2/87
f 84/1/84 76/1/76 77/1/77 85/2/85
f 82/1/82 74/1/74 75/1/75 83/2/83
f 87/1/87 79/1/79 80/1/80 88/2/88
f 85/1/85 77/1/77 78/1/78 86/2/86
f 83/1/83 75/1/75 76/1/76 84/2/84
f 81/1/81 73/1/73 74/1/74 82/2/82
f 88/1/88 80/1/80 73/1/73 81/2/81
f 100/1/100 92/1/92 93/1/93 101/2/101
f 93/1/93 85/1/85 86/1/86 94/2/94
f 91/1/91 83/1/83 84/1/84 92/2/92
f 89/1/89 81/1/81 82/1/82 90/2/90
f 96/1/96 88/1/88 81/1/81 89/2/89
f 94/1/94 86/1/86 87/1/87 95/2/95
f 92/1/92 84/1/84 85/1/85 93/2/93
f 90/1/90 82/1/82 83/1/83 91/2/91
f 112/1/112 104/1/104 97/1/97 105/2/105
f 98/1/98 90/1/90 91/1/91 99/2/99
f 103/1/103 95/1/95 96/1/96 104/2/104
f 101/1/101 93/1/93 94/1/94 102/2/102
f 99/1/99 91/1/91 92/1/92 100/2/100
f 97/1/97 89/1/89 90/1/90 98/2/98
f 104/1/104 96/1/96 89/1/89 97/2/97
f 102/1/102 94/1/94 95/1/95 103/2/103
f 110/1/110 102/1/102 103/1/103 111/2/111
f 108/1/108 100/1/100 101/1/101 109/2/109
f 106/1/106 98/1/98 99/1/99 107/2/107
f 111/1/111 103/1/103 104/1/104 112/2/112
f 109/1/109 101/1/101 102/1/102 110/2/110
f 107/1/107 99/1/99 100/1/100 108/2/108
f 105/1/105 97/1/97 98/1/98 106/2/106

usemtl material_13
f 117/1/117 109/1/109 110/1/110 118/2/118
f 127/1/127 119/1/119 120/1/120 128/2/128
f 115/1/115 107/1/107 108/1/108 116/2/116
f 113/1/113 105/1/105 106/1/106 114/2/114
f 120/1/120 112/1/112 105/1/105 113/2/113
f 118/1/118 110/1/110 111/1/111 119/2/119
f 116/1/116 108/1/108 109/1/109 117/2/117
f 114/1/114 106/1/106 107/1/107 115/2/115
f 119/1/119 111/1/111 112/1/112 120/2/120
f 132/1/132 124/1/124 125/1/125 133/2/133
f 125/1/125 117/1/117 118/1/118 126/2/126
f 123/1/123 115/1/115 116/1/116 124/2/124
f 121/1/121 113/1/113 114/1/114 122/2/122
f 128/1/128 120/1/120 113/1/113 121/2/121
f 126/1/126 118/1/118 119/1/119 127/2/127
f 124/1/124 116/1/116 117/1/117 125/2/125
f 122/1/122 114/1/114 115/1/115 123/2/123
f 144/1/144 136/1/136 129/1/129 137/2/137
f 130/1/130 122/1/122 123/1/123 131/2/131
f 135/1/135 127/1/127 128/1/128 136/2/136
f 133/1/133 125/1/125 126/1/126 134/2/134
f 131/1/131 123/1/123 124/1/124 132/2/132
f 129/1/129 121/1/121 122/1/122 130/2/130
f 136/1/136 128/1/128 121/1/121 129/2/129
f 134/1/134 126/1/126 127/1/127 135/4/135
vt 659887683600648241152.0000000 0.0000000
f 141/1/141 142/1/142 143/1/143 144/2/144 137/7/137 138/1/138 139/1/139 140/1/140
f 142/1/142 134/1/134 135/1/135 143/2/143
f 140/1/140 132/1/132 133/1/133 141/2/141
f 138/1/138 130/1/130 131/1/131 139/2/139
f 143/1/143 135/1/135 136/1/136 144/2/144
f 141/1/141 133/1/133 134/1/134 142/2/142
f 139/1/139 131/1/131 132/1/132 140/2/140
f 137/1/137 129/1/129 130/1/130 138/4/138

usemtl material_12
vt 4266873847808.0000000 0.0000000
f 151/1/151 150/1/150 149/1/149 148/2/148 147/8/147 146/1/146 145/1/145 152/1/152
f 167/1/167 159/1/159 160/1/160 168/2/168
f 158/1/158 150/1/150 151/1/151 159/2/159
f 156/1/156 148/1/148 149/1/149 157/2/157
f 154/1/154 146/1/146 147/1/147 155/2/155
f 159/1/159 151/1/151 152/1/152 160/2/160
f 157/1/157 149/1/149 150/1/150 158/2/158
f 155/1/155 147/1/147 148/1/148 156/2/156
f 153/1/153 145/1/145 146/1/146 154/2/154
f 160/1/160 152/1/152 145/1/145 153/2/153
f 172/1/172 164/1/164 165/1/165 173/2/173
f 165/1/165 157/1/157 158/1/158 166/2/166
f 163/1/163 155/1/155 156/1/156 164/2/164
f 161/1/161 153/1/153 154/1/154 162/2/162
f 168/1/168 160/1/160 153/1/153 161/2/161
f 166/1/166 158/1/158 159/1/159 167/2/167
f 164/1/164 156/1/156 157/1/157 165/2/165
f 162/1/162 154/1/154 155/1/155 163/2/163
f 184/1/184 176/1/176 169/1/169 177/2/177
f 170/1/170 162/1/162 163/1/163 171/2/171
f 175/1/175 167/1/167 168/1/168 176/2/176
f 173/1/173 165/1/165 166/1/166 174/2/174
f 171/1/171 163/1/163 164/1/164 172/2/172
f 169/1/169 161/1/161 162/1/162 170/2/170
f 176/1/176 168/1/168 161/1/161 169/2/169
f 174/1/174 166/1/166 167/1/167 175/2/175
f 182/1/182 174/1/174 175/1/175 183/2/183
f 180/1/180 172/1/172 173/1/173 181/2/181
f 178/1/178 170/1/170 171/1/171 179/2/179
f 183/1/183 175/1/175 176/1/176 184/2/184
f 181/1/181 173/1/173 174/1/174 182/2/182
f 179/1/179 171/1/171 172/1/172 180/2/180
f 177/1/177 169/1/169 170/1/170 178/2/178

usemtl material_13
f 189/1/189 181/1/181 182/1/182 190/2/190
f 199/1/199 191/1/191 192/1/192 200/2/200
f 187/1/187 179/1/179 180/1/180 188/2/188
f 185/1/185 177/1/177 178/1/178 186/2/186
f 192/1/192 184/1/184 177/1/177 185/2/185
f 190/1/190 182/1/182 183/1/183 191/2/191
f 188/1/188 180/1/180 181/1/181 189/2/189
f 186/1/186 178/1/178 179/1/179 187/2/187
f 191/1/191 183/1/183 184/1/184 192/2/192
f 204/1/204 196/1/196 197/1/197 205/2/205
f 197/1/197 189/1/189 190/1/190 198/2/198
f 195/1/195 187/1/187 188/1/188 196/2/196
f 193/1/193 185/1/185 186/1/186 194/2/194
f 200/1/200 192/1/192 185/1/185 193/2/193
f 198/1/198 190/1/190 191/1/191 199/2/199
f 196/1/196 188/1/188 189/1/189 197/2/197
f 194/1/194 186/1/186 187/1/187 195/2/195
f 216/1/216 208/1/208 201/1/201 209/2/209
f 202/1/202 194/1/194 195/1/195 203/2/203
f 207/1/207 199/1/199 200/1/200 208/2/208
f 205/1/205 197/1/197 198/1/198 206/2/206
f 203/1/203 195/1/195 196/1/196 204/2/204
f 201/1/201 193/1/193 194/1/194 202/2/202
f 208/1/208 200/1/200 193/1/193 201/2/201
f 206/1/206 198/1/198 199/1/199 207/4/207
vt 0.0000000 0.0000000
f 213/1/213 214/1/214 215/1/215 216/2/216 209/9/209 210/1/210 211/1/211 212/1/212
f 214/1/214 206/1/206 207/1/207 215/2/215
f 212/1/212 204/1/204 205/1/205 213/2/213
f 210/1/210 202/1/202 203/1/203 211/2/211
f 215/1/215 207/1/207 208/1/208 216/2/216
f 213/1/213 205/1/205 206/1/206 214/2/214
f 211/1/211 203/1/203 204/1/204 212/2/212
f 209/1/209 201/1/201 202/1/202 210/1/210
# 198 faces, 9 coords texture

# End of File
