####
#
# OBJ File Generated by Meshlab
#
####
# Object grass1.obj
#
# Vertices: 85
# Faces: 85
#
####
mtllib ./grass1.obj.mtl

vn -0.6309040 -0.5186731 0.5770081
v -3.4358227 -0.0214200 3.6065779
vn -0.7055304 0.2092915 0.6770702
v -3.4063261 0.2232510 3.6051416
vn -0.6310099 -0.5189071 -0.5766818
v -3.4358227 -0.0214200 3.5683370
vn -0.7051696 0.2099862 -0.6772308
v -3.4063261 0.2232510 3.5697691
vn 0.5262007 -0.6211314 0.5807828
v -3.3853977 -0.0250740 3.6065779
vn 0.6584815 -0.1458258 0.7383339
v -3.3636584 0.2022048 3.6049864
vn 0.5262619 -0.6213971 -0.5804431
v -3.3853977 -0.0250740 3.5683370
vn 0.6588352 -0.1448415 -0.7382122
v -3.3636584 0.2022048 3.5699284
vn -0.5897108 0.4566314 0.6661299
v -3.3475010 0.3500994 3.6023486
vn -0.5886878 0.4567903 -0.6669253
v -3.3475010 0.3500994 3.5725625
vn 0.5591854 -0.3406480 -0.7558246
v -3.3163285 0.3245844 3.5727427
vn 0.5593526 -0.3417887 0.7551855
v -3.3163285 0.3245844 3.6021721
vn -0.2974723 0.6931669 0.6565287
v -3.2499938 0.4364976 3.5988417
vn -0.2983662 0.6915950 -0.6577796
v -3.2499938 0.4364976 3.5760691
vn 0.4329085 -0.4964615 -0.7524070
v -3.2237983 0.4158924 3.5768671
vn 0.4344387 -0.4958651 0.7519181
v -3.2237983 0.4158924 3.5980434
vn 0.9519320 0.3063094 0.0000014
v -3.1432297 0.4546710 3.5874555
vn -0.6038927 -0.6948574 -0.3904957
v -3.4819849 -0.0122304 3.5416207
vn -0.6882338 -0.2168664 -0.6923172
v -3.4590487 0.2062116 3.4572806
vn 0.5539917 -0.7753453 -0.3032046
v -3.4439414 -0.0148680 3.5444894
vn 0.7464716 -0.3181119 -0.5844527
v -3.4238610 0.2037714 3.4599307
vn -0.6522587 -0.2964254 0.6976322
v -3.4844673 0.0039354 3.5894587
vn -0.7154549 0.3701211 0.5925662
v -3.4620979 0.2115876 3.5047572
vn 0.4936844 -0.3760229 0.7841445
v -3.4464276 0.0012978 3.5923271
vn 0.6624811 0.2743226 0.6970409
v -3.4272213 0.2091726 3.5073822
vn -0.6936873 -0.2775263 -0.6646633
v -3.4455247 0.3075450 3.4082289
vn 0.7395256 -0.3753679 -0.5587494
v -3.4158895 0.3054912 3.4104631
vn 0.6682402 0.3883810 0.6345197
v -3.4158349 0.3366846 3.4360032
vn -0.6961688 0.4817556 0.5322223
v -3.4451089 0.3387132 3.4337981
vn -0.7199678 -0.3561240 -0.5956696
v -3.4300983 0.4081896 3.3428891
vn 0.7454531 -0.4577679 -0.4845081
v -3.4074476 0.4066188 3.3445990
vn 0.6950455 0.5583694 0.4529189
v -3.4059732 0.4399206 3.3450525
vn -0.6714838 0.6532204 0.3498753
v -3.4270408 0.4413822 3.3434649
vn 0.1009068 0.5659301 -0.8182548
v -3.4077413 0.4807236 3.2648113
vn -0.5770841 -0.5767236 0.5782421
v -3.5431328 -0.0114240 3.5843892
vn -0.6615986 -0.0714384 0.7464474
v -3.5398526 0.1158066 3.5829570
vn -0.5771664 -0.5769007 -0.5779832
v -3.5431328 -0.0114240 3.5461483
vn -0.6622094 -0.0730254 -0.7457520
v -3.5398526 0.1158066 3.5475848
vn 0.6038474 -0.5474709 0.5793478
v -3.4873564 -0.0097902 3.5843892
vn 0.7197018 0.1787941 0.6708666
v -3.4956601 0.1194144 3.5827978
vn 0.6039386 -0.5476477 -0.5790856
v -3.4873564 -0.0097902 3.5461483
vn 0.7203537 0.1781837 -0.6703290
v -3.4956601 0.1194144 3.5477402
vn -0.4668757 -0.3604163 0.8075439
v -3.5728686 0.2286102 3.5801642
vn -0.4719535 -0.3580570 -0.8056395
v -3.5728686 0.2286102 3.5503776
vn 0.5324394 0.5646880 -0.6305837
v -3.5563376 0.2641884 3.5505583
vn 0.5330032 0.5637746 0.6309246
v -3.5563376 0.2641884 3.5799835
vn -0.2047622 -0.6109146 0.7647586
v -3.6853030 0.2849238 3.5766571
vn -0.2042064 -0.6107654 -0.7650264
v -3.6853030 0.2849238 3.5538847
vn -0.0144249 0.7624696 -0.6468633
v -3.6934001 0.3172554 3.5546827
vn -0.0145674 0.7625279 0.6467913
v -3.6934001 0.3172554 3.5758591
vn -0.9905084 -0.1374522 0.0000000
v -3.7863462 0.2878344 3.5652707
vn 0.8089828 -0.5662181 0.1579369
v -3.4407914 -0.0082782 3.6154943
vn 0.9860380 -0.0349271 0.1628167
v -3.4422696 0.2270352 3.6158726
vn -0.1522219 -0.5663734 0.8099690
v -3.4724386 -0.0082782 3.6369607
vn -0.2129597 -0.0351070 0.9764301
v -3.4715393 0.2270352 3.6357300
vn 0.1564640 -0.5817546 -0.7981734
v -3.4691582 -0.0096768 3.5736711
vn 0.1655287 0.0700914 -0.9837111
v -3.4692171 0.2239062 3.5764220
vn -0.7993068 -0.5819119 -0.1499571
v -3.5008051 -0.0096768 3.5951369
vn -0.9751459 0.0700724 -0.2101915
v -3.4982307 0.2239062 3.5961032
vn 0.9797248 -0.1485388 0.1344453
v -3.4312487 0.4122258 3.6370909
vn -0.2371943 -0.1478451 0.9601462
v -3.4559031 0.4122258 3.6538112
vn -0.9508448 0.2378503 -0.1982964
v -3.4767432 0.4273080 3.6227648
vn 0.1673861 0.2373412 -0.9568966
v -3.4523873 0.4273080 3.6062460
vn 0.9616097 -0.2411594 0.1309543
v -3.4046123 0.5534970 3.6826148
vn -0.2347320 -0.2415562 0.9415687
v -3.4234579 0.5534970 3.6953995
vn -0.8914015 0.4470441 -0.0745313
v -3.4297960 0.5844048 3.6846349
vn 0.2603208 0.4472423 -0.8556912
v -3.4122689 0.5844048 3.6727448
vn 0.3144189 0.8284272 0.4635183
v -3.3874931 0.6509286 3.7281344
vn 0.2227116 -0.6112655 0.7594432
v -3.4871509 -0.0188034 3.6522825
vn 0.4680914 -0.2463057 0.8486601
v -3.5052571 0.1350510 3.6693470
vn -0.7535426 -0.6478818 0.1114570
v -3.5186636 -0.0199878 3.6307030
vn -0.9216200 -0.3726327 -0.1084510
v -3.5325572 0.1315608 3.6471710
vn 0.8527941 -0.4696441 -0.2284222
v -3.4610436 -0.0158004 3.6114919
vn 0.8146813 0.5660355 -0.1260884
v -3.4894314 0.1545936 3.6430757
vn -0.1041626 -0.5060403 -0.8561971
v -3.4927704 -0.0171822 3.5901685
vn -0.1756530 0.4822774 -0.8582276
v -3.5169036 0.1513554 3.6215847
vn 0.6499592 -0.5326418 0.5420753
v -3.5572867 0.1646736 3.7271097
vn -0.6112701 -0.6978436 -0.3733139
v -3.5802946 0.1602762 3.7084281
vn -0.6052485 0.7017627 -0.3757704
v -3.5916259 0.1979292 3.7189362
vn 0.4026172 0.8398225 0.3641395
v -3.5682025 0.2016546 3.7365596
vn 0.8518925 -0.4490939 0.2694326
v -3.6032684 0.1421700 3.7915082
vn -0.3669335 -0.6773164 -0.6376538
v -3.6213324 0.1398096 3.7778080
vn -0.9101741 0.4102199 0.0574694
v -3.6419926 0.1486800 3.8041754
vn 0.1147470 0.5439295 0.8312484
v -3.6251502 0.1509060 3.8168676
vn -0.2447308 -0.8601936 0.4474081
v -3.6487377 0.0567462 3.8443987
# 85 vertices, 0 vertices normals


usemtl material_10
vt 0.0000000 0.0000000
vt 0.0000000 0.0000000
f 4/1/4 3/1/3 1/1/1 2/2/2
f 8/1/8 7/1/7 3/1/3 4/2/4
f 6/1/6 5/1/5 7/1/7 8/2/8
f 2/1/2 1/1/1 5/1/5 6/2/6
f 5/1/5 1/1/1 3/1/3 7/2/7
f 11/1/11 12/1/12 6/1/6 8/2/8
f 16/1/16 13/1/13 9/1/9 12/2/12
f 9/1/9 10/1/10 4/1/4 2/2/2
f 12/1/12 9/1/9 2/1/2 6/2/6
vt 0.0000000 0.0000000
f 10/1/10 11/1/11 8/1/8 4/3/4
f 16/1/16 15/1/15 17/1/17
f 14/1/14 15/1/15 11/1/11 10/2/10
f 15/1/15 16/1/16 12/1/12 11/2/11
f 13/1/13 14/1/14 10/1/10 9/3/9
f 14/1/14 13/1/13 17/1/17
f 13/1/13 16/1/16 17/1/17
f 15/1/15 14/1/14 17/1/17
f 21/1/21 20/1/20 18/1/18 19/2/19
f 25/1/25 24/1/24 20/1/20 21/2/21
f 23/1/23 22/1/22 24/1/24 25/2/25
f 19/1/19 18/1/18 22/1/22 23/2/23
f 22/1/22 18/1/18 20/1/20 24/2/24
f 28/1/28 29/1/29 23/1/23 25/2/25
f 33/1/33 30/1/30 26/1/26 29/2/29
f 26/1/26 27/1/27 21/1/21 19/2/19
f 29/1/29 26/1/26 19/1/19 23/2/23
f 27/1/27 28/1/28 25/1/25 21/3/21
f 33/1/33 32/1/32 34/1/34
f 31/1/31 32/1/32 28/1/28 27/2/27
f 32/1/32 33/1/33 29/1/29 28/2/28
f 30/1/30 31/1/31 27/1/27 26/3/26
f 31/1/31 30/1/30 34/1/34
f 30/1/30 33/1/33 34/1/34
f 32/1/32 31/1/31 34/1/34
f 38/1/38 37/1/37 35/1/35 36/2/36
f 42/1/42 41/1/41 37/1/37 38/2/38
f 40/1/40 39/1/39 41/1/41 42/2/42
f 36/1/36 35/1/35 39/1/39 40/2/40
f 39/1/39 35/1/35 37/1/37 41/2/41
f 45/1/45 46/1/46 40/1/40 42/2/42
f 50/1/50 47/1/47 43/1/43 46/2/46
f 43/1/43 44/1/44 38/1/38 36/2/36
f 46/1/46 43/1/43 36/1/36 40/2/40
f 44/1/44 45/1/45 42/1/42 38/3/38
f 50/1/50 49/1/49 51/1/51
f 48/1/48 49/1/49 45/1/45 44/2/44
f 49/1/49 50/1/50 46/1/46 45/2/45
f 47/1/47 48/1/48 44/1/44 43/3/43
f 48/1/48 47/1/47 51/1/51
f 47/1/47 50/1/50 51/1/51
f 49/1/49 48/1/48 51/1/51
f 55/1/55 54/1/54 52/1/52 53/2/53
f 59/1/59 58/1/58 54/1/54 55/2/55
f 57/1/57 56/1/56 58/1/58 59/2/59
f 53/1/53 52/1/52 56/1/56 57/2/57
f 56/1/56 52/1/52 54/1/54 58/2/58
f 62/1/62 63/1/63 57/1/57 59/2/59
f 67/1/67 64/1/64 60/1/60 63/2/63
f 60/1/60 61/1/61 55/1/55 53/2/53
f 63/1/63 60/1/60 53/1/53 57/2/57
f 61/1/61 62/1/62 59/1/59 55/3/55
f 67/1/67 66/1/66 68/1/68
f 65/1/65 66/1/66 62/1/62 61/2/61
f 66/1/66 67/1/67 63/1/63 62/2/62
f 64/1/64 65/1/65 61/1/61 60/3/60
f 65/1/65 64/1/64 68/1/68
f 64/1/64 67/1/67 68/1/68
f 66/1/66 65/1/65 68/1/68
f 72/1/72 71/1/71 69/1/69 70/2/70
f 76/1/76 75/1/75 71/1/71 72/2/72
f 74/1/74 73/1/73 75/1/75 76/2/76
f 70/1/70 69/1/69 73/1/73 74/2/74
f 73/1/73 69/1/69 71/1/71 75/2/75
f 79/1/79 80/1/80 74/1/74 76/2/76
f 84/1/84 81/1/81 77/1/77 80/2/80
f 77/1/77 78/1/78 72/1/72 70/2/70
f 80/1/80 77/1/77 70/1/70 74/2/74
f 78/1/78 79/1/79 76/1/76 72/3/72
f 84/1/84 83/1/83 85/1/85
f 82/1/82 83/1/83 79/1/79 78/2/78
f 83/1/83 84/1/84 80/1/80 79/2/79
f 81/1/81 82/1/82 78/1/78 77/3/77
f 82/1/82 81/1/81 85/1/85
f 81/1/81 84/1/84 85/1/85
f 83/1/83 82/1/82 85/1/85
# 85 faces, 3 coords texture

# End of File
