####
#
# OBJ File Generated by Meshlab
#
####
# Object grass2.obj
#
# Vertices: 170
# Faces: 170
#
####
mtllib ./grass2.obj.mtl

vn -0.7733670 -0.5321431 -0.3445681
v -6.4773202 -0.5666500 8.3455906
vn -0.4615840 0.3135241 -0.8298451
v -6.3929996 0.0098100 8.4155197
vn 0.3234818 -0.3585663 -0.8756653
v -6.3872099 -0.5786800 8.3405800
vn 0.8838694 0.0145331 -0.4675079
v -6.3096499 -0.0013200 8.4108906
vn -0.4219432 -0.4267755 0.7998916
v -6.4719300 -0.5761500 8.4654703
vn -0.8728293 0.0238129 0.4874444
v -6.3937302 -0.0406500 8.5169401
vn 0.5820011 -0.7744454 0.2480103
v -6.3818197 -0.5881800 8.4604597
vn 0.4657871 -0.2638811 0.8446355
v -6.3111200 -0.0516800 8.5123501
vn -0.6741244 0.5623625 -0.4788579
v -6.3388100 0.3072701 8.5550003
vn 0.7307335 0.2966762 -0.6148267
v -6.2686200 0.2979000 8.5510998
vn 0.6808290 -0.5072422 0.5283723
v -6.2730403 0.2372100 8.6252298
vn -0.7113154 -0.2367020 0.6618177
v -6.3423800 0.2464700 8.6290903
vn -0.8551606 0.4688267 -0.2211381
v -6.2906599 0.5083799 8.7863598
vn 0.5054365 0.6176061 -0.6025752
v -6.2370005 0.5012200 8.7833796
vn 0.8586553 -0.4239268 0.2880923
v -6.2419801 0.4523800 8.8457603
vn -0.4925671 -0.5673150 0.6599479
v -6.2918801 0.4590500 8.8485298
vn 0.1377127 0.7745452 0.6173451
v -6.2442498 0.5458400 9.0386801
vn 0.0172988 -0.7043371 -0.7096549
v -6.3273501 -0.5646000 8.2273502
vn 0.7801059 -0.4297812 -0.4546680
v -6.0567803 -0.0760200 8.2708302
vn 0.5157067 -0.7737497 0.3679104
v -6.3299999 -0.5705800 8.3181601
vn 0.3604982 -0.2791365 0.8900135
v -6.0592299 -0.0815500 8.3548298
vn -0.8949199 0.0747146 -0.4399275
v -6.4352999 -0.5113600 8.2277002
vn -0.3415069 0.3169112 -0.8848392
v -6.1673498 -0.0483400 8.2698002
vn -0.6122071 -0.4767701 0.6307875
v -6.4379501 -0.5173300 8.3185101
vn -0.7553717 0.4694902 0.4571570
v -6.1697903 -0.0538200 8.3530502
vn 0.5840459 -0.3786558 -0.7179904
v -5.9074998 0.1474500 8.2965603
vn 0.5622905 -0.4474086 0.6954530
v -5.9095697 0.1428000 8.3673000
vn -0.5084047 0.4654341 0.7244970
v -5.9599204 0.2244500 8.3707800
vn -0.4992703 0.5232843 -0.6905814
v -5.9578800 0.2290500 8.3008900
vn 0.3847270 -0.2178547 -0.8969529
v -5.7198200 0.3641500 8.3246794
vn 0.6711393 -0.6037260 0.4302174
v -5.7213998 0.3605900 8.3787603
vn -0.2980110 0.2984237 0.9067154
v -5.7117801 0.4393000 8.3823195
vn -0.5598170 0.7135664 -0.4212219
v -5.7103100 0.4426100 8.3320198
vn 0.9922811 -0.1222269 0.0209483
v -5.5100603 0.5103800 8.3676100
vn -0.7766522 -0.5638012 -0.2809623
v -6.4358096 -0.5481800 8.0875702
vn -0.5092678 -0.0410836 -0.8596269
v -6.3919001 -0.2484200 8.0951796
vn 0.3161418 -0.4359879 -0.8425966
v -6.3457003 -0.5602100 8.0825596
vn 0.8571087 -0.1580853 -0.4902793
v -6.3085504 -0.2595500 8.0905495
vn -0.4108371 -0.3038255 0.8595946
v -6.4280601 -0.5452900 8.2201700
vn -0.8487735 0.2293372 0.4764326
v -6.3846598 -0.2407300 8.2002201
vn 0.6022627 -0.7315019 0.3196634
v -6.3379502 -0.5573300 8.2151699
vn 0.5224423 0.1428708 0.8406200
v -6.3020496 -0.2517600 8.1956396
vn -0.8185379 -0.3888075 -0.4228763
v -6.3540602 0.0174800 8.0163298
vn 0.6463646 -0.4312467 -0.6294752
v -6.2838602 0.0081100 8.0124302
vn 0.8175421 0.4570463 0.3503336
v -6.2709303 0.0918500 8.0517502
vn -0.6401653 0.5195430 0.5659183
v -6.3402700 0.1011100 8.0556002
vn -0.9493271 -0.2639039 -0.1706833
v -6.3426299 0.1512300 7.7485700
vn 0.3204021 -0.8423114 -0.4334213
v -6.2889700 0.1440700 7.7455902
vn 0.9468443 0.3095660 0.0874913
v -6.2817101 0.2207600 7.7264500
vn -0.3183579 0.8881862 0.3313211
v -6.3316102 0.2274200 7.7292199
vn -0.0849636 -0.2337010 -0.9685892
v -6.3279905 0.1562700 7.5068598
vn 0.0364246 -0.6705542 0.7409658
v -6.4948397 -0.5327500 8.3349400
vn -0.4410383 0.0071440 0.8974599
v -6.4217501 0.0227400 8.3314800
vn -0.9443427 -0.2784075 0.1752323
v -6.5495200 -0.5254400 8.2625198
vn -0.8907894 0.1002896 -0.4432114
v -6.4723401 0.0295000 8.2644901
vn 0.8389059 -0.5184177 -0.1657708
v -6.4003997 -0.5487100 8.2620296
vn 0.8946922 -0.0704536 0.4410920
v -6.3332801 0.0034100 8.2622604
vn -0.2409561 -0.6398199 -0.7297744
v -6.4550900 -0.5414100 8.1896000
vn 0.4440377 0.0245880 -0.8956707
v -6.3834100 0.0101100 8.1958599
vn -0.1326013 -0.1667912 0.9770351
v -6.4119601 0.4662800 8.3604507
vn -0.9893903 0.0031216 -0.1452488
v -6.4545603 0.4719700 8.3040400
vn 0.1267534 0.2461066 -0.9609189
v -6.3793497 0.4981501 8.2504301
vn 0.9858123 0.0678952 0.1535070
v -6.3372703 0.4925300 8.3061600
vn 0.1844114 -0.1615540 0.9694806
v -6.4712501 0.8135400 8.4297400
vn -0.9731179 -0.1743351 0.1504952
v -6.5038199 0.8178899 8.3866100
vn -0.1929447 0.2486261 -0.9491878
v -6.4695401 0.8875601 8.3701401
vn 0.9509817 0.2829870 -0.1247088
v -6.4392500 0.8835201 8.4102497
vn -0.6817610 0.4683008 0.5620466
v -6.5455904 1.0575100 8.4763994
vn -0.6655012 -0.6034300 0.4392954
v -6.5908499 -0.5452100 8.2295399
vn -0.9184326 -0.3840666 0.0947334
v -6.5849299 -0.1764300 8.1887398
vn -0.5064979 -0.4496025 -0.7357428
v -6.5444703 -0.5542500 8.1518002
vn 0.1581178 -0.3219024 -0.9334761
v -6.5373096 -0.1911700 8.1209297
vn 0.4775841 -0.2743513 0.8346525
v -6.4903998 -0.5514000 8.2862701
vn -0.1712708 0.3635667 0.9156886
v -6.5148096 -0.1388500 8.2229195
vn 0.5732096 -0.7191780 -0.3927009
v -6.4447098 -0.5608300 8.2080498
vn 0.8961859 0.4297935 -0.1101291
v -6.4687500 -0.1527700 8.1548004
vn -0.4971393 -0.5393094 0.6797044
v -6.7184501 -0.0874400 8.0725994
vn 0.1340851 -0.7852336 -0.6045076
v -6.6788101 -0.1033000 8.0154600
vn 0.3860180 0.5324405 -0.7533242
v -6.6931701 -0.0109300 7.9898901
vn -0.2220594 0.7866607 0.5760682
v -6.7304802 0.0030100 8.0478802
vn -0.4714992 -0.2744488 0.8380731
v -6.8832598 -0.1194800 7.9717202
vn 0.2410698 -0.9576921 -0.1571981
v -6.8540602 -0.1290400 7.9269800
vn 0.3349464 0.2299667 -0.9137430
v -6.9160800 -0.0994600 7.8813200
vn -0.4324123 0.8993254 0.0650647
v -6.9431105 -0.0905000 7.9230204
vn -0.3942252 -0.9170554 -0.0599657
v -7.0407200 -0.3036500 7.8705502
vn 0.7928476 -0.5093676 -0.3345705
v -6.6526699 -0.5300700 8.3297300
vn 0.9045045 0.2432101 0.3503147
v -6.7476997 0.0423800 8.4168100
vn 0.3326644 -0.4879543 0.8069913
v -6.7168498 -0.5495500 8.3913097
vn -0.3476560 -0.1116173 0.9309549
v -6.8070602 0.0243600 8.4737701
vn -0.2284294 -0.2907686 -0.9291252
v -6.7367296 -0.5250600 8.2437096
vn 0.3270700 0.1511526 -0.9328334
v -6.8159299 0.0050500 8.3344498
vn -0.6185435 -0.7804263 0.0913173
v -6.8009000 -0.5445400 8.3052902
vn -0.9162399 -0.1925962 -0.3512994
v -6.8747597 -0.0128000 8.3908997
vn 0.8356057 0.5491777 -0.0129184
v -6.8735199 0.3497200 8.3927202
vn -0.1282938 0.1611238 0.9785601
v -6.9235096 0.3345500 8.4406900
vn -0.8721893 -0.4890410 -0.0111678
v -6.9710798 0.2840100 8.3745003
vn 0.0840048 -0.0975053 -0.9916834
v -6.9217005 0.2990000 8.3271103
vn 0.7967193 0.5024430 -0.3358415
v -7.0584102 0.5735700 8.2831898
vn 0.0395791 0.4975029 0.8665590
v -7.0966296 0.5619700 8.3198605
vn -0.8427774 -0.4500201 0.2953104
v -7.1356702 0.5217600 8.2636499
vn -0.0861826 -0.4416907 -0.8930184
v -7.1001296 0.5325400 8.2295504
vn -0.4942168 0.8320184 -0.2519827
v -7.2600503 0.6382400 8.1335802
vn 0.4419001 -0.7858664 0.4325949
v -6.6857600 -0.5542300 8.5162697
vn -0.2899393 -0.5415998 0.7890532
v -6.9042897 -0.0863700 8.7334404
vn -0.6488938 -0.7597932 -0.0406341
v -6.7443800 -0.5487200 8.4468298
vn -0.8683084 -0.1939566 -0.4565318
v -6.9585104 -0.0812600 8.6691999
vn 0.9621778 0.0885893 -0.2576160
v -6.6041498 -0.4931800 8.4522305
vn 0.8516381 0.2305020 0.4707243
v -6.8204403 -0.0505700 8.6650095
vn 0.0248019 -0.3464932 -0.9377246
v -6.6627698 -0.4876600 8.3827801
vn 0.2707756 0.5792777 -0.7688419
v -6.8741798 -0.0455100 8.6013403
vn 0.0329150 -0.5084195 0.8604802
v -7.0271597 0.1263800 8.8453503
vn -0.8935001 -0.4000637 -0.2039768
v -7.0728302 0.1306800 8.7912598
vn -0.0914927 0.5892514 -0.8027527
v -7.0355501 0.2157800 8.7671099
vn 0.8451422 0.4708870 0.2529824
v -6.9904299 0.2115400 8.8205500
vn 0.3047168 -0.3560678 0.8833818
v -7.1804399 0.3297600 8.9799500
vn -0.8019948 -0.5959312 0.0408705
v -7.2153502 0.3330400 8.9385996
vn -0.3738770 0.4303066 -0.8216157
v -7.2229300 0.4106100 8.9536400
vn 0.7157305 0.6971128 0.0419955
v -7.1904602 0.4075500 8.9920998
vn -0.7570255 -0.1949056 0.6236379
v -7.3618002 0.4635500 9.1081400
vn 0.7521629 -0.5325983 -0.3880596
v -6.5114098 -0.5468900 8.5497303
vn 0.9510163 -0.1076263 0.2898009
v -6.5417299 -0.2527800 8.6162195
vn 0.3141597 -0.5598878 0.7667003
v -6.5755897 -0.5663700 8.6113100
vn -0.3168150 -0.2831507 0.9052370
v -6.6010900 -0.2708000 8.6731701
vn -0.2734451 -0.1626432 -0.9480374
v -6.6053896 -0.5282400 8.4576902
vn 0.3216338 0.3512689 -0.8792962
v -6.6168599 -0.2327400 8.5448093
vn -0.6802726 -0.7306423 0.0582341
v -6.6695600 -0.5477200 8.5192699
vn -0.9456738 0.2049206 -0.2524058
v -6.6757002 -0.2506000 8.6012602
vn 0.8822619 -0.3737735 -0.2861949
v -6.5108199 -0.0023800 8.7374601
vn -0.0738081 -0.5543554 0.8290009
v -6.5608101 -0.0175500 8.7854300
vn -0.8315241 0.4323651 0.3487521
v -6.5945396 0.0691500 8.7770700
vn 0.1137335 0.6333383 -0.7654719
v -6.5451503 0.0841400 8.7296801
vn 0.8150429 -0.2089641 -0.5404065
v -6.3377500 0.0959600 8.9612799
vn 0.0285263 -0.9116431 0.4099917
v -6.3759704 0.0843600 8.9979496
vn -0.7566873 0.2439767 0.6065474
v -6.3667297 0.1573099 9.0278502
vn 0.0390998 0.9442221 -0.3269799
v -6.3311901 0.1680900 8.9937401
vn 0.7023360 -0.3442980 0.6230434
v -6.1876497 0.0699300 9.1495695
vn -0.5371786 -0.5746062 -0.6174681
v -6.6316700 -0.4964900 8.3308401
vn -0.2682720 0.1520450 -0.9512689
v -6.6699800 0.0470000 8.4614906
vn 0.5807095 -0.1809010 -0.7937577
v -6.5424900 -0.4940000 8.3490095
vn 0.9619098 0.1131759 -0.2488389
v -6.5874901 0.0493100 8.4782896
vn -0.5283191 -0.5981013 0.6026225
v -6.6539598 -0.5285900 8.4446898
vn -0.9626638 -0.0842277 0.2572626
v -6.6903696 0.0124900 8.5682001
vn 0.6495028 -0.7046252 0.2857435
v -6.5647798 -0.5261000 8.4628601
vn 0.2656584 -0.1206594 0.9564868
v -6.6086102 0.0147800 8.5848598
vn -0.5556539 -0.0340149 -0.8307176
v -6.6854901 0.4886300 8.5103302
vn 0.8346765 0.0614931 -0.5472968
v -6.6160202 0.4905699 8.5244799
vn 0.5512760 0.1149279 0.8263695
v -6.6357703 0.5040400 8.6174498
vn -0.8357354 0.0100731 0.5490400
v -6.7044001 0.5021200 8.6034698
vn -0.7869371 -0.0542172 -0.6146467
v -6.6787100 0.8453200 8.4699602
vn 0.6212272 -0.0787911 -0.7796594
v -6.6255999 0.8468100 8.4807701
vn 0.7819740 0.1435385 0.6065586
v -6.6384602 0.9110500 8.5255804
vn -0.6192034 0.1911694 0.7616045
v -6.6878500 0.9096700 8.5155201
vn 0.1459838 0.5854242 -0.7974756
v -6.6482201 1.0981901 8.4214602
vn 0.6893988 -0.6845666 -0.2368499
v -6.1984701 -0.5777300 8.4237804
vn 0.9076698 -0.4096712 0.0911314
v -6.1949902 -0.2076900 8.3962498
vn 0.3974420 -0.3146335 0.8620010
v -6.2541003 -0.5715600 8.4955006
vn -0.2806250 -0.1420363 0.9492499
v -6.2508898 -0.2089300 8.4591503
vn -0.3848158 -0.4155283 -0.8241681
v -6.2915998 -0.5926400 8.3570700
vn 0.2931596 0.1860468 -0.9377868
v -6.2590303 -0.1759200 8.3473902
vn -0.6432266 -0.6253354 0.4418317
v -6.3466301 -0.5867800 8.4294100
vn -0.8856741 0.4570789 -0.0816104
v -6.3133903 -0.1763300 8.4106398
vn 0.5534753 -0.6631292 -0.5039095
v -6.0729403 -0.1010100 8.5100803
vn -0.2354462 -0.6582955 0.7149910
v -6.1197000 -0.1054400 8.5637703
vn -0.4522883 0.6681371 0.5907860
v -6.1049404 -0.0101900 8.5738096
vn 0.3193755 0.6635440 -0.6765417
v -6.0604696 -0.0077600 8.5193501
vn 0.5571787 -0.4315346 -0.7094574
v -5.9226999 -0.1165900 8.6347904
vn -0.2949005 -0.9083846 0.2964308
v -5.9573798 -0.1172800 8.6765299
vn -0.4324107 0.3995764 0.8083067
v -5.9001498 -0.0808000 8.7234497
vn 0.4714794 0.8649002 -0.1722057
v -5.8680201 -0.0801100 8.6845102
vn 0.3485318 -0.8965730 0.2732811
v -5.7856603 -0.2815000 8.7863398
# 170 vertices, 0 vertices normals


usemtl material_10
vt 0.0000000 0.0000000
vt 0.0000000 0.0000000
f 1/1/1 2/1/2 4/1/4 3/2/3
f 3/1/3 4/1/4 8/1/8 7/2/7
f 7/1/7 8/1/8 6/1/6 5/2/5
f 5/1/5 6/1/6 2/1/2 1/2/1
f 3/1/3 7/1/7 5/1/5 1/2/1
f 6/1/6 8/1/8 11/1/11 12/2/12
f 9/1/9 12/1/12 16/1/16 13/2/13
f 4/1/4 2/1/2 9/1/9 10/2/10
f 2/1/2 6/1/6 12/1/12 9/2/9
vt 0.0000000 0.0000000
f 8/1/8 4/1/4 10/1/10 11/3/11
f 16/1/16 15/1/15 17/1/17
f 11/1/11 10/1/10 14/1/14 15/2/15
f 12/1/12 11/1/11 15/1/15 16/2/16
f 10/1/10 9/1/9 13/1/13 14/3/14
f 14/1/14 13/1/13 17/1/17
f 13/1/13 16/1/16 17/1/17
f 15/1/15 14/1/14 17/1/17
f 18/1/18 19/1/19 21/1/21 20/2/20
f 20/1/20 21/1/21 25/1/25 24/2/24
f 24/1/24 25/1/25 23/1/23 22/2/22
f 22/1/22 23/1/23 19/1/19 18/2/18
f 20/1/20 24/1/24 22/1/22 18/2/18
f 23/1/23 25/1/25 28/1/28 29/2/29
f 26/1/26 29/1/29 33/1/33 30/2/30
f 21/1/21 19/1/19 26/1/26 27/2/27
f 19/1/19 23/1/23 29/1/29 26/2/26
f 25/1/25 21/1/21 27/1/27 28/3/28
f 33/1/33 32/1/32 34/1/34
f 28/1/28 27/1/27 31/1/31 32/2/32
f 29/1/29 28/1/28 32/1/32 33/2/33
f 27/1/27 26/1/26 30/1/30 31/3/31
f 31/1/31 30/1/30 34/1/34
f 30/1/30 33/1/33 34/1/34
f 32/1/32 31/1/31 34/1/34
f 35/1/35 36/1/36 38/1/38 37/2/37
f 37/1/37 38/1/38 42/1/42 41/2/41
f 41/1/41 42/1/42 40/1/40 39/2/39
f 39/1/39 40/1/40 36/1/36 35/2/35
f 37/1/37 41/1/41 39/1/39 35/2/35
f 40/1/40 42/1/42 45/1/45 46/2/46
f 43/1/43 46/1/46 50/1/50 47/2/47
f 38/1/38 36/1/36 43/1/43 44/2/44
f 36/1/36 40/1/40 46/1/46 43/2/43
f 42/1/42 38/1/38 44/1/44 45/3/45
f 50/1/50 49/1/49 51/1/51
f 45/1/45 44/1/44 48/1/48 49/2/49
f 46/1/46 45/1/45 49/1/49 50/2/50
f 44/1/44 43/1/43 47/1/47 48/3/48
f 48/1/48 47/1/47 51/1/51
f 47/1/47 50/1/50 51/1/51
f 49/1/49 48/1/48 51/1/51
f 52/1/52 53/1/53 55/1/55 54/2/54
f 54/1/54 55/1/55 59/1/59 58/2/58
f 58/1/58 59/1/59 57/1/57 56/2/56
f 56/1/56 57/1/57 53/1/53 52/2/52
f 54/1/54 58/1/58 56/1/56 52/2/52
f 57/1/57 59/1/59 62/1/62 63/2/63
f 60/1/60 63/1/63 67/1/67 64/2/64
f 55/1/55 53/1/53 60/1/60 61/2/61
f 53/1/53 57/1/57 63/1/63 60/2/60
f 59/1/59 55/1/55 61/1/61 62/3/62
f 67/1/67 66/1/66 68/1/68
f 62/1/62 61/1/61 65/1/65 66/2/66
f 63/1/63 62/1/62 66/1/66 67/2/67
f 61/1/61 60/1/60 64/1/64 65/3/65
f 65/1/65 64/1/64 68/1/68
f 64/1/64 67/1/67 68/1/68
f 66/1/66 65/1/65 68/1/68
f 69/1/69 70/1/70 72/1/72 71/2/71
f 71/1/71 72/1/72 76/1/76 75/2/75
f 75/1/75 76/1/76 74/1/74 73/2/73
f 73/1/73 74/1/74 70/1/70 69/2/69
f 71/1/71 75/1/75 73/1/73 69/2/69
f 74/1/74 76/1/76 79/1/79 80/2/80
f 77/1/77 80/1/80 84/1/84 81/2/81
f 72/1/72 70/1/70 77/1/77 78/2/78
f 70/1/70 74/1/74 80/1/80 77/2/77
f 76/1/76 72/1/72 78/1/78 79/3/79
f 84/1/84 83/1/83 85/1/85
f 79/1/79 78/1/78 82/1/82 83/2/83
f 80/1/80 79/1/79 83/1/83 84/2/84
f 78/1/78 77/1/77 81/1/81 82/3/82
f 82/1/82 81/1/81 85/1/85
f 81/1/81 84/1/84 85/1/85
f 83/1/83 82/1/82 85/1/85
f 86/1/86 87/1/87 89/1/89 88/2/88
f 88/1/88 89/1/89 93/1/93 92/2/92
f 92/1/92 93/1/93 91/1/91 90/2/90
f 90/1/90 91/1/91 87/1/87 86/2/86
f 88/1/88 92/1/92 90/1/90 86/2/86
f 91/1/91 93/1/93 96/1/96 97/2/97
f 94/1/94 97/1/97 101/1/101 98/2/98
f 89/1/89 87/1/87 94/1/94 95/2/95
f 87/1/87 91/1/91 97/1/97 94/2/94
f 93/1/93 89/1/89 95/1/95 96/3/96
f 101/1/101 100/1/100 102/1/102
f 96/1/96 95/1/95 99/1/99 100/2/100
f 97/1/97 96/1/96 100/1/100 101/2/101
f 95/1/95 94/1/94 98/1/98 99/3/99
f 99/1/99 98/1/98 102/1/102
f 98/1/98 101/1/101 102/1/102
f 100/1/100 99/1/99 102/1/102
f 103/1/103 104/1/104 106/1/106 105/2/105
f 105/1/105 106/1/106 110/1/110 109/2/109
f 109/1/109 110/1/110 108/1/108 107/2/107
f 107/1/107 108/1/108 104/1/104 103/2/103
f 105/1/105 109/1/109 107/1/107 103/2/103
f 108/1/108 110/1/110 113/1/113 114/2/114
f 111/1/111 114/1/114 118/1/118 115/2/115
f 106/1/106 104/1/104 111/1/111 112/2/112
f 104/1/104 108/1/108 114/1/114 111/2/111
f 110/1/110 106/1/106 112/1/112 113/3/113
f 118/1/118 117/1/117 119/1/119
f 113/1/113 112/1/112 116/1/116 117/2/117
f 114/1/114 113/1/113 117/1/117 118/2/118
f 112/1/112 111/1/111 115/1/115 116/3/116
f 116/1/116 115/1/115 119/1/119
f 115/1/115 118/1/118 119/1/119
f 117/1/117 116/1/116 119/1/119
f 120/1/120 121/1/121 123/1/123 122/2/122
f 122/1/122 123/1/123 127/1/127 126/2/126
f 126/1/126 127/1/127 125/1/125 124/2/124
f 124/1/124 125/1/125 121/1/121 120/2/120
f 122/1/122 126/1/126 124/1/124 120/2/120
f 125/1/125 127/1/127 130/1/130 131/2/131
f 128/1/128 131/1/131 135/1/135 132/2/132
f 123/1/123 121/1/121 128/1/128 129/2/129
f 121/1/121 125/1/125 131/1/131 128/2/128
f 127/1/127 123/1/123 129/1/129 130/3/130
f 135/1/135 134/1/134 136/1/136
f 130/1/130 129/1/129 133/1/133 134/2/134
f 131/1/131 130/1/130 134/1/134 135/2/135
f 129/1/129 128/1/128 132/1/132 133/3/133
f 133/1/133 132/1/132 136/1/136
f 132/1/132 135/1/135 136/1/136
f 134/1/134 133/1/133 136/1/136
f 137/1/137 138/1/138 140/1/140 139/2/139
f 139/1/139 140/1/140 144/1/144 143/2/143
f 143/1/143 144/1/144 142/1/142 141/2/141
f 141/1/141 142/1/142 138/1/138 137/2/137
f 139/1/139 143/1/143 141/1/141 137/2/137
f 142/1/142 144/1/144 147/1/147 148/2/148
f 145/1/145 148/1/148 152/1/152 149/2/149
f 140/1/140 138/1/138 145/1/145 146/2/146
f 138/1/138 142/1/142 148/1/148 145/2/145
f 144/1/144 140/1/140 146/1/146 147/3/147
f 152/1/152 151/1/151 153/1/153
f 147/1/147 146/1/146 150/1/150 151/2/151
f 148/1/148 147/1/147 151/1/151 152/2/152
f 146/1/146 145/1/145 149/1/149 150/3/150
f 150/1/150 149/1/149 153/1/153
f 149/1/149 152/1/152 153/1/153
f 151/1/151 150/1/150 153/1/153
f 154/1/154 155/1/155 157/1/157 156/2/156
f 156/1/156 157/1/157 161/1/161 160/2/160
f 160/1/160 161/1/161 159/1/159 158/2/158
f 158/1/158 159/1/159 155/1/155 154/2/154
f 156/1/156 160/1/160 158/1/158 154/2/154
f 159/1/159 161/1/161 164/1/164 165/2/165
f 162/1/162 165/1/165 169/1/169 166/2/166
f 157/1/157 155/1/155 162/1/162 163/2/163
f 155/1/155 159/1/159 165/1/165 162/2/162
f 161/1/161 157/1/157 163/1/163 164/3/164
f 169/1/169 168/1/168 170/1/170
f 164/1/164 163/1/163 167/1/167 168/2/168
f 165/1/165 164/1/164 168/1/168 169/2/169
f 163/1/163 162/1/162 166/1/166 167/3/167
f 167/1/167 166/1/166 170/1/170
f 166/1/166 169/1/169 170/1/170
f 168/1/168 167/1/167 170/1/170
# 170 faces, 3 coords texture

# End of File
