####
#
# OBJ File Generated by Meshlab
#
####
# Object rock1.obj
#
# Vertices: 53
# Faces: 102
#
####
mtllib ./rock1.obj.mtl

vn -0.6387413 -0.5970109 -0.4853736
v -2.3932860 0.2247080 4.3685999
vn -0.6786079 -0.5197337 0.5190070
v -2.3502600 0.3009380 4.6111803
vn 0.7538803 -0.5953872 -0.2778105
v -1.8314641 0.2075540 4.3629661
vn 0.2691782 0.2956198 -0.9165981
v -2.0522161 0.3914240 4.2011399
vn -0.1406954 0.5497921 0.8233672
v -2.1657119 0.4217540 4.7723579
vn 0.2957526 0.8831753 -0.3640493
v -1.9645081 0.4827320 4.3717136
vn 0.6498524 0.6388144 0.4118350
v -1.9437960 0.4741040 4.6190162
vn -0.0287948 0.9710642 0.2370763
v -2.1496141 0.5488639 4.5858722
vn -0.0838716 0.7812579 0.6185481
v -2.1575639 0.4842980 4.7148061
vn 0.2922708 0.9347895 0.2018575
v -2.0161860 0.5297599 4.5838318
vn 0.5791039 0.8152463 0.0034974
v -1.9227360 0.4957040 4.4912400
vn 0.6213840 0.7413951 -0.2534074
v -1.9105800 0.4693879 4.4068441
vn 0.0147849 0.9901228 -0.1394212
v -2.1605639 0.5499560 4.4995379
vn -0.3958410 0.7948965 -0.4598364
v -2.2929902 0.4949540 4.3320122
vn -0.4425793 0.8956879 -0.0432073
v -2.3086441 0.5256380 4.4745178
vn -0.4893197 0.7440677 0.4548950
v -2.2899301 0.4958540 4.6308537
vn -0.5883290 0.2972589 0.7520014
v -2.2590179 0.3921200 4.7469540
vn 0.2827225 0.1940741 0.9393632
v -2.1029220 0.3859460 4.7890983
vn 0.3513207 0.6578068 0.6662312
v -2.0259659 0.4595720 4.7161860
vn 0.6599213 0.1228057 0.7412305
v -1.9774559 0.4047260 4.7159939
vn 0.9529135 0.3005192 -0.0405472
v -1.8127137 0.3428540 4.4354458
vn 0.6359578 0.5387254 -0.5525692
v -1.9053900 0.4128380 4.3172102
vn 0.7951657 -0.0187439 -0.6061026
v -1.8307860 0.2781440 4.3188181
vn 0.3573005 0.6785500 -0.6417993
v -2.0045462 0.4297400 4.2546062
vn -0.1085930 0.7502851 -0.6521348
v -2.1998041 0.4564640 4.2469378
vn -0.1345109 0.1842409 -0.9736335
v -2.1588960 0.3883100 4.1944323
vn -0.7440943 0.0935532 -0.6614919
v -2.3894758 0.3403940 4.3290300
vn -0.8173913 0.4551600 -0.3531303
v -2.4113281 0.4022300 4.3961458
vn -0.8111319 0.5817074 -0.0606758
v -2.4062040 0.4341560 4.4658060
vn -0.1357634 -0.1729503 0.9755288
v -2.1786239 0.3217520 4.8042479
vn -0.7051187 -0.3246104 0.6304251
v -2.2753260 0.3036800 4.7252278
vn -0.3098330 -0.6912329 0.6528404
v -2.2036979 0.2475020 4.7516937
vn 0.8651351 0.2416082 0.4395074
v -1.8665882 0.3819800 4.5692158
vn 0.9178262 -0.2222003 0.3289711
v -1.8139920 0.2701880 4.4806080
vn 0.1003898 -0.3260243 -0.9400160
v -2.0883000 0.3105800 4.2059517
vn -0.5033860 0.3071157 -0.8076401
v -2.2740002 0.4045340 4.2442861
vn -0.4486921 -0.2806134 -0.8484879
v -2.2914181 0.3059180 4.2524223
vn -0.1022079 -0.5930411 -0.7986588
v -2.1434700 0.2639900 4.2315960
vn -0.7588421 0.5470735 0.3533686
v -2.3846102 0.4418960 4.5575399
vn -0.9184337 0.1471557 0.3671850
v -2.4294839 0.3688580 4.5358920
vn -0.9786651 -0.1279933 -0.1607246
v -2.4528179 0.2970200 4.4259481
vn -0.8039305 -0.3879489 0.4507677
v -2.4243360 0.2817140 4.5156422
vn -0.0225347 -0.9415082 0.3362359
v -2.1309121 0.1836320 4.6597443
vn 0.4206783 -0.5980247 0.6821996
v -2.0566559 0.2407040 4.7211838
vn 0.6826864 -0.6542379 0.3254416
v -1.8337981 0.2261900 4.4627342
vn 0.3633583 -0.8560879 0.3675382
v -1.9758958 0.1926200 4.5313978
vn 0.2901628 -0.9569457 -0.0077806
v -1.8823740 0.1761860 4.4009280
vn -0.0640688 -0.9959961 -0.0623458
v -2.1568742 0.1743020 4.4474339
vn 0.2459541 -0.6943974 -0.6762536
v -1.9133400 0.2069720 4.3014660
vn -0.1841327 -0.8174837 -0.5457249
v -2.2668121 0.2122040 4.3158836
vn -0.6118510 -0.7620155 0.2120631
v -2.4025500 0.2165900 4.4635201
vn -0.3442169 -0.8932875 0.2890539
v -2.2637820 0.2103740 4.5568323
vn -0.2753999 -0.9543443 -0.1156797
v -2.3493721 0.1891280 4.4063883
# 53 vertices, 0 vertices normals


usemtl material_11
vt 0.0000000 0.0000000
f 37/1/37 1/1/1 27/1/27
f 15/1/15 8/1/8 13/1/13
f 15/1/15 16/1/16 8/1/8
f 16/1/16 9/1/9 8/1/8
f 29/1/29 39/1/39 15/1/15
f 8/1/8 10/1/10 13/1/13
f 9/1/9 10/1/10 8/1/8
f 9/1/9 19/1/19 10/1/10
f 19/1/19 7/1/7 10/1/10
f 10/1/10 11/1/11 13/1/13
f 11/1/11 6/1/6 13/1/13
f 7/1/7 11/1/11 10/1/10
f 11/1/11 12/1/12 6/1/6
f 12/1/12 22/1/22 6/1/6
f 6/1/6 25/1/25 13/1/13
f 25/1/25 14/1/14 13/1/13
f 14/1/14 15/1/15 13/1/13
f 39/1/39 16/1/16 15/1/15
f 40/1/40 17/1/17 39/1/39
f 39/1/39 17/1/17 16/1/16
f 17/1/17 9/1/9 16/1/16
f 30/1/30 18/1/18 5/1/5
f 5/1/5 18/1/18 9/1/9
f 18/1/18 19/1/19 9/1/9
f 18/1/18 20/1/20 19/1/19
f 20/1/20 7/1/7 19/1/19
f 30/1/30 44/1/44 18/1/18
f 44/1/44 20/1/20 18/1/18
f 34/1/34 21/1/21 33/1/33
f 33/1/33 11/1/11 7/1/7
f 33/1/33 21/1/21 11/1/11
f 21/1/21 12/1/12 11/1/11
f 21/1/21 22/1/22 12/1/12
f 21/1/21 23/1/23 22/1/22
f 45/1/45 3/1/3 34/1/34
f 3/1/3 23/1/23 34/1/34
f 34/1/34 23/1/23 21/1/21
f 22/1/22 24/1/24 6/1/6
f 22/1/22 4/1/4 24/1/24
f 24/1/24 25/1/25 6/1/6
f 4/1/4 25/1/25 24/1/24
f 4/1/4 26/1/26 25/1/25
f 35/1/35 26/1/26 4/1/4
f 25/1/25 36/1/36 14/1/14
f 36/1/36 27/1/27 14/1/14
f 27/1/27 28/1/28 14/1/14
f 37/1/37 27/1/27 36/1/36
f 28/1/28 15/1/15 14/1/14
f 28/1/28 29/1/29 15/1/15
f 40/1/40 31/1/31 17/1/17
f 17/1/17 5/1/5 9/1/9
f 17/1/17 30/1/30 5/1/5
f 40/1/40 2/1/2 31/1/31
f 17/1/17 31/1/31 30/1/30
f 31/1/31 32/1/32 30/1/30
f 32/1/32 44/1/44 30/1/30
f 20/1/20 33/1/33 7/1/7
f 20/1/20 34/1/34 33/1/33
f 20/1/20 44/1/44 34/1/34
f 44/1/44 45/1/45 34/1/34
f 23/1/23 4/1/4 22/1/22
f 23/1/23 49/1/49 4/1/4
f 4/1/4 49/1/49 35/1/35
f 3/1/3 49/1/49 23/1/23
f 26/1/26 36/1/36 25/1/25
f 26/1/26 37/1/37 36/1/36
f 35/1/35 38/1/38 26/1/26
f 38/1/38 37/1/37 26/1/26
f 29/1/29 40/1/40 39/1/39
f 28/1/28 41/1/41 29/1/29
f 41/1/41 40/1/40 29/1/29
f 27/1/27 41/1/41 28/1/28
f 41/1/41 42/1/42 40/1/40
f 40/1/40 42/1/42 2/1/2
f 27/1/27 1/1/1 41/1/41
f 2/1/2 32/1/32 31/1/31
f 52/1/52 32/1/32 2/1/2
f 43/1/43 32/1/32 52/1/52
f 48/1/48 43/1/43 52/1/52
f 43/1/43 44/1/44 32/1/32
f 44/1/44 46/1/46 45/1/45
f 43/1/43 46/1/46 44/1/44
f 47/1/47 46/1/46 43/1/43
f 46/1/46 47/1/47 45/1/45
f 43/1/43 48/1/48 47/1/47
f 47/1/47 3/1/3 45/1/45
f 47/1/47 49/1/49 3/1/3
f 47/1/47 48/1/48 49/1/49
f 38/1/38 35/1/35 49/1/49
f 48/1/48 50/1/50 49/1/49
f 42/1/42 51/1/51 2/1/2
f 51/1/51 52/1/52 2/1/2
f 41/1/41 51/1/51 42/1/42
f 41/1/41 1/1/1 51/1/51
f 51/1/51 53/1/53 52/1/52
f 53/1/53 48/1/48 52/1/52
f 1/1/1 53/1/53 51/1/51
f 50/1/50 53/1/53 1/1/1
f 50/1/50 38/1/38 49/1/49
f 38/1/38 50/1/50 37/1/37
f 48/1/48 53/1/53 50/1/50
f 50/1/50 1/1/1 37/1/37
# 102 faces, 1 coords texture

# End of File
