####
#
# OBJ File Generated by Meshlab
#
####
# Object rock3.obj
#
# Vertices: 53
# Faces: 102
#
####
mtllib ./rock3.obj.mtl

vn -0.3027390 -0.7031974 0.6433215
v -1.5233999 0.4078121 9.1591797
vn -0.7241651 -0.5600458 -0.4024099
v -1.6060200 0.4482881 8.7204475
vn 0.5588618 -0.7886487 0.2563334
v -0.7772880 0.3739000 9.1279678
vn 0.5728939 0.2653588 -0.7754853
v -0.9851760 0.5627920 8.4715796
vn -0.1162171 0.1438818 -0.9827470
v -1.1658599 0.5631641 8.4079552
vn 0.1015170 0.9948333 0.0010014
v -1.1633160 0.7385921 8.9740086
vn 0.3677789 0.7741162 0.5152504
v -0.9548040 0.6559721 9.1653118
vn -0.2516192 0.9582829 -0.1355788
v -1.4460000 0.7180601 8.8096561
vn -0.1525772 0.9601973 0.2339686
v -1.3242960 0.7285480 9.0559807
vn -0.4335116 0.8535516 0.2889939
v -1.5082920 0.6814961 9.0311756
vn 0.0409042 0.9142586 0.4030609
v -1.1643239 0.7045121 9.1589766
vn 0.0636887 0.5746179 0.8159399
v -1.1483160 0.6201040 9.2791319
vn -0.3099541 0.6388576 0.7041232
v -1.3384080 0.6314680 9.2377081
vn 0.3021067 0.9293581 0.2121915
v -0.9656640 0.6874240 9.0947275
vn 0.3221991 0.9432104 -0.0808823
v -0.9175080 0.6801280 8.9270878
vn 0.7603343 0.6216695 0.1881992
v -0.7505280 0.6001120 9.0116043
vn 0.1740707 0.8460457 -0.5038909
v -1.1314920 0.6367961 8.4799318
vn 0.4936442 0.8137850 -0.3067074
v -0.8336880 0.6028240 8.7363358
vn 0.0097800 0.9804162 -0.1966942
v -1.3010880 0.7208080 8.7502079
vn -0.3487036 0.7581388 -0.5510275
v -1.3843920 0.6774041 8.6384039
vn -0.6277094 0.7555205 -0.1875359
v -1.5982200 0.6589840 8.8292160
vn -0.9752603 0.1243837 -0.1827458
v -1.6996679 0.5177920 8.8712997
vn -0.9291888 0.2428567 0.2786193
v -1.6878600 0.5272360 9.0277443
vn -0.2161281 0.1256070 0.9682519
v -1.2682201 0.5733281 9.2917318
vn 0.5364387 0.4208949 0.7314923
v -0.8626560 0.5348681 9.2185202
vn 0.9118596 0.0267624 0.4096289
v -0.7360200 0.4548281 9.1277285
vn 0.8462451 0.1320291 -0.5161760
v -0.7945560 0.5370041 8.6796360
vn -0.2454820 0.7399974 -0.6262128
v -1.1949360 0.6290321 8.4713039
vn -0.5112949 0.0308441 -0.8588517
v -1.3498319 0.4883680 8.5207682
vn -0.7225469 0.3471614 0.5978336
v -1.6348319 0.5409520 9.1145878
vn -0.5215886 -0.1141361 0.8455284
v -1.5704759 0.4798960 9.1751394
vn 0.2916475 0.2708921 0.9173654
v -1.0067999 0.5462920 9.2868118
vn -0.0054398 -0.2607035 0.9654036
v -1.0954080 0.4912240 9.3028316
vn 0.5765082 -0.3593147 0.7338469
v -0.7913520 0.4112801 9.2028122
vn 0.7863197 0.5988991 -0.1517274
v -0.7502400 0.5973400 8.8923597
vn 0.9505046 -0.3033046 -0.0674342
v -0.7108440 0.4391441 8.9518080
vn 0.6396526 -0.7219818 -0.2637932
v -0.7421760 0.4128281 8.9104919
vn 0.5275894 -0.6572639 -0.5381948
v -0.9018600 0.4527640 8.5976524
vn 0.1964040 -0.5584291 -0.8059668
v -1.0993080 0.4792361 8.4445801
vn -0.7525696 0.2141714 -0.6227115
v -1.6133519 0.5281120 8.7015715
vn -0.7739293 -0.6230478 -0.1133356
v -1.6787040 0.4375361 8.8982277
vn -0.6636231 -0.6753307 0.3217651
v -1.6455600 0.4113761 9.0627604
vn -0.0693138 -0.9975860 -0.0042372
v -1.3669200 0.3546641 8.9339762
vn -0.1177776 -0.9562845 0.2676722
v -1.4159759 0.3678881 9.1130285
vn 0.1335198 -0.6485354 0.7493827
v -0.9449639 0.3996041 9.2450161
vn 0.0304829 -0.9744561 0.2225000
v -0.9097080 0.3551321 9.1204195
vn 0.2526623 -0.9674827 -0.0117906
v -0.8305680 0.3492640 9.0527763
vn 0.1660954 -0.9664799 -0.1957780
v -0.9391560 0.3679720 8.8299360
vn -0.6070322 -0.5570049 -0.5667959
v -1.5243840 0.4127921 8.6290083
vn -0.2682950 -0.9612021 -0.0640958
v -1.5274560 0.3765400 8.8743362
vn -0.2642625 -0.9427302 -0.2035316
v -1.4526360 0.3819520 8.6306162
vn 0.1108972 -0.8922028 -0.4378082
v -1.1518559 0.4186001 8.5238161
vn -0.2268388 -0.7833233 -0.5787476
v -1.3863599 0.3819160 8.5719957
# 53 vertices, 0 vertices normals


usemtl material_9
vt 0.0000000 0.0000000
f 20/1/20 8/1/8 19/1/19
f 19/1/19 8/1/8 6/1/6
f 8/1/8 9/1/9 6/1/6
f 8/1/8 10/1/10 9/1/9
f 8/1/8 21/1/21 10/1/10
f 20/1/20 21/1/21 8/1/8
f 9/1/9 11/1/11 6/1/6
f 9/1/9 13/1/13 11/1/11
f 11/1/11 12/1/12 7/1/7
f 9/1/9 10/1/10 13/1/13
f 13/1/13 12/1/12 11/1/11
f 30/1/30 13/1/13 10/1/10
f 11/1/11 14/1/14 6/1/6
f 6/1/6 14/1/14 15/1/15
f 11/1/11 7/1/7 14/1/14
f 14/1/14 16/1/16 15/1/15
f 16/1/16 35/1/35 15/1/15
f 7/1/7 16/1/16 14/1/14
f 12/1/12 32/1/32 7/1/7
f 15/1/15 17/1/17 6/1/6
f 35/1/35 18/1/18 15/1/15
f 18/1/18 17/1/17 15/1/15
f 17/1/17 19/1/19 6/1/6
f 17/1/17 20/1/20 19/1/19
f 17/1/17 28/1/28 20/1/20
f 40/1/40 21/1/21 20/1/20
f 40/1/40 22/1/22 21/1/21
f 21/1/21 23/1/23 10/1/10
f 22/1/22 23/1/23 21/1/21
f 2/1/2 22/1/22 40/1/40
f 30/1/30 31/1/31 13/1/13
f 31/1/31 24/1/24 13/1/13
f 24/1/24 12/1/12 13/1/13
f 1/1/1 24/1/24 31/1/31
f 34/1/34 25/1/25 32/1/32
f 32/1/32 25/1/25 7/1/7
f 25/1/25 16/1/16 7/1/7
f 25/1/25 26/1/26 16/1/16
f 34/1/34 26/1/26 25/1/25
f 36/1/36 27/1/27 35/1/35
f 27/1/27 18/1/18 35/1/35
f 37/1/37 38/1/38 27/1/27
f 27/1/27 4/1/4 18/1/18
f 4/1/4 5/1/5 17/1/17
f 5/1/5 28/1/28 17/1/17
f 5/1/5 20/1/20 28/1/28
f 53/1/53 29/1/29 5/1/5
f 5/1/5 29/1/29 20/1/20
f 23/1/23 30/1/30 10/1/10
f 23/1/23 42/1/42 30/1/30
f 30/1/30 42/1/42 31/1/31
f 22/1/22 41/1/41 23/1/23
f 41/1/41 42/1/42 23/1/23
f 42/1/42 1/1/1 31/1/31
f 2/1/2 41/1/41 22/1/22
f 24/1/24 33/1/33 12/1/12
f 33/1/33 32/1/32 12/1/12
f 33/1/33 34/1/34 32/1/32
f 24/1/24 1/1/1 33/1/33
f 33/1/33 45/1/45 34/1/34
f 1/1/1 45/1/45 33/1/33
f 16/1/16 36/1/36 35/1/35
f 16/1/16 26/1/26 36/1/36
f 36/1/36 37/1/37 27/1/27
f 34/1/34 3/1/3 26/1/26
f 3/1/3 36/1/36 26/1/26
f 3/1/3 47/1/47 36/1/36
f 47/1/47 37/1/37 36/1/36
f 18/1/18 4/1/4 17/1/17
f 27/1/27 38/1/38 4/1/4
f 4/1/4 39/1/39 5/1/5
f 38/1/38 39/1/39 4/1/4
f 38/1/38 52/1/52 39/1/39
f 39/1/39 53/1/53 5/1/5
f 29/1/29 40/1/40 20/1/20
f 29/1/29 49/1/49 40/1/40
f 50/1/50 41/1/41 2/1/2
f 50/1/50 42/1/42 41/1/41
f 50/1/50 43/1/43 42/1/42
f 43/1/43 44/1/44 42/1/42
f 42/1/42 44/1/44 1/1/1
f 44/1/44 45/1/45 1/1/1
f 46/1/46 45/1/45 44/1/44
f 43/1/43 47/1/47 44/1/44
f 44/1/44 47/1/47 46/1/46
f 46/1/46 3/1/3 45/1/45
f 45/1/45 3/1/3 34/1/34
f 46/1/46 47/1/47 3/1/3
f 48/1/48 37/1/37 47/1/47
f 43/1/43 48/1/48 47/1/47
f 48/1/48 38/1/38 37/1/37
f 29/1/29 53/1/53 49/1/49
f 40/1/40 49/1/49 2/1/2
f 49/1/49 51/1/51 2/1/2
f 2/1/2 51/1/51 50/1/50
f 51/1/51 43/1/43 50/1/50
f 53/1/53 51/1/51 49/1/49
f 53/1/53 43/1/43 51/1/51
f 48/1/48 52/1/52 38/1/38
f 48/1/48 53/1/53 52/1/52
f 53/1/53 39/1/39 52/1/52
f 43/1/43 53/1/53 48/1/48
# 102 faces, 1 coords texture

# End of File
