####
#
# OBJ File Generated by Meshlab
#
####
# Object rock2.obj
#
# Vertices: 53
# Faces: 102
#
####
mtllib ./rock2.obj.mtl

vn -0.8245479 -0.5549652 -0.1101565
v -2.6951199 0.1343100 7.3552399
vn 0.3911317 -0.9028447 0.1785706
v -1.8637400 -0.0260900 7.6297703
vn -0.0450307 -0.9965726 -0.0693927
v -2.2848799 -0.0355000 7.4130001
vn -0.7430642 0.3946785 -0.5404485
v -2.6833100 0.3312500 7.1077800
vn 0.4508845 -0.7751374 -0.4425666
v -1.8743000 0.1008900 7.1469898
vn 0.8473347 -0.2432269 -0.4720853
v -1.6425200 0.3285400 7.1413798
vn 0.9694811 -0.2451468 -0.0030767
v -1.6202199 0.3205400 7.2747498
vn -0.1236915 -0.5482714 0.8271027
v -2.4968600 0.0933800 7.8488202
vn -0.6746788 -0.0081317 0.7380667
v -2.7246299 0.2573600 7.8217402
vn 0.2779039 0.9411560 -0.1923404
v -1.9378400 0.6358300 7.2894101
vn 0.1598159 0.9587056 0.2352497
v -2.1150200 0.6914500 7.5551600
vn 0.7274230 0.6532515 0.2100440
v -1.6930200 0.5086600 7.4133201
vn -0.6538115 0.7548580 -0.0521531
v -2.6502600 0.5422500 7.4844499
vn -0.3595595 0.8682569 0.3418288
v -2.5123200 0.5820500 7.7101803
vn 0.1456998 0.7901736 0.5953127
v -2.1783099 0.6052600 7.7422304
vn -0.2854877 0.6650602 0.6900664
v -2.4886398 0.5178900 7.8235002
vn 0.1436304 0.4557263 0.8784554
v -2.2587800 0.4797400 7.8755403
vn 0.4341060 0.8608643 0.2654518
v -1.9072300 0.6199500 7.5348401
vn 0.5498900 0.5694275 0.6110430
v -1.8797899 0.5322000 7.6541400
vn 0.6098697 0.5953264 -0.5231113
v -1.7175200 0.4778700 7.0908399
vn 0.1637208 0.7956375 -0.5832293
v -1.9707701 0.5336800 7.0161200
vn 0.9039307 0.4135469 -0.1090333
v -1.6177800 0.4349100 7.2408800
vn -0.1298279 0.9914761 0.0109546
v -2.2606800 0.7023200 7.4762397
vn -0.2048988 0.9238642 -0.3232514
v -2.3228600 0.6478500 7.2728996
vn -0.4868011 0.7681867 -0.4158293
v -2.5239701 0.5368400 7.2117901
vn -0.9416167 0.2557406 -0.2189857
v -2.7469501 0.3416600 7.2915101
vn -0.6818743 0.5623979 0.4677137
v -2.6926699 0.4312100 7.7500896
vn -0.9819943 0.1235563 0.1429019
v -2.8010800 0.2848000 7.6587701
vn -0.1559366 0.1440692 0.9772041
v -2.4542999 0.3673500 7.9225802
vn 0.7093628 -0.0803564 0.7002481
v -1.8078301 0.1518400 7.7468596
vn 0.9040139 0.1265718 0.4083362
v -1.6637100 0.3617700 7.4834800
vn 0.5742868 -0.1700553 -0.8007970
v -1.7732500 0.3341100 7.0007496
vn 0.2290543 0.2393263 -0.9435344
v -1.9741000 0.4111600 6.9128604
vn 0.3193496 -0.6113199 -0.7240884
v -1.9534100 0.1674100 7.0007997
vn -0.1992384 0.6215947 -0.7575778
v -2.2455301 0.4862300 6.9668698
vn -0.4612867 0.2087346 -0.8623482
v -2.5665500 0.2710400 6.9919500
vn -0.3327861 -0.4812245 -0.8109725
v -2.5374298 0.0873400 6.9898300
vn -0.8095950 -0.5778461 0.1031982
v -2.7615099 0.1058900 7.6470299
vn -0.4882548 -0.5518278 0.6760868
v -2.6607499 0.1114700 7.8008699
vn 0.4189117 0.2217483 0.8805344
v -1.9699099 0.3100600 7.8318601
vn 0.3438612 -0.2309462 0.9101777
v -1.9375401 0.1207100 7.8278899
vn 0.2740088 -0.6648041 0.6949495
v -1.9381399 0.0378900 7.7859902
vn 0.7369447 -0.6624444 -0.1344617
v -1.7266500 0.1135700 7.3969698
vn 0.7856848 -0.5086844 0.3520504
v -1.7691100 0.0572200 7.6546102
vn -0.0051647 -0.1266888 -0.9919291
v -2.1636100 0.2913100 6.8899603
vn -0.8327805 -0.3514603 -0.4277292
v -2.6950202 0.1390100 7.0985699
vn -0.2558959 -0.9324297 0.2551318
v -2.5384700 -0.0181000 7.6872702
vn 0.0004013 -0.9325956 0.3609230
v -2.1178999 -0.0198800 7.6815100
vn 0.1179054 -0.9921309 -0.0421258
v -1.9899499 -0.0500800 7.5279098
vn 0.2872320 -0.9189433 -0.2702609
v -1.9524200 0.0050000 7.3153000
vn -0.4001715 -0.9155632 -0.0400846
v -2.5502601 0.0186300 7.4031200
vn -0.4493695 -0.8799189 -0.1543047
v -2.5665200 0.0040800 7.1568203
vn -0.0518916 -0.8954981 -0.4420300
v -2.4510698 -0.0053100 7.0807400
# 53 vertices, 0 vertices normals


usemtl material_11
vt 0.0000000 0.0000000
f 42/1/42 44/1/44 41/1/41
f 31/1/31 22/1/22 12/1/12
f 24/1/24 13/1/13 23/1/23
f 13/1/13 14/1/14 23/1/23
f 24/1/24 25/1/25 13/1/13
f 23/1/23 14/1/14 11/1/11
f 14/1/14 15/1/15 11/1/11
f 14/1/14 16/1/16 15/1/15
f 16/1/16 17/1/17 15/1/15
f 15/1/15 19/1/19 11/1/11
f 11/1/11 18/1/18 10/1/10
f 18/1/18 12/1/12 10/1/10
f 11/1/11 19/1/19 18/1/18
f 18/1/18 19/1/19 12/1/12
f 17/1/17 19/1/19 15/1/15
f 17/1/17 40/1/40 19/1/19
f 20/1/20 21/1/21 10/1/10
f 12/1/12 20/1/20 10/1/10
f 12/1/12 22/1/22 20/1/20
f 21/1/21 20/1/20 33/1/33
f 10/1/10 23/1/23 11/1/11
f 10/1/10 24/1/24 23/1/23
f 21/1/21 24/1/24 10/1/10
f 21/1/21 35/1/35 24/1/24
f 35/1/35 25/1/25 24/1/24
f 33/1/33 35/1/35 21/1/21
f 4/1/4 26/1/26 25/1/25
f 25/1/25 26/1/26 13/1/13
f 28/1/28 13/1/13 26/1/26
f 27/1/27 14/1/14 13/1/13
f 28/1/28 27/1/27 13/1/13
f 27/1/27 16/1/16 14/1/14
f 9/1/9 29/1/29 27/1/27
f 29/1/29 16/1/16 27/1/27
f 29/1/29 17/1/17 16/1/16
f 39/1/39 8/1/8 9/1/9
f 9/1/9 8/1/8 29/1/29
f 41/1/41 30/1/30 40/1/40
f 40/1/40 30/1/30 19/1/19
f 30/1/30 31/1/31 19/1/19
f 31/1/31 12/1/12 19/1/19
f 41/1/41 44/1/44 30/1/30
f 7/1/7 22/1/22 31/1/31
f 7/1/7 6/1/6 22/1/22
f 6/1/6 20/1/20 22/1/22
f 43/1/43 6/1/6 7/1/7
f 6/1/6 32/1/32 20/1/20
f 32/1/32 33/1/33 20/1/20
f 5/1/5 34/1/34 6/1/6
f 34/1/34 32/1/32 6/1/6
f 45/1/45 35/1/35 33/1/33
f 45/1/45 36/1/36 35/1/35
f 37/1/37 36/1/36 45/1/45
f 36/1/36 4/1/4 35/1/35
f 28/1/28 9/1/9 27/1/27
f 38/1/38 9/1/9 28/1/28
f 26/1/26 38/1/38 28/1/28
f 38/1/38 39/1/39 9/1/9
f 26/1/26 1/1/1 38/1/38
f 29/1/29 40/1/40 17/1/17
f 29/1/29 41/1/41 40/1/40
f 8/1/8 41/1/41 29/1/29
f 8/1/8 42/1/42 41/1/41
f 44/1/44 7/1/7 31/1/31
f 44/1/44 43/1/43 7/1/7
f 30/1/30 44/1/44 31/1/31
f 43/1/43 5/1/5 6/1/6
f 2/1/2 43/1/43 44/1/44
f 32/1/32 45/1/45 33/1/33
f 32/1/32 34/1/34 45/1/45
f 34/1/34 37/1/37 45/1/45
f 35/1/35 4/1/4 25/1/25
f 37/1/37 46/1/46 36/1/36
f 36/1/36 46/1/46 4/1/4
f 46/1/46 26/1/26 4/1/4
f 46/1/46 1/1/1 26/1/26
f 51/1/51 38/1/38 1/1/1
f 51/1/51 47/1/47 38/1/38
f 47/1/47 39/1/39 38/1/38
f 3/1/3 47/1/47 51/1/51
f 47/1/47 8/1/8 39/1/39
f 8/1/8 48/1/48 42/1/42
f 47/1/47 48/1/48 8/1/8
f 49/1/49 48/1/48 47/1/47
f 47/1/47 3/1/3 49/1/49
f 48/1/48 2/1/2 42/1/42
f 48/1/48 49/1/49 2/1/2
f 42/1/42 2/1/2 44/1/44
f 49/1/49 50/1/50 2/1/2
f 2/1/2 50/1/50 43/1/43
f 50/1/50 5/1/5 43/1/43
f 52/1/52 51/1/51 1/1/1
f 46/1/46 52/1/52 1/1/1
f 37/1/37 52/1/52 46/1/46
f 52/1/52 3/1/3 51/1/51
f 37/1/37 53/1/53 52/1/52
f 52/1/52 53/1/53 3/1/3
f 50/1/50 53/1/53 5/1/5
f 5/1/5 53/1/53 34/1/34
f 49/1/49 3/1/3 50/1/50
f 3/1/3 53/1/53 50/1/50
f 53/1/53 37/1/37 34/1/34
# 102 faces, 1 coords texture

# End of File
