####
#
# OBJ File Generated by Meshlab
#
####
# Object Bushs2.obj
#
# Vertices: 180
# Faces: 300
#
####
mtllib ./Bushs2.obj.mtl

vn 0.0000000 -1.0000000 -0.0000000
v 0.0581640 0.0082440 3.3646262
vn 0.6466717 -0.6008934 0.4698328
v 0.4531860 0.0100980 3.6516242
vn -0.2470015 -0.6008934 0.7602088
v -0.0927180 0.0100980 3.8290021
vn -0.7993337 -0.6008875 -0.0000016
v -0.4301160 0.0100980 3.3646262
vn -0.2469995 -0.6008958 -0.7602076
v -0.0927180 0.0100980 2.9002559
vn 0.6466698 -0.6008915 -0.4698378
v 0.4531860 0.0100980 3.0776284
vn 0.2729923 0.4685584 0.8401954
v 0.2090460 0.3993360 3.8290021
vn -0.7147102 0.4685608 0.5192688
v -0.3368580 0.3993360 3.6516242
vn -0.7147080 0.4685591 -0.5192734
v -0.3368580 0.3993360 3.0776284
vn 0.2729915 0.4685589 -0.8401953
v 0.2090460 0.3993360 2.9002559
vn 0.8834324 0.4685588 -0.0000018
v 0.5464380 0.3993360 3.3646262
vn 0.0000007 1.0000000 -0.0000019
v 0.0581640 0.6398940 3.3646262
vn 0.0000000 -1.0000000 0.0000000
v -1.1418000 -0.0069300 2.5903921
vn 0.6466687 -0.6008970 0.4698323
v -0.3811800 -0.0033660 3.1430042
vn -0.2470020 -0.6008949 0.7602075
v -1.4323260 -0.0033660 3.4845481
vn -0.7993297 -0.6008927 0.0000008
v -2.0819821 -0.0033660 2.5903921
vn -0.2470017 -0.6008962 -0.7602065
v -1.4323260 -0.0033660 1.6962360
vn 0.6466683 -0.6008953 -0.4698350
v -0.3811800 -0.0033660 2.0377741
vn 0.2729917 0.4685548 0.8401976
v -0.8512741 0.7461181 3.4845481
vn -0.7147129 0.4685573 0.5192683
v -1.9024202 0.7461181 3.1430042
vn -0.7147120 0.4685560 -0.5192709
v -1.9024202 0.7461181 2.0377741
vn 0.2729918 0.4685561 -0.8401968
v -0.8512741 0.7461181 1.6962360
vn 0.8834344 0.4685549 0.0000007
v -0.2016180 0.7461181 2.5903921
vn -0.0000004 1.0000000 0.0000006
v -1.1418000 1.2093241 2.5903921
vn 0.0000000 -1.0000000 -0.0000000
v -1.9867321 0.0145920 3.5064180
vn 0.6466734 -0.6008874 0.4698383
v -1.6918920 0.0159780 3.7206304
vn -0.2470050 -0.6008919 0.7602088
v -2.0993521 0.0159780 3.8530202
vn -0.7993347 -0.6008861 -0.0000002
v -2.3511779 0.0159780 3.5064180
vn -0.2470049 -0.6008919 -0.7602088
v -2.0993521 0.0159780 3.1598163
vn 0.6466732 -0.6008875 -0.4698383
v -1.6918920 0.0159780 3.2922060
vn 0.2729905 0.4685545 0.8401982
v -1.8741180 0.3064980 3.8530202
vn -0.7147114 0.4685559 0.5192716
v -2.2815721 0.3064980 3.7206304
vn -0.7147114 0.4685560 -0.5192716
v -2.2815721 0.3064980 3.2922060
vn 0.2729904 0.4685543 -0.8401983
v -1.8741180 0.3064980 3.1598163
vn 0.8834335 0.4685565 -0.0000003
v -1.6222919 0.3064980 3.5064180
vn 0.0000024 1.0000000 -0.0000002
v -1.9867321 0.4860540 3.5064180
vn -0.0988768 -0.9843429 0.1459195
v -0.6239940 0.8434681 2.7460561
vn -0.3282535 -0.5707679 -0.7526445
v -0.6428400 0.8677260 2.6766841
vn 0.6492175 -0.6222662 -0.4373803
v -0.5660520 0.8636821 2.7014520
vn 0.6633131 -0.4728821 0.5799986
v -0.5649421 0.8754181 2.7813783
vn -0.3054818 -0.3290837 0.8935238
v -0.6410520 0.8867161 2.8060081
vn -0.9183154 -0.3896304 0.0698932
v -0.6891961 0.8819580 2.7413042
vn 0.3076130 0.2890787 -0.9065362
v -0.5937840 0.9311340 2.6667001
vn 0.9341916 0.3509041 -0.0644386
v -0.5456400 0.9358861 2.7314041
vn 0.3308908 0.5361876 0.7765399
v -0.5919960 0.9501240 2.7960181
vn -0.6685767 0.5887962 0.4542293
v -0.6687900 0.9541680 2.7712562
vn -0.6829598 0.4360926 -0.5859942
v -0.6698940 0.9424320 2.6913300
vn 0.0988921 0.9843450 -0.1458949
v -0.6098220 0.9845580 2.7251463
vn -0.0988646 -0.9843529 0.1458604
v -0.7374120 0.8639700 2.8516321
vn -0.3282851 -0.5707691 -0.7526298
v -0.7562641 0.8882281 2.7822659
vn 0.6492124 -0.6222708 -0.4373814
v -0.6794700 0.8841841 2.8070340
vn 0.6633229 -0.4728757 0.5799925
v -0.6783600 0.8959201 2.8869603
vn -0.3054877 -0.3291227 0.8935074
v -0.7544701 0.9072120 2.9115899
vn -0.9183183 -0.3896183 0.0699217
v -0.8026141 0.9024600 2.8468862
vn 0.3076267 0.2890516 -0.9065402
v -0.7072021 0.9516360 2.7722821
vn 0.9341872 0.3509102 -0.0644700
v -0.6590580 0.9563881 2.8369801
vn 0.3308847 0.5361674 0.7765564
v -0.7054140 0.9706200 2.9016001
vn -0.6685708 0.5888184 0.4542093
v -0.7822080 0.9746700 2.8768322
vn -0.6829445 0.4360846 -0.5860181
v -0.7833120 0.9629340 2.7969060
vn 0.0989009 0.9843436 -0.1458982
v -0.7232400 1.0050601 2.8307223
vn -0.0988782 -0.9843519 0.1458575
v -0.6295920 0.7833301 2.8730583
vn -0.3282484 -0.5707769 -0.7526399
v -0.6484381 0.8075880 2.8036921
vn 0.6492435 -0.6222497 -0.4373651
v -0.5716440 0.8035441 2.8284600
vn 0.6633079 -0.4728868 0.5800006
v -0.5705400 0.8152800 2.9083862
vn -0.3055032 -0.3291144 0.8935052
v -0.6466500 0.8265720 2.9330161
vn -0.9183251 -0.3896035 0.0699153
v -0.6947940 0.8218200 2.8683121
vn 0.3076077 0.2890582 -0.9065444
v -0.5993820 0.8709960 2.7937083
vn 0.9341899 0.3509000 -0.0644862
v -0.5512380 0.8757481 2.8584061
vn 0.3309095 0.5361885 0.7765313
v -0.5975880 0.8899860 2.9230261
vn -0.6685525 0.5888374 0.4542116
v -0.6743820 0.8940300 2.8982582
vn -0.6829553 0.4360859 -0.5860045
v -0.6754920 0.8822940 2.8183320
vn 0.0989255 0.9843376 -0.1459224
v -0.6154140 0.9244201 2.8521481
vn 0.2147350 -0.9474311 0.2371985
v -1.2448680 0.8999760 2.9653740
vn 0.2517388 -0.6367829 -0.7287902
v -1.2401640 0.9164580 2.8914661
vn 0.9500071 -0.3083585 -0.0490063
v -1.1853061 0.9422580 2.9448721
vn 0.4791934 -0.1881461 0.8573067
v -1.2222960 0.9517021 3.0160739
vn -0.5100353 -0.4423282 0.7377058
v -1.3000079 0.9317340 3.0066781
vn -0.6506277 -0.7196273 -0.2425289
v -1.3110541 0.9099481 2.9296682
vn 0.5318419 0.4066095 -0.7428412
v -1.2182821 0.9942181 2.8925221
vn 0.6755957 0.6901273 0.2594125
v -1.2072361 1.0160040 2.9695323
vn -0.2470216 0.6054241 0.7565989
v -1.2781260 1.0094941 3.0077341
vn -0.9609961 0.2696126 0.0616091
v -1.3329841 0.9836940 2.9543343
vn -0.4796497 0.1467207 -0.8651065
v -1.2960001 0.9742500 2.8831263
vn -0.2147665 0.9474344 -0.2371572
v -1.2756481 1.0357740 2.9313781
vn 0.2147684 -0.9474277 0.2371820
v -1.3909981 0.8720521 3.0132959
vn 0.2517228 -0.6367806 -0.7287978
v -1.3863000 0.8885341 2.9393942
vn 0.9499968 -0.3083824 -0.0490544
v -1.3314420 0.9143341 2.9927940
vn 0.4792041 -0.1881669 0.8572961
v -1.3684261 0.9237780 3.0639961
vn -0.5100399 -0.4423173 0.7377092
v -1.4461440 0.9038101 3.0546002
vn -0.6506254 -0.7196155 -0.2425700
v -1.4571900 0.8820240 2.9775901
vn 0.5318654 0.4065822 -0.7428393
v -1.3644121 0.9662940 2.9404502
vn 0.6756079 0.6901034 0.2594443
v -1.3533660 0.9880801 3.0174603
vn -0.2470106 0.6054295 0.7565982
v -1.4242561 0.9815701 3.0556560
vn -0.9609903 0.2696392 0.0615827
v -1.4791200 0.9557700 3.0022562
vn -0.4796011 0.1467311 -0.8651317
v -1.4421300 0.9463260 2.9310541
vn -0.2147442 0.9474302 -0.2371939
v -1.4217781 1.0078501 2.9793000
vn 0.2147619 -0.9474377 0.2371479
v -1.2810662 0.8396280 3.0871322
vn 0.2517219 -0.6367893 -0.7287904
v -1.2763680 0.8561100 3.0132301
vn 0.9500220 -0.3083008 -0.0490798
v -1.2215101 0.8819160 3.0666301
vn 0.4792202 -0.1881722 0.8572860
v -1.2584941 0.8913540 3.1378381
vn -0.5100592 -0.4423647 0.7376673
v -1.3362120 0.8713860 3.1284361
vn -0.6506504 -0.7196093 -0.2425215
v -1.3472581 0.8496060 3.0514321
vn 0.5318206 0.4066567 -0.7428306
v -1.2544860 0.9338760 3.0142863
vn 0.6755988 0.6901259 0.2594080
v -1.2434402 0.9556560 3.0912960
vn -0.2470413 0.6054329 0.7565855
v -1.3143300 0.9491520 3.1294982
vn -0.9610050 0.2695907 0.0615652
v -1.3691881 0.9233460 3.0760922
vn -0.4796467 0.1467025 -0.8651112
v -1.3322041 0.9139020 3.0048900
vn -0.2147762 0.9474307 -0.2371629
v -1.3118520 0.9754260 3.0531423
vn 0.5713712 -0.6843602 -0.4529748
v -1.3423380 0.4620900 3.3635881
vn 0.3446110 0.1884116 -0.9196436
v -1.3553760 0.5249341 3.3231361
vn 0.9775124 0.1804240 -0.1091635
v -1.3056540 0.5243040 3.3868082
vn 0.6421454 -0.5351338 0.5488908
v -1.3320000 0.4680900 3.4385040
vn -0.1980483 -0.9693959 0.1450808
v -1.3980060 0.4339740 3.4067822
vn -0.3819587 -0.5221995 -0.7625059
v -1.4124540 0.4691100 3.3354840
vn 0.2300607 0.9581848 -0.1701586
v -1.3626601 0.5812200 3.3806341
vn 0.4180858 0.5009596 0.7577888
v -1.3482120 0.5460901 3.4519320
vn -0.3247837 -0.2256096 0.9184856
v -1.4052900 0.4902660 3.4642801
vn -0.9719247 -0.2174862 0.0897898
v -1.4550121 0.4908900 3.4006081
vn -0.6290066 0.5141860 -0.5830639
v -1.4286660 0.5471100 3.3489063
vn -0.5713741 0.6843560 0.4529776
v -1.4242380 0.5601840 3.4285142
vn 0.5713986 -0.6843579 -0.4529436
v -1.4596441 0.3589980 3.3571563
vn 0.3446189 0.1884270 -0.9196376
v -1.4726820 0.4218420 3.3167043
vn 0.9775134 0.1804204 -0.1091610
v -1.4229600 0.4212120 3.3803761
vn 0.6421526 -0.5351360 0.5488802
v -1.4493060 0.3649980 3.4320722
vn -0.1980831 -0.9693866 0.1450955
v -1.5153180 0.3308820 3.4003503
vn -0.3819250 -0.5222105 -0.7625152
v -1.5297601 0.3660120 3.3290460
vn 0.2300171 0.9581886 -0.1701965
v -1.4799660 0.4781280 3.3741963
vn 0.4180481 0.5009879 0.7577908
v -1.4655180 0.4429980 3.4455001
vn -0.3247858 -0.2256195 0.9184825
v -1.5225961 0.3871680 3.4578483
vn -0.9719352 -0.2174319 0.0898083
v -1.5723182 0.3877980 3.3941762
vn -0.6290323 0.5141695 -0.5830507
v -1.5459721 0.4440120 3.3424742
vn -0.5714052 0.6843521 0.4529441
v -1.5415441 0.4570860 3.4220760
vn 0.5713712 -0.6843607 -0.4529738
v -1.3353001 0.3273420 3.4032362
vn 0.3445830 0.1884130 -0.9196538
v -1.3483381 0.3901860 3.3627841
vn 0.9775141 0.1804037 -0.1091818
v -1.2986161 0.3895560 3.4264560
vn 0.6421258 -0.5351346 0.5489131
v -1.3249621 0.3333420 3.4781582
vn -0.1980555 -0.9693959 0.1450708
v -1.3909681 0.2992260 3.4464302
vn -0.3819670 -0.5221809 -0.7625145
v -1.4054160 0.3343620 3.3751321
vn 0.2300896 0.9581750 -0.1701750
v -1.3556160 0.4464720 3.4202821
vn 0.4180557 0.5009525 0.7578101
v -1.3411741 0.4113420 3.4915862
vn -0.3248325 -0.2256070 0.9184691
v -1.3982520 0.3555180 3.5039282
vn -0.9719301 -0.2174611 0.0897922
v -1.4479741 0.3561420 3.4402561
vn -0.6290304 0.5142134 -0.5830140
v -1.4216280 0.4123620 3.3885603
vn -0.5713557 0.6843770 0.4529690
v -1.4171940 0.4254360 3.4681623
vn 0.4498439 -0.4056150 0.7956865
v -1.1441700 0.8869020 2.1281340
vn 0.0418044 -0.9961133 0.0775289
v -1.1724601 0.8371201 2.0783701
vn 0.8874232 -0.4451406 -0.1197079
v -1.1060281 0.8804041 2.0628719
vn 0.8078638 0.4494060 0.3813008
v -1.1122800 0.9506820 2.1022320
vn -0.0869335 0.4512517 0.8881523
v -1.1825761 0.9508260 2.1420541
vn -0.5603978 -0.4421073 0.7003539
v -1.2197702 0.8806440 2.1273000
vn 0.1105529 -0.4809906 -0.8697276
v -1.1655840 0.8769180 2.0083981
vn 0.5946376 0.4324872 -0.6777619
v -1.1283901 0.9471060 2.0231459
vn -0.0210861 0.9989421 -0.0408665
v -1.1757001 0.9906300 2.0720820
vn -0.8856937 0.4355567 0.1607395
v -1.2421321 0.9473401 2.0875740
vn -0.8043230 -0.4790503 -0.3515329
v -1.2358801 0.8770681 2.0482142
vn -0.4498649 0.4056140 -0.7956751
v -1.2086461 0.9450421 2.0140860
vn 0.4498278 -0.4056101 0.7956980
v -1.2516121 0.9441600 2.2261620
vn 0.0418003 -0.9961163 0.0774921
v -1.2799021 0.8943781 2.1763921
vn 0.8874287 -0.4451354 -0.1196861
v -1.2134700 0.9376621 2.1609001
vn 0.8078493 0.4494143 0.3813217
v -1.2197220 1.0079401 2.2002602
vn -0.0869543 0.4512865 0.8881326
v -1.2900180 1.0080841 2.2400761
vn -0.5603929 -0.4420887 0.7003695
v -1.3272120 0.9379020 2.2253280
vn 0.1105492 -0.4809579 -0.8697462
v -1.2730261 0.9341761 2.1064200
vn 0.5946498 0.4324954 -0.6777458
v -1.2358321 1.0043640 2.1211741
vn -0.0210879 0.9989409 -0.0408961
v -1.2831420 1.0478880 2.1701040
vn -0.8856946 0.4355646 0.1607131
v -1.3495741 1.0045980 2.1855962
vn -0.8043348 -0.4790463 -0.3515113
v -1.3433220 0.9343260 2.1462421
vn -0.4498714 0.4056201 -0.7956683
v -1.3160881 1.0023000 2.1121142
vn 0.4498371 -0.4056172 0.7956892
v -1.1175060 0.9569341 2.2471440
vn 0.0418437 -0.9961166 0.0774652
v -1.1457961 0.9071520 2.1973741
vn 0.8874438 -0.4450939 -0.1197290
v -1.0793641 0.9504420 2.1818821
vn 0.8078489 0.4494478 0.3812832
v -1.0856160 1.0207200 2.2212422
vn -0.0869546 0.4513112 0.8881200
v -1.1559120 1.0208641 2.2610581
vn -0.5603772 -0.4420855 0.7003841
v -1.1931061 0.9506760 2.2463100
vn 0.1105383 -0.4809225 -0.8697671
v -1.1389260 0.9469561 2.1274021
vn 0.5946143 0.4324857 -0.6777831
v -1.1017320 1.0171380 2.1421561
vn -0.0210759 0.9989394 -0.0409383
v -1.1490360 1.0606620 2.1910861
vn -0.8856697 0.4356158 0.1607112
v -1.2154680 1.0173780 2.2065783
vn -0.8043488 -0.4790342 -0.3514958
v -1.2092220 0.9471000 2.1672242
vn -0.4498459 0.4056298 -0.7956778
v -1.1819820 1.0150741 2.1330960
# 180 vertices, 0 vertices normals


usemtl material_2
vt 0.0000000 0.0000000
f 1/1/1 2/1/2 3/1/3
f 2/1/2 1/1/1 6/1/6
f 1/1/1 3/1/3 4/1/4
f 1/1/1 4/1/4 5/1/5
f 1/1/1 5/1/5 6/1/6
f 2/1/2 6/1/6 11/1/11
f 3/1/3 2/1/2 7/1/7
f 4/1/4 3/1/3 8/1/8
f 5/1/5 4/1/4 9/1/9
f 6/1/6 5/1/5 10/1/10
f 2/1/2 11/1/11 7/1/7
f 3/1/3 7/1/7 8/1/8
f 4/1/4 8/1/8 9/1/9
f 5/1/5 9/1/9 10/1/10
f 6/1/6 10/1/10 11/1/11
f 7/1/7 11/1/11 12/1/12
f 8/1/8 7/1/7 12/1/12
f 9/1/9 8/1/8 12/1/12
f 10/1/10 9/1/9 12/1/12
f 11/1/11 10/1/10 12/1/12
f 13/1/13 14/1/14 15/1/15
f 14/1/14 13/1/13 18/1/18
f 13/1/13 15/1/15 16/1/16
f 13/1/13 16/1/16 17/1/17
f 13/1/13 17/1/17 18/1/18
f 14/1/14 18/1/18 23/1/23
f 15/1/15 14/1/14 19/1/19
f 16/1/16 15/1/15 20/1/20
f 17/1/17 16/1/16 21/1/21
f 18/1/18 17/1/17 22/1/22
f 14/1/14 23/1/23 19/1/19
f 15/1/15 19/1/19 20/1/20
f 16/1/16 20/1/20 21/1/21
f 17/1/17 21/1/21 22/1/22
f 18/1/18 22/1/22 23/1/23
f 19/1/19 23/1/23 24/1/24
f 20/1/20 19/1/19 24/1/24
f 21/1/21 20/1/20 24/1/24
f 22/1/22 21/1/21 24/1/24
f 23/1/23 22/1/22 24/1/24
f 25/1/25 26/1/26 27/1/27
f 26/1/26 25/1/25 30/1/30
f 25/1/25 27/1/27 28/1/28
f 25/1/25 28/1/28 29/1/29
f 25/1/25 29/1/29 30/1/30
f 26/1/26 30/1/30 35/1/35
f 27/1/27 26/1/26 31/1/31
f 28/1/28 27/1/27 32/1/32
f 29/1/29 28/1/28 33/1/33
f 30/1/30 29/1/29 34/1/34
f 26/1/26 35/1/35 31/1/31
f 27/1/27 31/1/31 32/1/32
f 28/1/28 32/1/32 33/1/33
f 29/1/29 33/1/33 34/1/34
f 30/1/30 34/1/34 35/1/35
f 31/1/31 35/1/35 36/1/36
f 32/1/32 31/1/31 36/1/36
f 33/1/33 32/1/32 36/1/36
f 34/1/34 33/1/33 36/1/36
f 35/1/35 34/1/34 36/1/36

usemtl material_6
f 37/1/37 38/1/38 39/1/39
f 38/1/38 37/1/37 42/1/42
f 37/1/37 39/1/39 40/1/40
f 37/1/37 40/1/40 41/1/41
f 37/1/37 41/1/41 42/1/42
f 38/1/38 42/1/42 47/1/47
f 39/1/39 38/1/38 43/1/43
f 40/1/40 39/1/39 44/1/44
f 41/1/41 40/1/40 45/1/45
f 42/1/42 41/1/41 46/1/46
f 38/1/38 47/1/47 43/1/43
f 39/1/39 43/1/43 44/1/44
f 40/1/40 44/1/44 45/1/45
f 41/1/41 45/1/45 46/1/46
f 42/1/42 46/1/46 47/1/47
f 43/1/43 47/1/47 48/1/48
f 44/1/44 43/1/43 48/1/48
f 45/1/45 44/1/44 48/1/48
f 46/1/46 45/1/45 48/1/48
f 47/1/47 46/1/46 48/1/48
f 49/1/49 50/1/50 51/1/51
f 50/1/50 49/1/49 54/1/54
f 49/1/49 51/1/51 52/1/52
f 49/1/49 52/1/52 53/1/53
f 49/1/49 53/1/53 54/1/54
f 50/1/50 54/1/54 59/1/59
f 51/1/51 50/1/50 55/1/55
f 52/1/52 51/1/51 56/1/56
f 53/1/53 52/1/52 57/1/57
f 54/1/54 53/1/53 58/1/58
f 50/1/50 59/1/59 55/1/55
f 51/1/51 55/1/55 56/1/56
f 52/1/52 56/1/56 57/1/57
f 53/1/53 57/1/57 58/1/58
f 54/1/54 58/1/58 59/1/59
f 55/1/55 59/1/59 60/1/60
f 56/1/56 55/1/55 60/1/60
f 57/1/57 56/1/56 60/1/60
f 58/1/58 57/1/57 60/1/60
f 59/1/59 58/1/58 60/1/60
f 61/1/61 62/1/62 63/1/63
f 62/1/62 61/1/61 66/1/66
f 61/1/61 63/1/63 64/1/64
f 61/1/61 64/1/64 65/1/65
f 61/1/61 65/1/65 66/1/66
f 62/1/62 66/1/66 71/1/71
f 63/1/63 62/1/62 67/1/67
f 64/1/64 63/1/63 68/1/68
f 65/1/65 64/1/64 69/1/69
f 66/1/66 65/1/65 70/1/70
f 62/1/62 71/1/71 67/1/67
f 63/1/63 67/1/67 68/1/68
f 64/1/64 68/1/68 69/1/69
f 65/1/65 69/1/69 70/1/70
f 66/1/66 70/1/70 71/1/71
f 67/1/67 71/1/71 72/1/72
f 68/1/68 67/1/67 72/1/72
f 69/1/69 68/1/68 72/1/72
f 70/1/70 69/1/69 72/1/72
f 71/1/71 70/1/70 72/1/72
f 73/1/73 74/1/74 75/1/75
f 74/1/74 73/1/73 78/1/78
f 73/1/73 75/1/75 76/1/76
f 73/1/73 76/1/76 77/1/77
f 73/1/73 77/1/77 78/1/78
f 74/1/74 78/1/78 83/1/83
f 75/1/75 74/1/74 79/1/79
f 76/1/76 75/1/75 80/1/80
f 77/1/77 76/1/76 81/1/81
f 78/1/78 77/1/77 82/1/82
f 74/1/74 83/1/83 79/1/79
f 75/1/75 79/1/79 80/1/80
f 76/1/76 80/1/80 81/1/81
f 77/1/77 81/1/81 82/1/82
f 78/1/78 82/1/82 83/1/83
f 79/1/79 83/1/83 84/1/84
f 80/1/80 79/1/79 84/1/84
f 81/1/81 80/1/80 84/1/84
f 82/1/82 81/1/81 84/1/84
f 83/1/83 82/1/82 84/1/84
f 85/1/85 86/1/86 87/1/87
f 86/1/86 85/1/85 90/1/90
f 85/1/85 87/1/87 88/1/88
f 85/1/85 88/1/88 89/1/89
f 85/1/85 89/1/89 90/1/90
f 86/1/86 90/1/90 95/1/95
f 87/1/87 86/1/86 91/1/91
f 88/1/88 87/1/87 92/1/92
f 89/1/89 88/1/88 93/1/93
f 90/1/90 89/1/89 94/1/94
f 86/1/86 95/1/95 91/1/91
f 87/1/87 91/1/91 92/1/92
f 88/1/88 92/1/92 93/1/93
f 89/1/89 93/1/93 94/1/94
f 90/1/90 94/1/94 95/1/95
f 91/1/91 95/1/95 96/1/96
f 92/1/92 91/1/91 96/1/96
f 93/1/93 92/1/92 96/1/96
f 94/1/94 93/1/93 96/1/96
f 95/1/95 94/1/94 96/1/96
f 97/1/97 98/1/98 99/1/99
f 98/1/98 97/1/97 102/1/102
f 97/1/97 99/1/99 100/1/100
f 97/1/97 100/1/100 101/1/101
f 97/1/97 101/1/101 102/1/102
f 98/1/98 102/1/102 107/1/107
f 99/1/99 98/1/98 103/1/103
f 100/1/100 99/1/99 104/1/104
f 101/1/101 100/1/100 105/1/105
f 102/1/102 101/1/101 106/1/106
f 98/1/98 107/1/107 103/1/103
f 99/1/99 103/1/103 104/1/104
f 100/1/100 104/1/104 105/1/105
f 101/1/101 105/1/105 106/1/106
f 102/1/102 106/1/106 107/1/107
f 103/1/103 107/1/107 108/1/108
f 104/1/104 103/1/103 108/1/108
f 105/1/105 104/1/104 108/1/108
f 106/1/106 105/1/105 108/1/108
f 107/1/107 106/1/106 108/1/108
f 109/1/109 110/1/110 111/1/111
f 110/1/110 109/1/109 114/1/114
f 109/1/109 111/1/111 112/1/112
f 109/1/109 112/1/112 113/1/113
f 109/1/109 113/1/113 114/1/114
f 110/1/110 114/1/114 119/1/119
f 111/1/111 110/1/110 115/1/115
f 112/1/112 111/1/111 116/1/116
f 113/1/113 112/1/112 117/1/117
f 114/1/114 113/1/113 118/1/118
f 110/1/110 119/1/119 115/1/115
f 111/1/111 115/1/115 116/1/116
f 112/1/112 116/1/116 117/1/117
f 113/1/113 117/1/117 118/1/118
f 114/1/114 118/1/118 119/1/119
f 115/1/115 119/1/119 120/1/120
f 116/1/116 115/1/115 120/1/120
f 117/1/117 116/1/116 120/1/120
f 118/1/118 117/1/117 120/1/120
f 119/1/119 118/1/118 120/1/120
f 121/1/121 122/1/122 123/1/123
f 122/1/122 121/1/121 126/1/126
f 121/1/121 123/1/123 124/1/124
f 121/1/121 124/1/124 125/1/125
f 121/1/121 125/1/125 126/1/126
f 122/1/122 126/1/126 131/1/131
f 123/1/123 122/1/122 127/1/127
f 124/1/124 123/1/123 128/1/128
f 125/1/125 124/1/124 129/1/129
f 126/1/126 125/1/125 130/1/130
f 122/1/122 131/1/131 127/1/127
f 123/1/123 127/1/127 128/1/128
f 124/1/124 128/1/128 129/1/129
f 125/1/125 129/1/129 130/1/130
f 126/1/126 130/1/130 131/1/131
f 127/1/127 131/1/131 132/1/132
f 128/1/128 127/1/127 132/1/132
f 129/1/129 128/1/128 132/1/132
f 130/1/130 129/1/129 132/1/132
f 131/1/131 130/1/130 132/1/132
f 133/1/133 134/1/134 135/1/135
f 134/1/134 133/1/133 138/1/138
f 133/1/133 135/1/135 136/1/136
f 133/1/133 136/1/136 137/1/137
f 133/1/133 137/1/137 138/1/138
f 134/1/134 138/1/138 143/1/143
f 135/1/135 134/1/134 139/1/139
f 136/1/136 135/1/135 140/1/140
f 137/1/137 136/1/136 141/1/141
f 138/1/138 137/1/137 142/1/142
f 134/1/134 143/1/143 139/1/139
f 135/1/135 139/1/139 140/1/140
f 136/1/136 140/1/140 141/1/141
f 137/1/137 141/1/141 142/1/142
f 138/1/138 142/1/142 143/1/143
f 139/1/139 143/1/143 144/1/144
f 140/1/140 139/1/139 144/1/144
f 141/1/141 140/1/140 144/1/144
f 142/1/142 141/1/141 144/1/144
f 143/1/143 142/1/142 144/1/144
f 145/1/145 146/1/146 147/1/147
f 146/1/146 145/1/145 150/1/150
f 145/1/145 147/1/147 148/1/148
f 145/1/145 148/1/148 149/1/149
f 145/1/145 149/1/149 150/1/150
f 146/1/146 150/1/150 155/1/155
f 147/1/147 146/1/146 151/1/151
f 148/1/148 147/1/147 152/1/152
f 149/1/149 148/1/148 153/1/153
f 150/1/150 149/1/149 154/1/154
f 146/1/146 155/1/155 151/1/151
f 147/1/147 151/1/151 152/1/152
f 148/1/148 152/1/152 153/1/153
f 149/1/149 153/1/153 154/1/154
f 150/1/150 154/1/154 155/1/155
f 151/1/151 155/1/155 156/1/156
f 152/1/152 151/1/151 156/1/156
f 153/1/153 152/1/152 156/1/156
f 154/1/154 153/1/153 156/1/156
f 155/1/155 154/1/154 156/1/156
f 157/1/157 158/1/158 159/1/159
f 158/1/158 157/1/157 162/1/162
f 157/1/157 159/1/159 160/1/160
f 157/1/157 160/1/160 161/1/161
f 157/1/157 161/1/161 162/1/162
f 158/1/158 162/1/162 167/1/167
f 159/1/159 158/1/158 163/1/163
f 160/1/160 159/1/159 164/1/164
f 161/1/161 160/1/160 165/1/165
f 162/1/162 161/1/161 166/1/166
f 158/1/158 167/1/167 163/1/163
f 159/1/159 163/1/163 164/1/164
f 160/1/160 164/1/164 165/1/165
f 161/1/161 165/1/165 166/1/166
f 162/1/162 166/1/166 167/1/167
f 163/1/163 167/1/167 168/1/168
f 164/1/164 163/1/163 168/1/168
f 165/1/165 164/1/164 168/1/168
f 166/1/166 165/1/165 168/1/168
f 167/1/167 166/1/166 168/1/168
f 169/1/169 170/1/170 171/1/171
f 170/1/170 169/1/169 174/1/174
f 169/1/169 171/1/171 172/1/172
f 169/1/169 172/1/172 173/1/173
f 169/1/169 173/1/173 174/1/174
f 170/1/170 174/1/174 179/1/179
f 171/1/171 170/1/170 175/1/175
f 172/1/172 171/1/171 176/1/176
f 173/1/173 172/1/172 177/1/177
f 174/1/174 173/1/173 178/1/178
f 170/1/170 179/1/179 175/1/175
f 171/1/171 175/1/175 176/1/176
f 172/1/172 176/1/176 177/1/177
f 173/1/173 177/1/177 178/1/178
f 174/1/174 178/1/178 179/1/179
f 175/1/175 179/1/179 180/1/180
f 176/1/176 175/1/175 180/1/180
f 177/1/177 176/1/176 180/1/180
f 178/1/178 177/1/177 180/1/180
f 179/1/179 178/1/178 180/1/180
# 300 faces, 1 coords texture

# End of File
