####
#
# OBJ File Generated by Meshlab
#
####
# Object treeStump.obj
#
# Vertices: 65
# Faces: 126
#
####
mtllib ./treeStump.obj.mtl

vn 0.8249401 -0.5649604 -0.0171315
v 3.6774831 -0.0001715 2.1263876
vn 0.9966561 0.0706583 -0.0410387
v 3.6384895 0.2447030 2.1283925
vn 0.5924110 -0.6075068 0.5291358
v 3.5441520 -0.0001710 2.4373724
vn 0.7408676 0.0290065 0.6710245
v 3.5310874 0.2447030 2.4307470
vn 0.0704384 -0.5643996 0.8224911
v 3.2433515 -0.0001710 2.6075926
vn 0.0626874 0.0694806 0.9956118
v 3.2413466 0.2447030 2.5685990
vn -0.5499942 -0.5700449 0.6103731
v 2.9128375 -0.0001710 2.4901879
vn -0.8263990 -0.5621656 0.0321665
v 2.7565989 -0.0001715 2.1642506
vn -0.9943022 0.0903038 0.0566432
v 2.8011401 0.2447030 2.1714554
vn -0.6025496 -0.5720722 -0.5564778
v 2.8795514 -0.0001715 1.8429470
vn -0.7372295 0.0842449 -0.6703697
v 2.9085419 0.2447025 1.8691015
vn -0.0421965 -0.5700719 -0.8205106
v 3.1962781 -0.0001715 1.6922560
vn 0.5503508 -0.5700721 -0.6100261
v 3.5267920 -0.0001715 1.8096610
vn -0.4413190 0.8041865 -0.3981480
v 3.4834831 0.8826440 2.3877995
vn -0.5935921 0.8041869 0.0305270
v 3.5744600 0.8826440 2.1316855
vn -0.0305269 0.8041865 -0.5935927
v 3.2380531 0.8826440 2.5045691
vn 0.3981476 0.8041864 -0.4413193
v 2.9819396 0.8826440 2.4135926
vn 0.5935930 0.8041862 -0.0305277
v 2.8651700 0.8826440 2.1681631
vn 0.3089457 0.4799704 0.8210853
v 2.9561460 0.8826440 1.9120491
vn 0.0376368 0.6506645 0.7584321
v 3.2015779 0.8550705 1.7952585
vn -0.2230895 0.4799671 0.8484473
v 3.4576900 0.8826440 1.8862555
vn 0.5764564 0.6302625 0.5200647
v 3.5310874 0.8826440 2.4307470
vn 0.7753575 0.6302624 -0.0398749
v 3.6384895 0.8826440 2.1283925
vn -0.5200650 0.6302623 0.5764562
v 2.9389920 0.8826440 2.4611969
vn -0.7753575 0.6302625 0.0398746
v 2.8011401 0.8826440 2.1714554
vn -0.0513248 0.0372002 -0.9979889
v 3.1982830 0.8826440 1.7312495
vn 0.7462618 0.3821566 -0.5450227
v 3.5006375 0.8826440 1.8386515
vn -0.0328754 0.7682576 -0.6392962
v 3.1995685 1.3034190 1.7562380
vn -0.8357161 0.5311903 -0.1393398
v 3.0209224 1.1773624 1.8412335
vn 0.8170136 0.5311900 -0.2243349
v 3.3859911 1.1773624 1.8224585
vn 0.0259841 0.8625270 0.5053436
v 3.2015984 1.3034195 1.7957170
vn -0.1280433 0.4382481 0.8896874
v 3.0502739 1.1773624 1.8677135
vn 0.2186321 0.4382457 0.8718606
v 3.3595104 1.1773624 1.8518100
vn 0.0433553 0.9990595 -0.0006701
v 3.3492064 0.8706580 2.1432700
vn -0.0045395 0.9992777 0.0377299
v 3.2112150 0.8719855 2.2722614
vn -0.0404340 0.9991170 -0.0114136
v 3.0984454 0.8708810 2.1068115
vn 0.0084290 0.9991383 -0.0406406
v 3.2529035 0.8709970 2.0238860
vn -0.5636879 0.6506643 -0.5088143
v 3.4834831 0.8550725 2.3877995
vn -0.7578357 0.6512804 0.0389732
v 3.5744600 0.8550720 2.1316855
vn -0.0383905 0.6522724 -0.7570119
v 3.2380531 0.8550725 2.5045691
vn 0.5075157 0.6498864 -0.5657523
v 2.9819396 0.8550720 2.4135926
vn 0.7589824 0.6500592 -0.0369986
v 2.8651700 0.8550720 2.1681631
vn 0.5645628 0.6508318 0.5076287
v 2.9561460 0.8550720 1.9120491
vn -0.5076816 0.6514820 0.5637646
v 3.4576900 0.8550720 1.8862555
vn 0.0398751 0.6302624 0.7753576
v 3.2413466 0.8826440 2.5685990
vn -0.7982361 0.3821546 -0.4655932
v 2.9085419 0.8826440 1.8691015
vn 0.5924261 -0.1878787 0.7834112
v 3.5310874 0.4711005 2.4307470
vn 0.9552930 -0.1833939 -0.2319095
v 3.6384895 0.4711005 2.1283925
vn 0.4138740 0.2174442 0.8839833
v 3.5310874 0.6768720 2.4307470
vn -0.6676811 0.0805364 0.7400783
v 2.9389920 0.2447030 2.4611969
vn -0.0511934 0.0805354 -0.9954363
v 3.1982830 0.2447030 1.7312495
vn 0.6676808 0.0805354 -0.7400787
v 3.5006375 0.2447030 1.8386515
vn 0.8850545 0.2106814 -0.4150807
v 3.6384895 0.6768720 2.1283925
vn 0.8003715 -0.2739929 0.5332292
v 3.8064649 0.7162165 2.2837934
vn 0.6968686 0.3081560 0.6476219
v 3.8064649 0.6362095 2.2837934
vn 0.9492580 0.3081488 -0.0628790
v 3.7567050 0.6362095 2.4238770
vn 0.9574023 -0.2739876 0.0911683
v 3.7567050 0.7162165 2.4238770
vn 0.6800955 0.6859629 -0.2586991
v 3.8136175 0.7375840 2.2636585
vn 0.9091928 -0.3654820 -0.1994778
v 3.8136175 0.6148420 2.2636585
vn 0.5661080 -0.3652050 0.7390177
v 3.7495525 0.6148420 2.4440119
vn 0.3553305 0.6829923 0.6381705
v 3.7495525 0.7375840 2.4440119
vn 0.4067464 -0.4849935 0.7741696
v 3.7776420 0.7075045 2.2735550
vn 0.2799599 0.6589684 0.6981283
v 3.7776420 0.6274980 2.2735550
vn 0.6576326 0.6589659 -0.3650797
v 3.7278814 0.6274980 2.4136386
vn 0.8039706 -0.4850012 -0.3441006
v 3.7278814 0.7075050 2.4136386
# 65 vertices, 0 vertices normals


usemtl material_0
vt 0.0000000 0.0000000
f 2/1/2 3/1/3 1/1/1
f 3/1/3 6/1/6 5/1/5
f 6/1/6 7/1/7 5/1/5
f 7/1/7 9/1/9 8/1/8
f 8/1/8 11/1/11 10/1/10
f 11/1/11 12/1/12 10/1/10
f 45/1/45 24/1/24 50/1/50
f 51/1/51 13/1/13 12/1/12
f 52/1/52 1/1/1 13/1/13
f 12/1/12 13/1/13 3/1/3
f 17/1/17 42/1/42 18/1/18
f 46/1/46 26/1/26 51/1/51
f 51/1/51 27/1/27 52/1/52
f 52/1/52 23/1/23 53/1/53
f 53/1/53 22/1/22 49/1/49
f 14/1/14 23/1/23 15/1/15
f 16/1/16 22/1/22 14/1/14
f 17/1/17 45/1/45 16/1/16
f 18/1/18 24/1/24 17/1/17
f 18/1/18 46/1/46 25/1/25
f 20/1/20 33/1/33 31/1/31
f 26/1/26 30/1/30 27/1/27
f 15/1/15 27/1/27 21/1/21
f 32/1/32 28/1/28 29/1/29
f 33/1/33 28/1/28 31/1/31
f 21/1/21 30/1/30 33/1/33
f 19/1/19 29/1/29 46/1/46
f 26/1/26 29/1/29 28/1/28
f 20/1/20 32/1/32 19/1/19
f 34/1/34 37/1/37 36/1/36
f 14/1/14 40/1/40 16/1/16
f 20/1/20 44/1/44 21/1/21
f 18/1/18 43/1/43 19/1/19
f 16/1/16 41/1/41 17/1/17
f 15/1/15 38/1/38 14/1/14
f 21/1/21 39/1/39 15/1/15

usemtl material_7
f 34/1/34 38/1/38 39/1/39
f 35/1/35 42/1/42 41/1/41
f 37/1/37 43/1/43 36/1/36
f 34/1/34 44/1/44 37/1/37

usemtl material_0
f 2/1/2 47/1/47 4/1/4
f 52/1/52 48/1/48 2/1/2
f 11/1/11 25/1/25 46/1/46
f 4/1/4 45/1/45 6/1/6
f 9/1/9 50/1/50 25/1/25
f 49/1/49 58/1/58 53/1/53
f 52/1/52 53/1/53 48/1/48
f 56/1/56 65/1/65 57/1/57
f 53/1/53 59/1/59 48/1/48
f 49/1/49 60/1/60 61/1/61
f 47/1/47 59/1/59 60/1/60
f 55/1/55 58/1/58 54/1/54
f 56/1/56 59/1/59 55/1/55
f 57/1/57 60/1/60 56/1/56
f 57/1/57 58/1/58 61/1/61

usemtl material_7
f 63/1/63 65/1/65 64/1/64

usemtl material_0
f 55/1/55 62/1/62 63/1/63
f 57/1/57 62/1/62 54/1/54
f 55/1/55 64/1/64 56/1/56
f 2/1/2 4/1/4 3/1/3
f 3/1/3 4/1/4 6/1/6
f 6/1/6 50/1/50 7/1/7
f 7/1/7 50/1/50 9/1/9
f 8/1/8 9/1/9 11/1/11
f 11/1/11 51/1/51 12/1/12
f 51/1/51 52/1/52 13/1/13
f 52/1/52 2/1/2 1/1/1
f 13/1/13 1/1/1 3/1/3
f 3/1/3 5/1/5 7/1/7
f 7/1/7 8/1/8 3/1/3
f 8/1/8 10/1/10 3/1/3
f 10/1/10 12/1/12 3/1/3
f 17/1/17 41/1/41 42/1/42
f 50/1/50 24/1/24 25/1/25
f 51/1/51 26/1/26 27/1/27
f 49/1/49 22/1/22 45/1/45
f 52/1/52 27/1/27 23/1/23
f 53/1/53 23/1/23 22/1/22
f 14/1/14 22/1/22 23/1/23
f 16/1/16 45/1/45 22/1/22
f 17/1/17 24/1/24 45/1/45
f 18/1/18 25/1/25 24/1/24
f 18/1/18 19/1/19 46/1/46
f 20/1/20 21/1/21 33/1/33
f 26/1/26 28/1/28 30/1/30
f 15/1/15 23/1/23 27/1/27
f 32/1/32 31/1/31 28/1/28
f 33/1/33 30/1/30 28/1/28
f 21/1/21 27/1/27 30/1/30
f 19/1/19 32/1/32 29/1/29
f 26/1/26 46/1/46 29/1/29
f 20/1/20 31/1/31 32/1/32
f 35/1/35 34/1/34 36/1/36
f 14/1/14 38/1/38 40/1/40
f 18/1/18 42/1/42 43/1/43
f 16/1/16 40/1/40 41/1/41
f 15/1/15 39/1/39 38/1/38
f 21/1/21 44/1/44 39/1/39
f 19/1/19 43/1/43 20/1/20

usemtl material_7
f 34/1/34 35/1/35 38/1/38
f 35/1/35 40/1/40 38/1/38
f 35/1/35 41/1/41 40/1/40
f 35/1/35 36/1/36 42/1/42
f 36/1/36 43/1/43 42/1/42
f 37/1/37 20/1/20 43/1/43
f 37/1/37 44/1/44 20/1/20
f 34/1/34 39/1/39 44/1/44

usemtl material_0
f 2/1/2 48/1/48 47/1/47
f 11/1/11 9/1/9 25/1/25
f 4/1/4 47/1/47 45/1/45
f 11/1/11 46/1/46 51/1/51
f 6/1/6 45/1/45 50/1/50
f 49/1/49 61/1/61 58/1/58
f 47/1/47 49/1/49 45/1/45
f 56/1/56 64/1/64 65/1/65
f 53/1/53 58/1/58 59/1/59
f 49/1/49 47/1/47 60/1/60
f 47/1/47 48/1/48 59/1/59
f 55/1/55 59/1/59 58/1/58
f 56/1/56 60/1/60 59/1/59
f 57/1/57 61/1/61 60/1/60
f 57/1/57 54/1/54 58/1/58

usemtl material_7
f 63/1/63 62/1/62 65/1/65

usemtl material_0
f 55/1/55 54/1/54 62/1/62
f 57/1/57 65/1/65 62/1/62
f 55/1/55 63/1/63 64/1/64
# 126 faces, 1 coords texture

# End of File
